<svg width="54" height="54" viewBox="0 0 54 54" fill="none" xmlns="http://www.w3.org/2000/svg">
<g clip-path="url(#clip0_1449_3831)">
<path d="M30.1767 34.8522C30.1767 36.0148 29.5192 36.9868 28.5885 37.5395V44.3816H25.412V37.5427C24.4781 36.99 23.8238 36.018 23.8238 34.8522C23.8238 33.0988 25.2437 31.6757 27.0002 31.6757C28.7505 31.6757 30.1767 33.0956 30.1767 34.8522ZM47.5361 26.8729V49.3623C47.5361 51.9893 45.3984 54.127 42.7714 54.127H11.0417C8.41471 54.127 6.27695 51.9893 6.27695 49.3623V26.8729C6.27695 24.246 8.41471 22.1082 11.0417 22.1082H11.1179V15.7934C11.1179 7.03583 18.2427 -0.0889893 27.0002 -0.0889893C35.7578 -0.0889893 42.8826 7.03583 42.8826 15.7934V22.1209C45.4587 22.1781 47.5361 24.2841 47.5361 26.8729ZM14.2944 22.1082H39.7061V15.7934C39.7061 8.78607 34.0075 3.08748 27.0002 3.08748C19.9929 3.08748 14.2944 8.78607 14.2944 15.7934V22.1082ZM44.3596 26.8729C44.3596 26.0343 43.7021 25.3672 42.8826 25.3069V25.3196H11.1179V25.2847H11.0417C10.1681 25.2847 9.45342 25.9962 9.45342 26.8729V49.3623C9.45342 50.239 10.1681 50.9505 11.0417 50.9505H42.7714C43.6449 50.9505 44.3596 50.239 44.3596 49.3623V26.8729Z" fill="#FAC44D"/>
</g>
<defs>
<clipPath id="clip0_1449_3831">
<rect width="54" height="54" fill="white"/>
</clipPath>
</defs>
</svg>
