<svg width="19" height="16" viewBox="0 0 19 16" fill="none" xmlns="http://www.w3.org/2000/svg">
<path d="M4.56706 15.2707V5.45338H0.949079V15.2707H4.56706ZM2.73862 4.14003C3.90571 4.14003 4.83939 3.31919 4.83939 2.33418C4.83939 1.382 3.90571 0.593987 2.73862 0.593987C1.61043 0.593987 0.676758 1.382 0.676758 2.33418C0.676758 3.31919 1.61043 4.14003 2.73862 4.14003ZM18.0664 15.2707H18.1053V9.88594C18.1053 7.25924 17.4051 5.22355 13.7482 5.22355C11.9975 5.22355 10.8305 6.04439 10.3247 6.79957H10.2858V5.45338H6.82344V15.2707H10.4414V10.4113C10.4414 9.13076 10.7137 7.91592 12.5811 7.91592C14.4484 7.91592 14.4873 9.3606 14.4873 10.5098V15.2707H18.0664Z" fill="#222222"/>
</svg>
