<svg width="19" height="15" viewBox="0 0 19 15" fill="none" xmlns="http://www.w3.org/2000/svg">
<path d="M16.3318 3.92626C17.0139 3.42893 17.6278 2.83214 18.1053 2.13588C17.4914 2.40112 16.7752 2.60005 16.0589 2.66636C16.8093 2.23535 17.355 1.57224 17.6278 0.743362C16.9457 1.14122 16.1612 1.43962 15.3768 1.6054C14.6947 0.909138 13.7738 0.511276 12.7506 0.511276C10.7724 0.511276 9.16935 2.06957 9.16935 3.99257C9.16935 4.25781 9.20346 4.52305 9.27167 4.78829C6.30438 4.62252 3.64405 3.23 1.8705 1.14122C1.56353 1.63855 1.393 2.23535 1.393 2.89845C1.393 4.09204 2.00692 5.153 2.99602 5.78295C2.4162 5.74979 1.83639 5.61717 1.35889 5.35193V5.38509C1.35889 7.076 2.58674 8.46852 4.22386 8.80007C3.95101 8.86638 3.60994 8.93269 3.30298 8.93269C3.06423 8.93269 2.85959 8.89954 2.62085 8.86638C3.06423 10.2589 4.3944 11.2536 5.96331 11.2867C4.73547 12.2151 3.20066 12.7787 1.52943 12.7787C1.22247 12.7787 0.949612 12.7455 0.676758 12.7124C2.24567 13.707 4.12154 14.2707 6.16795 14.2707C12.7506 14.2707 16.3318 8.999 16.3318 4.39043C16.3318 4.22466 16.3318 4.09204 16.3318 3.92626Z" fill="#222222"/>
</svg>
