<svg width="258" height="237" viewBox="0 0 258 237" fill="none" xmlns="http://www.w3.org/2000/svg">
<path d="M11.5767 201.924C11.79 201.099 11.2951 200.255 10.4676 200.041C9.64294 199.828 8.79835 200.323 8.58507 201.15C8.55095 201.281 8.5339 201.412 8.5339 201.54C8.5339 202.228 8.99457 202.854 9.69128 203.036C10.5188 203.246 11.3634 202.751 11.5767 201.924Z" fill="white" fill-opacity="0.3"/>
<path d="M115.305 49.982C114.807 49.2853 113.843 49.1261 113.146 49.6209C112.726 49.9223 112.498 50.3972 112.498 50.8807C112.498 51.1906 112.592 51.5034 112.785 51.7764C113.28 52.4731 114.244 52.6352 114.941 52.1404C115.635 51.6428 115.8 50.6788 115.305 49.982Z" fill="white" fill-opacity="0.3"/>
<path d="M8.36667 215.834C8.53729 214.998 7.99698 214.182 7.15808 214.011C6.32203 213.841 5.50587 214.381 5.33525 215.22C5.3125 215.325 5.30397 215.428 5.30397 215.53C5.30397 216.249 5.81015 216.895 6.54383 217.043C7.38273 217.213 8.19604 216.673 8.36667 215.834Z" fill="white" fill-opacity="0.3"/>
<path d="M15.5357 188.21C15.7945 187.396 15.3452 186.526 14.5319 186.268C13.7186 186.009 12.8484 186.458 12.5896 187.271C12.5413 187.425 12.5157 187.584 12.5157 187.741C12.5157 188.397 12.9366 189.003 13.5935 189.214C14.4068 189.472 15.2769 189.026 15.5357 188.21Z" fill="white" fill-opacity="0.3"/>
<path d="M127.257 42.0487C126.799 41.3293 125.843 41.1132 125.124 41.571C124.66 41.8639 124.404 42.3672 124.404 42.8791C124.404 43.1606 124.484 43.4479 124.646 43.7038C125.104 44.4232 126.059 44.6394 126.779 44.1815C127.498 43.7237 127.714 42.7682 127.257 42.0487Z" fill="white" fill-opacity="0.3"/>
<path d="M139.613 34.7656C139.195 34.0205 138.253 33.7561 137.508 34.1741C137.002 34.4556 136.721 34.9817 136.721 35.5249C136.721 35.7808 136.783 36.0424 136.917 36.2813C137.335 37.0263 138.276 37.2908 139.021 36.8728C139.766 36.4519 140.031 35.5106 139.613 34.7656Z" fill="white" fill-opacity="0.3"/>
<path d="M178.753 17.0539C178.461 16.2519 177.573 15.8396 176.771 16.1297C176.143 16.36 175.756 16.9515 175.756 17.5828C175.756 17.7591 175.785 17.9383 175.85 18.1117C176.143 18.9137 177.033 19.326 177.832 19.0331C178.631 18.7431 179.044 17.8558 178.753 17.0539Z" fill="white" fill-opacity="0.3"/>
<path d="M5.91242 229.894C6.03755 229.05 5.45171 228.265 4.60713 228.14C3.76254 228.015 2.9777 228.601 2.85257 229.442C2.8412 229.519 2.83549 229.596 2.83549 229.67C2.83549 230.426 3.39002 231.086 4.15499 231.197C5.00242 231.325 5.7873 230.739 5.91242 229.894Z" fill="white" fill-opacity="0.3"/>
<path d="M206.261 8.84701C206.059 8.01949 205.217 7.51047 204.389 7.71521C203.684 7.88868 203.212 8.51998 203.212 9.21384C203.212 9.33612 203.226 9.46124 203.258 9.58352C203.46 10.411 204.301 10.9201 205.129 10.7153C205.959 10.5163 206.465 9.67453 206.261 8.84701Z" fill="white" fill-opacity="0.3"/>
<path d="M219.078 7.67855C219.914 7.5193 220.468 6.70883 220.309 5.86993C220.15 5.03387 219.342 4.47936 218.503 4.63861C217.761 4.78079 217.243 5.42631 217.243 6.15715C217.243 6.25099 217.252 6.35053 217.269 6.45006C217.428 7.28611 218.239 7.8378 219.078 7.67855Z" fill="white" fill-opacity="0.3"/>
<path d="M192.395 12.5776C192.145 11.7615 191.283 11.3008 190.464 11.5511C189.799 11.753 189.369 12.3672 189.369 13.0298C189.369 13.1805 189.392 13.3312 189.438 13.4791C189.688 14.2952 190.549 14.7588 191.366 14.5085C192.185 14.2583 192.645 13.3938 192.395 12.5776Z" fill="white" fill-opacity="0.3"/>
<path d="M165.4 22.2516C165.067 21.4667 164.157 21.0999 163.373 21.4355C162.784 21.6885 162.434 22.2601 162.434 22.8573C162.434 23.0592 162.474 23.2668 162.556 23.4659C162.892 24.2507 163.799 24.6176 164.587 24.282C165.369 23.9465 165.736 23.0365 165.4 22.2516Z" fill="white" fill-opacity="0.3"/>
<path d="M152.341 28.1593C151.963 27.3915 151.036 27.0759 150.268 27.4541C149.722 27.7242 149.404 28.2702 149.404 28.8447C149.404 29.0722 149.458 29.3053 149.566 29.5243C149.944 30.2893 150.868 30.6078 151.636 30.2296C152.404 29.8514 152.717 28.9243 152.341 28.1593Z" fill="white" fill-opacity="0.3"/>
<path d="M54.2298 112.066C54.736 111.378 54.5853 110.411 53.8971 109.905C53.209 109.402 52.2421 109.552 51.7359 110.241C51.534 110.514 51.4373 110.835 51.4373 111.153C51.4373 111.628 51.6563 112.097 52.0686 112.402C52.7596 112.905 53.7265 112.757 54.2298 112.066Z" fill="white" fill-opacity="0.3"/>
<path d="M38.6206 135.992C39.05 135.253 38.797 134.306 38.0576 133.88C37.3182 133.453 36.3713 133.706 35.9476 134.445C35.8054 134.687 35.74 134.954 35.74 135.219C35.74 135.754 36.0158 136.271 36.5106 136.558C37.25 136.985 38.1969 136.732 38.6206 135.992Z" fill="white" fill-opacity="0.3"/>
<path d="M46.1054 123.82C46.5718 123.103 46.3699 122.145 45.6561 121.678C44.9395 121.212 43.984 121.414 43.5177 122.127C43.347 122.389 43.2646 122.679 43.2646 122.972C43.2646 123.475 43.512 123.97 43.9641 124.269C44.6836 124.735 45.6419 124.536 46.1054 123.82Z" fill="white" fill-opacity="0.3"/>
<path d="M20.2418 174.698C20.5433 173.899 20.1423 173.006 19.3432 172.705C18.547 172.404 17.654 172.805 17.3498 173.604C17.2815 173.786 17.2502 173.968 17.2502 174.152C17.2502 174.775 17.6313 175.364 18.2484 175.597C19.0475 175.901 19.9404 175.498 20.2418 174.698Z" fill="white" fill-opacity="0.3"/>
<path d="M82.2068 77.4692C81.6068 76.8606 80.6286 76.8549 80.02 77.4549C79.7129 77.7564 79.5593 78.1545 79.5593 78.5555C79.5593 78.9479 79.71 79.3403 80.0058 79.6418C80.6058 80.2503 81.584 80.256 82.1926 79.656C82.7983 79.0559 82.804 78.0777 82.2068 77.4692Z" fill="white" fill-opacity="0.3"/>
<path d="M72.1967 87.773C71.5683 87.1986 70.59 87.2441 70.0156 87.8754C69.7426 88.174 69.6118 88.5437 69.6118 88.9162C69.6118 89.3371 69.7824 89.7551 70.118 90.0594C70.7493 90.6338 71.7275 90.5883 72.302 89.957C72.8736 89.3257 72.8281 88.3475 72.1967 87.773Z" fill="white" fill-opacity="0.3"/>
<path d="M62.7524 98.5909C62.0898 98.0506 61.1173 98.1501 60.5769 98.8098C60.3438 99.0971 60.2272 99.444 60.2272 99.7852C60.2272 100.235 60.4205 100.681 60.7959 100.985C61.4557 101.526 62.431 101.426 62.9713 100.766C63.5088 100.107 63.4121 99.1312 62.7524 98.5909Z" fill="white" fill-opacity="0.3"/>
<path d="M92.7453 67.7215C92.1794 67.0845 91.2011 67.0248 90.5641 67.5907C90.2201 67.8949 90.0438 68.3186 90.0438 68.748C90.0438 69.112 90.1717 69.476 90.4333 69.7718C90.9992 70.4088 91.9775 70.4685 92.6145 69.9026C93.2543 69.3367 93.314 68.3613 92.7453 67.7215Z" fill="white" fill-opacity="0.3"/>
<path d="M25.6676 161.47C26.0145 160.691 25.6619 159.775 24.8799 159.431C24.1007 159.087 23.1879 159.437 22.8409 160.219C22.7499 160.42 22.7073 160.634 22.7073 160.844C22.7073 161.436 23.0514 162.004 23.6286 162.258C24.4107 162.604 25.3235 162.252 25.6676 161.47Z" fill="white" fill-opacity="0.3"/>
<path d="M103.788 58.5498C103.259 57.8815 102.283 57.7735 101.618 58.3024C101.234 58.6067 101.032 59.0588 101.032 59.5138C101.032 59.8522 101.143 60.1906 101.37 60.4779C101.899 61.1461 102.875 61.2542 103.54 60.7253C104.211 60.1906 104.319 59.2181 103.788 58.5498Z" fill="white" fill-opacity="0.3"/>
<path d="M31.8046 148.556C32.1913 147.794 31.887 146.864 31.1277 146.478C30.3685 146.088 29.4357 146.392 29.049 147.154C28.9353 147.379 28.8812 147.618 28.8812 147.854C28.8812 148.417 29.1912 148.96 29.7258 149.233C30.4851 149.62 31.4178 149.316 31.8046 148.556Z" fill="white" fill-opacity="0.3"/>
<path d="M245.694 2.45036C245.763 3.30348 246.508 3.93762 247.361 3.86937C248.211 3.80112 248.845 3.05607 248.777 2.20296C248.709 1.35268 247.964 0.71852 247.111 0.786769C246.303 0.852175 245.689 1.52615 245.689 2.32523C245.689 2.36789 245.692 2.4077 245.694 2.45036Z" fill="white" fill-opacity="0.3"/>
<path d="M233.168 5.39491C234.012 5.28116 234.607 4.49914 234.493 3.65455C234.379 2.80996 233.6 2.21563 232.755 2.32938C231.979 2.4346 231.416 3.09717 231.416 3.85929C231.416 3.92754 231.422 3.9958 231.43 4.06689C231.541 4.91432 232.32 5.50866 233.168 5.39491Z" fill="white" fill-opacity="0.3"/>
<path d="M78.0148 110.552C78.6689 111.101 79.6414 111.019 80.1931 110.364C80.742 109.71 80.6595 108.735 80.0054 108.186C79.3514 107.637 78.376 107.72 77.8272 108.374C77.5826 108.664 77.4631 109.017 77.4631 109.366C77.4631 109.81 77.6508 110.248 78.0148 110.552Z" fill="white" fill-opacity="0.3"/>
<path d="M87.5471 99.7248C88.167 100.313 89.1453 100.285 89.7311 99.6623C90.3197 99.0423 90.2884 98.0641 89.6685 97.4783C89.0486 96.8896 88.0703 96.9209 87.4845 97.5408C87.203 97.8394 87.0637 98.2205 87.0637 98.6016C87.0637 99.0111 87.2257 99.4205 87.5471 99.7248Z" fill="white" fill-opacity="0.3"/>
<path d="M42.6361 171.067C42.9745 170.282 42.6133 169.372 41.8313 169.034C41.0493 168.696 40.1393 169.057 39.798 169.839C39.7127 170.038 39.6701 170.245 39.6701 170.45C39.6701 171.047 40.0199 171.619 40.6028 171.869C41.3848 172.21 42.2948 171.852 42.6361 171.067Z" fill="white" fill-opacity="0.3"/>
<path d="M69.1278 121.912C69.8103 122.424 70.78 122.282 71.289 121.599C71.8009 120.914 71.6587 119.947 70.9762 119.435C70.2909 118.926 69.324 119.065 68.8122 119.751C68.6074 120.027 68.5051 120.351 68.5051 120.675C68.5051 121.144 68.7212 121.611 69.1278 121.912Z" fill="white" fill-opacity="0.3"/>
<path d="M55.5181 145.507C55.9475 144.77 55.6944 143.823 54.9579 143.397C54.2185 142.967 53.2716 143.22 52.845 143.957C52.7028 144.201 52.6346 144.469 52.6346 144.733C52.6346 145.265 52.9133 145.785 53.4081 146.072C54.1446 146.499 55.0887 146.246 55.5181 145.507Z" fill="white" fill-opacity="0.3"/>
<path d="M48.7015 158.101C49.0854 157.339 48.7782 156.409 48.0161 156.025C47.254 155.641 46.3241 155.948 45.9402 156.71C45.8265 156.932 45.7753 157.171 45.7753 157.404C45.7753 157.97 46.0852 158.516 46.6255 158.786C47.3877 159.17 48.3176 158.863 48.7015 158.101Z" fill="white" fill-opacity="0.3"/>
<path d="M63.0564 133.326C63.5256 132.612 63.3294 131.654 62.6156 131.185C61.9019 130.716 60.9436 130.912 60.4743 131.626C60.3009 131.887 60.2184 132.183 60.2184 132.476C60.2184 132.976 60.4629 133.471 60.9151 133.767C61.6289 134.236 62.5872 134.037 63.0564 133.326Z" fill="white" fill-opacity="0.3"/>
<path d="M97.6936 89.4643C98.2794 90.0842 99.2577 90.1127 99.8776 89.5297C100.5 88.9439 100.529 87.9657 99.943 87.3457C99.3572 86.723 98.379 86.6945 97.759 87.2803C97.4377 87.5818 97.2727 87.9941 97.2727 88.4036C97.2699 88.7818 97.4093 89.1657 97.6936 89.4643Z" fill="white" fill-opacity="0.3"/>
<path d="M146.366 53.2079C145.939 52.4685 144.995 52.2155 144.256 52.642C143.761 52.9292 143.482 53.4468 143.482 53.9814C143.482 54.243 143.548 54.5103 143.69 54.7521C144.119 55.4914 145.063 55.7445 145.803 55.318C146.539 54.8942 146.795 53.9473 146.366 53.2079Z" fill="white" fill-opacity="0.3"/>
<path d="M159.121 46.4282C158.74 45.6661 157.81 45.3561 157.048 45.74C156.508 46.013 156.195 46.5562 156.195 47.1221C156.195 47.3553 156.249 47.5913 156.357 47.8159C156.741 48.5781 157.671 48.8852 158.433 48.5041C159.198 48.1202 159.505 47.1903 159.121 46.4282Z" fill="white" fill-opacity="0.3"/>
<path d="M171.448 42.4347C172.233 42.0963 172.591 41.1863 172.253 40.4043C171.915 39.6195 171.005 39.2583 170.22 39.5967C169.637 39.8498 169.284 40.4186 169.284 41.0186C169.284 41.2205 169.327 41.4281 169.412 41.6271C169.753 42.4092 170.663 42.7703 171.448 42.4347Z" fill="white" fill-opacity="0.3"/>
<path d="M134.033 60.7163C133.563 60.0054 132.605 59.8063 131.891 60.2755C131.442 60.5713 131.195 61.0661 131.195 61.5666C131.195 61.8595 131.277 62.1553 131.448 62.414C131.917 63.1278 132.875 63.3269 133.589 62.8548C134.306 62.3884 134.502 61.4301 134.033 60.7163Z" fill="white" fill-opacity="0.3"/>
<path d="M110.783 77.8167C110.235 77.1626 109.259 77.0773 108.605 77.6261C108.241 77.9304 108.053 78.3712 108.053 78.812C108.053 79.1618 108.17 79.5144 108.415 79.8044C108.963 80.4585 109.942 80.5438 110.596 79.995C111.247 79.4461 111.332 78.4679 110.783 77.8167Z" fill="white" fill-opacity="0.3"/>
<path d="M122.158 68.9288C121.649 68.2434 120.679 68.1041 119.994 68.6131C119.587 68.9145 119.371 69.3809 119.371 69.853C119.371 70.1743 119.473 70.4985 119.678 70.7743C120.187 71.4597 121.157 71.6019 121.842 71.0928C122.528 70.5838 122.67 69.6141 122.158 68.9288Z" fill="white" fill-opacity="0.3"/>
<path d="M26.2025 225.852C26.3503 225.01 25.7901 224.208 24.9484 224.061C24.1066 223.913 23.3047 224.473 23.1568 225.315C23.1426 225.406 23.1341 225.497 23.1341 225.588C23.1341 226.324 23.663 226.975 24.4109 227.106C25.2526 227.254 26.0546 226.694 26.2025 225.852Z" fill="white" fill-opacity="0.3"/>
<path d="M29.0998 211.809C29.296 210.979 28.7813 210.146 27.9509 209.947C27.1205 209.751 26.2873 210.265 26.0883 211.096C26.0627 211.215 26.0456 211.337 26.0456 211.454C26.0456 212.153 26.5262 212.788 27.2371 212.958C28.0704 213.154 28.9007 212.64 29.0998 211.809Z" fill="white" fill-opacity="0.3"/>
<path d="M37.3351 184.358C37.628 183.556 37.2129 182.669 36.4109 182.376C35.609 182.083 34.7217 182.496 34.4288 183.298C34.3634 183.474 34.335 183.653 34.335 183.827C34.335 184.458 34.7246 185.049 35.3502 185.28C36.155 185.575 37.0422 185.16 37.3351 184.358Z" fill="white" fill-opacity="0.3"/>
<path d="M32.8168 197.965C33.0614 197.146 32.5979 196.284 31.7789 196.04C30.9627 195.795 30.1011 196.259 29.8565 197.075C29.811 197.223 29.7911 197.374 29.7911 197.522C29.7911 198.187 30.2234 198.801 30.8945 199C31.7078 199.245 32.5694 198.781 32.8168 197.965Z" fill="white" fill-opacity="0.3"/>
<path d="M238.773 22.4801C238.773 22.537 238.779 22.5967 238.785 22.6564C238.881 23.5067 239.649 24.1152 240.497 24.0157C241.344 23.919 241.955 23.1512 241.856 22.3038C241.759 21.4535 240.991 20.845 240.144 20.9445C239.353 21.0355 238.773 21.7038 238.773 22.4801Z" fill="white" fill-opacity="0.3"/>
<path d="M199.447 30.7129C199.206 29.8967 198.344 29.4304 197.525 29.6749C196.854 29.874 196.422 30.4911 196.422 31.1537C196.422 31.3015 196.442 31.4494 196.487 31.5973C196.729 32.4134 197.59 32.8798 198.409 32.6352C199.226 32.3935 199.692 31.5319 199.447 30.7129Z" fill="white" fill-opacity="0.3"/>
<path d="M210.402 27.7925C210.598 28.6228 211.431 29.1404 212.261 28.9442C213.095 28.748 213.609 27.9176 213.413 27.0844C213.22 26.254 212.387 25.7393 211.553 25.9355L211.553 25.9327C210.842 26.1005 210.362 26.7375 210.362 27.437C210.359 27.5536 210.376 27.673 210.402 27.7925Z" fill="white" fill-opacity="0.3"/>
<path d="M253.148 21.3338C253.196 22.1869 253.927 22.8381 254.78 22.7898C255.633 22.7414 256.285 22.0106 256.236 21.1575C256.188 20.3044 255.457 19.6532 254.604 19.7015C253.782 19.747 253.145 20.4295 253.145 21.2456C253.145 21.2741 253.145 21.3025 253.148 21.3338Z" fill="white" fill-opacity="0.3"/>
<path d="M226.309 26.0695C226.307 26.0695 226.307 26.0695 226.309 26.0695C227.148 25.9216 227.711 25.1225 227.566 24.2808C227.418 23.439 226.619 22.8759 225.778 23.0238C225.027 23.1546 224.498 23.8087 224.498 24.5424C224.498 24.6305 224.506 24.7215 224.523 24.8125C224.666 25.6514 225.468 26.2145 226.309 26.0695Z" fill="white" fill-opacity="0.3"/>
<path d="M185.72 35.1546C185.427 34.3527 184.54 33.9375 183.738 34.2304C183.11 34.4608 182.72 35.0522 182.72 35.6835C182.72 35.8599 182.749 36.0362 182.814 36.2125C183.107 37.0173 183.994 37.4296 184.796 37.1367C185.598 36.8438 186.013 35.9594 185.72 35.1546Z" fill="white" fill-opacity="0.3"/>
<path d="M44.689 232.819C44.8227 231.974 44.2482 231.181 43.4065 231.047C42.5647 230.913 41.7713 231.488 41.6377 232.329C41.6235 232.412 41.6178 232.494 41.6178 232.577C41.6178 233.325 42.1581 233.979 42.9202 234.101C43.762 234.238 44.5553 233.663 44.689 232.819Z" fill="white" fill-opacity="0.3"/>
<path d="M222.564 46.5167C223.4 46.3432 223.935 45.5242 223.764 44.6881C223.591 43.8521 222.772 43.3146 221.936 43.4881C221.208 43.6417 220.704 44.2843 220.704 45.001C220.704 45.1033 220.716 45.2114 220.738 45.3166C220.912 46.1527 221.728 46.6901 222.564 46.5167Z" fill="white" fill-opacity="0.3"/>
<path d="M208.556 49.8961C209.38 49.6714 209.864 48.8211 209.636 47.9964C209.412 47.1718 208.559 46.6883 207.737 46.9158C207.049 47.1035 206.599 47.7263 206.599 48.4031C206.599 48.5396 206.616 48.6761 206.656 48.8126C206.881 49.6401 207.731 50.1236 208.556 49.8961Z" fill="white" fill-opacity="0.3"/>
<path d="M47.4136 218.671C47.6013 217.838 47.0781 217.011 46.2449 216.823C45.4117 216.635 44.5841 217.156 44.3965 217.989C44.3709 218.103 44.3595 218.219 44.3595 218.33C44.3595 219.038 44.8458 219.675 45.5652 219.837C46.3984 220.025 47.2231 219.505 47.4136 218.671Z" fill="white" fill-opacity="0.3"/>
<path d="M168.88 63.2336C168.502 62.4686 167.575 62.1558 166.81 62.5369C166.267 62.807 165.951 63.353 165.951 63.9218C165.951 64.1549 166.005 64.3881 166.113 64.6099C166.494 65.3749 167.421 65.6877 168.186 65.3067C168.948 64.9256 169.261 63.9985 168.88 63.2336Z" fill="white" fill-opacity="0.3"/>
<path d="M181.308 59.3085C182.095 58.9787 182.465 58.0743 182.135 57.2866C181.805 56.5018 180.901 56.1292 180.113 56.4591C179.522 56.7065 179.164 57.281 179.164 57.8867C179.164 58.0857 179.203 58.2876 179.286 58.4838C179.616 59.2687 180.52 59.6384 181.308 59.3085Z" fill="white" fill-opacity="0.3"/>
<path d="M51.0334 204.723C51.2751 203.904 50.8059 203.045 49.9869 202.803C49.1679 202.562 48.3091 203.031 48.0674 203.85C48.0247 203.995 48.002 204.143 48.002 204.288C48.002 204.956 48.4399 205.57 49.1139 205.769C49.9329 206.011 50.7945 205.542 51.0334 204.723Z" fill="white" fill-opacity="0.3"/>
<path d="M236.325 40.9812C235.555 41.0892 234.995 41.7518 234.995 42.5082C234.995 42.5793 235 42.6504 235.009 42.7272C235.131 43.5718 235.913 44.1605 236.758 44.041C237.602 43.9187 238.191 43.1367 238.071 42.2921C237.952 41.4475 237.17 40.8589 236.325 40.9812Z" fill="white" fill-opacity="0.3"/>
<path d="M249.417 40.9243C249.417 40.9641 249.42 41.0039 249.423 41.0466C249.488 41.8969 250.233 42.5339 251.084 42.4656C251.937 42.4002 252.571 41.6552 252.505 40.8049C252.44 39.9546 251.695 39.3176 250.842 39.3859C250.031 39.4484 249.417 40.1252 249.417 40.9243Z" fill="white" fill-opacity="0.3"/>
<path d="M195.747 52.1972C195.469 51.3924 194.587 50.963 193.782 51.2417C193.142 51.4635 192.739 52.0607 192.739 52.7034C192.739 52.8683 192.767 53.0418 192.824 53.2067C193.103 54.0144 193.984 54.4438 194.789 54.1622C195.596 53.8864 196.026 53.0048 195.747 52.1972Z" fill="white" fill-opacity="0.3"/>
<path d="M90.4785 128.431C91.0074 127.763 90.8908 126.79 90.2226 126.262C89.5514 125.733 88.5789 125.849 88.0499 126.52C87.8281 126.802 87.7201 127.14 87.7201 127.476C87.7201 127.934 87.922 128.386 88.3087 128.69C88.9799 129.216 89.9496 129.102 90.4785 128.431Z" fill="white" fill-opacity="0.3"/>
<path d="M55.5408 191.036C55.8337 190.234 55.4214 189.347 54.6166 189.054C53.8147 188.761 52.9274 189.174 52.6345 189.978C52.5691 190.152 52.5407 190.331 52.5407 190.507C52.5407 191.139 52.9303 191.73 53.5559 191.96C54.3607 192.251 55.2451 191.835 55.5408 191.036Z" fill="white" fill-opacity="0.3"/>
<path d="M129.313 87.8113C129.831 88.4909 130.8 88.6217 131.48 88.1042C132.157 87.5866 132.29 86.6169 131.773 85.9373C131.252 85.2576 130.286 85.1268 129.606 85.6444C129.205 85.9487 128.997 86.4093 128.997 86.8757C128.997 87.1999 129.1 87.5298 129.313 87.8113Z" fill="white" fill-opacity="0.3"/>
<path d="M81.9254 140.024C82.4088 139.322 82.2325 138.358 81.5301 137.874C80.8277 137.388 79.8637 137.564 79.3802 138.267C79.1954 138.534 79.1044 138.841 79.1044 139.142C79.1044 139.632 79.3376 140.115 79.7727 140.416C80.4779 140.903 81.4391 140.726 81.9254 140.024Z" fill="white" fill-opacity="0.3"/>
<path d="M109.72 104.792C109.12 104.184 108.141 104.175 107.533 104.775C107.223 105.077 107.072 105.478 107.072 105.879C107.072 106.268 107.217 106.664 107.516 106.962C108.113 107.571 109.094 107.579 109.7 106.979C110.311 106.379 110.32 105.401 109.72 104.792Z" fill="white" fill-opacity="0.3"/>
<path d="M120.289 97.1955C120.935 96.6381 121.006 95.6599 120.445 95.0144C119.888 94.3688 118.91 94.2977 118.264 94.8579C117.914 95.1651 117.732 95.5945 117.732 96.0267C117.732 96.3879 117.855 96.7462 118.111 97.0391C118.668 97.6875 119.643 97.7557 120.289 97.1955Z" fill="white" fill-opacity="0.3"/>
<path d="M99.633 115.218C98.996 114.649 98.0177 114.7 97.449 115.337C97.1874 115.633 97.0566 116.003 97.0566 116.37C97.0566 116.793 97.23 117.217 97.5713 117.521C98.2083 118.09 99.1837 118.036 99.7524 117.402C100.321 116.765 100.267 115.787 99.633 115.218Z" fill="white" fill-opacity="0.3"/>
<path d="M140.816 78.4474C140.816 78.7432 140.898 79.0389 141.077 79.3034C141.549 80.0115 142.51 80.2077 143.219 79.7328C143.929 79.2607 144.123 78.2995 143.648 77.5886C143.176 76.8805 142.215 76.6871 141.504 77.1592C141.06 77.4606 140.816 77.9498 140.816 78.4474Z" fill="white" fill-opacity="0.3"/>
<path d="M156.035 70.0133C155.609 69.274 154.662 69.0209 153.925 69.4474C153.428 69.7347 153.152 70.2522 153.152 70.7868C153.152 71.0485 153.217 71.3158 153.359 71.5575C153.789 72.2968 154.733 72.5499 155.472 72.1234C156.212 71.6968 156.465 70.7527 156.035 70.0133Z" fill="white" fill-opacity="0.3"/>
<path d="M60.8983 177.685C61.2424 176.903 60.887 175.99 60.1049 175.648C59.3229 175.307 58.4101 175.663 58.0688 176.445C57.9778 176.647 57.9352 176.857 57.9352 177.065C57.9352 177.659 58.2821 178.228 58.8594 178.481C59.6442 178.822 60.5571 178.467 60.8983 177.685Z" fill="white" fill-opacity="0.3"/>
<path d="M67.1037 164.697C67.4961 163.941 67.1976 163.005 66.4411 162.616C65.6847 162.223 64.7491 162.519 64.3595 163.278C64.2401 163.506 64.186 163.748 64.186 163.987C64.186 164.544 64.4903 165.087 65.0221 165.36C65.7785 165.752 66.7113 165.454 67.1037 164.697Z" fill="white" fill-opacity="0.3"/>
<path d="M74.1213 152.125C74.562 151.394 74.3232 150.444 73.5923 150.003C72.8615 149.563 71.9088 149.802 71.4709 150.532C71.323 150.783 71.2491 151.056 71.2491 151.329C71.2491 151.855 71.5164 152.364 71.9998 152.657C72.7307 153.095 73.6805 152.859 74.1213 152.125Z" fill="white" fill-opacity="0.3"/>
<path d="M178.268 80.2299C177.89 79.4621 176.965 79.1465 176.198 79.5219C175.649 79.7892 175.333 80.338 175.333 80.9124C175.333 81.1399 175.384 81.3731 175.492 81.5921C175.868 82.3599 176.795 82.6755 177.563 82.3002C178.328 81.922 178.643 80.9977 178.268 80.2299Z" fill="white" fill-opacity="0.3"/>
<path d="M141.874 104.562C142.551 104.038 142.673 103.066 142.15 102.392C141.629 101.715 140.657 101.593 139.98 102.116C139.587 102.42 139.383 102.878 139.383 103.339C139.383 103.669 139.488 104.001 139.704 104.283C140.23 104.96 141.203 105.085 141.874 104.562Z" fill="white" fill-opacity="0.3"/>
<path d="M118.697 121.024C118.401 121.325 118.253 121.715 118.253 122.107C118.253 122.508 118.407 122.903 118.714 123.21C119.322 123.808 120.3 123.799 120.9 123.193C121.498 122.585 121.489 121.607 120.883 121.007C120.272 120.407 119.294 120.412 118.697 121.024Z" fill="white" fill-opacity="0.3"/>
<path d="M151.112 95.9219C151.587 96.63 152.548 96.8177 153.257 96.3428C153.965 95.8651 154.152 94.9039 153.677 94.1958C153.2 93.4877 152.238 93.3 151.53 93.7749C151.087 94.0735 150.848 94.5598 150.848 95.0575C150.851 95.356 150.933 95.6575 151.112 95.9219Z" fill="white" fill-opacity="0.3"/>
<path d="M191.218 74.5263C190.896 73.7358 189.992 73.3576 189.202 73.6817C188.604 73.9263 188.24 74.5064 188.24 75.1121C188.24 75.3083 188.277 75.5046 188.354 75.6979C188.678 76.4885 189.58 76.8667 190.37 76.5425C191.164 76.2212 191.542 75.3169 191.218 74.5263Z" fill="white" fill-opacity="0.3"/>
<path d="M217.01 67.71C217.838 67.4968 218.335 66.6522 218.122 65.8247C217.909 65 217.067 64.4995 216.239 64.7128C215.543 64.8919 215.079 65.5204 215.079 66.2086C215.079 66.3365 215.093 66.4673 215.127 66.5953C215.341 67.4257 216.182 67.9233 217.01 67.71Z" fill="white" fill-opacity="0.3"/>
<path d="M256.94 59.8662C256.94 59.8918 256.943 59.9202 256.943 59.943C256.985 60.7989 257.71 61.453 258.563 61.4103C259.417 61.3677 260.073 60.6425 260.031 59.7894C259.988 58.9363 259.263 58.2822 258.413 58.322C257.585 58.3647 256.94 59.0472 256.94 59.8662Z" fill="white" fill-opacity="0.3"/>
<path d="M201.518 70.2014C201.518 70.3635 201.543 70.5256 201.597 70.6877C201.868 71.4982 202.741 71.9389 203.551 71.6688C204.361 71.4015 204.802 70.5256 204.532 69.7151C204.265 68.9047 203.389 68.4639 202.578 68.7312C201.93 68.9502 201.521 69.553 201.518 70.2014Z" fill="white" fill-opacity="0.3"/>
<path d="M109.054 131.498C108.801 131.788 108.682 132.147 108.682 132.505C108.682 132.94 108.864 133.372 109.219 133.677C109.867 134.234 110.843 134.16 111.4 133.515C111.958 132.866 111.881 131.891 111.235 131.333C110.587 130.779 109.609 130.853 109.054 131.498Z" fill="white" fill-opacity="0.3"/>
<path d="M165.735 86.7992C165.305 86.0599 164.361 85.8068 163.622 86.2333C163.127 86.5205 162.848 87.0381 162.848 87.5727C162.848 87.8343 162.917 88.1016 163.059 88.3434C163.485 89.0827 164.429 89.3358 165.169 88.9093C165.911 88.4855 166.161 87.5357 165.735 86.7992Z" fill="white" fill-opacity="0.3"/>
<path d="M242.854 61.0359C242.854 61.0984 242.857 61.1581 242.865 61.2179C242.962 62.0653 243.73 62.671 244.58 62.5743C245.427 62.4748 246.036 61.707 245.936 60.8595C245.837 60.0121 245.072 59.4036 244.222 59.5031C243.434 59.5969 242.854 60.2624 242.854 61.0359Z" fill="white" fill-opacity="0.3"/>
<path d="M228.88 63.1504C228.88 63.2443 228.889 63.341 228.906 63.4348C229.062 64.2737 229.87 64.8282 230.709 64.6718C231.55 64.5183 232.102 63.7078 231.946 62.8689C231.792 62.03 230.982 61.4755 230.143 61.6319C229.398 61.7741 228.88 62.4224 228.88 63.1504Z" fill="white" fill-opacity="0.3"/>
<path d="M64.1745 233.803C64.3167 232.962 63.7536 232.165 62.9119 232.02C62.0701 231.878 61.271 232.441 61.126 233.286C61.1118 233.371 61.1033 233.459 61.1033 233.547C61.1033 234.287 61.6379 234.941 62.3915 235.069C63.2332 235.211 64.0352 234.642 64.1745 233.803Z" fill="white" fill-opacity="0.3"/>
<path d="M131.203 111.344C130.635 110.707 129.659 110.647 129.022 111.213C128.678 111.517 128.502 111.944 128.502 112.37C128.502 112.734 128.63 113.101 128.891 113.394C129.46 114.031 130.435 114.091 131.072 113.525C131.709 112.959 131.769 111.981 131.203 111.344Z" fill="white" fill-opacity="0.3"/>
<path d="M87.3507 167.969C87.7659 167.224 87.4986 166.28 86.7535 165.865C86.0056 165.45 85.0672 165.717 84.652 166.462C84.5184 166.701 84.4558 166.96 84.4558 167.213C84.4558 167.756 84.743 168.282 85.252 168.564C85.9971 168.982 86.9355 168.714 87.3507 167.969Z" fill="white" fill-opacity="0.3"/>
<path d="M100.449 144.766C101.132 145.275 102.102 145.138 102.614 144.453C103.125 143.771 102.986 142.801 102.304 142.289C101.621 141.777 100.651 141.916 100.139 142.602C99.9319 142.88 99.8323 143.205 99.8323 143.526C99.8295 143.995 100.043 144.462 100.449 144.766Z" fill="white" fill-opacity="0.3"/>
<path d="M66.9978 220.059C67.1997 219.228 66.6878 218.392 65.8574 218.193C65.0271 217.994 64.191 218.506 63.992 219.337C63.9635 219.459 63.9493 219.578 63.9493 219.701C63.9493 220.397 64.4242 221.031 65.1323 221.202C65.9627 221.401 66.7987 220.889 66.9978 220.059Z" fill="white" fill-opacity="0.3"/>
<path d="M75.4068 193.308C75.7196 192.512 75.3243 191.616 74.5309 191.306C73.7347 190.996 72.8389 191.388 72.5289 192.182C72.455 192.366 72.4237 192.557 72.4237 192.745C72.4237 193.362 72.7962 193.945 73.4076 194.184C74.1982 194.496 75.0968 194.101 75.4068 193.308Z" fill="white" fill-opacity="0.3"/>
<path d="M80.95 180.437C81.314 179.664 80.9841 178.743 80.2106 178.379C79.44 178.015 78.5158 178.344 78.1546 179.118C78.0522 179.331 78.0067 179.556 78.0067 179.775C78.0067 180.352 78.3338 180.909 78.8912 181.174C79.6646 181.541 80.586 181.208 80.95 180.437Z" fill="white" fill-opacity="0.3"/>
<path d="M92.4469 156.41C93.1635 156.874 94.1219 156.672 94.5854 155.953C95.0489 155.236 94.847 154.28 94.1304 153.814C93.4138 153.351 92.4555 153.553 91.9919 154.269C91.8213 154.531 91.7417 154.821 91.7417 155.111C91.7417 155.617 91.9891 156.112 92.4469 156.41Z" fill="white" fill-opacity="0.3"/>
<path d="M70.7491 206.54C71.0051 205.724 70.5529 204.857 69.7367 204.601C68.9206 204.345 68.0533 204.797 67.7973 205.613C67.749 205.767 67.7262 205.926 67.7262 206.077C67.7262 206.734 68.1471 207.345 68.8097 207.553C69.623 207.809 70.4903 207.356 70.7491 206.54Z" fill="white" fill-opacity="0.3"/>
<path d="M97.2047 187.786C97.9725 188.156 98.8996 187.838 99.2693 187.067C99.639 186.299 99.3177 185.375 98.5498 185.005C97.782 184.633 96.855 184.954 96.4853 185.722C96.3829 185.941 96.3317 186.168 96.3317 186.393C96.3289 186.97 96.6531 187.519 97.2047 187.786Z" fill="white" fill-opacity="0.3"/>
<path d="M161.176 110.661C160.738 110.963 160.502 111.446 160.502 111.941C160.502 112.242 160.59 112.544 160.772 112.811C161.253 113.516 162.214 113.696 162.922 113.215C163.627 112.734 163.807 111.773 163.326 111.068C162.843 110.36 161.881 110.181 161.176 110.661Z" fill="white" fill-opacity="0.3"/>
<path d="M103.188 173.082C103.045 173.326 102.98 173.594 102.98 173.858C102.98 174.39 103.256 174.91 103.751 175.197C104.487 175.627 105.437 175.374 105.861 174.634C106.29 173.898 106.037 172.948 105.3 172.524C104.561 172.092 103.617 172.345 103.188 173.082Z" fill="white" fill-opacity="0.3"/>
<path d="M112.967 160.572C112.262 160.092 111.301 160.271 110.817 160.976C110.635 161.243 110.547 161.545 110.547 161.849C110.547 162.341 110.78 162.824 111.221 163.126C111.926 163.606 112.888 163.427 113.371 162.722C113.852 162.017 113.673 161.056 112.967 160.572Z" fill="white" fill-opacity="0.3"/>
<path d="M149.073 120.378C149.073 120.716 149.184 121.055 149.412 121.342C149.944 122.01 150.919 122.118 151.584 121.587C152.253 121.055 152.361 120.079 151.829 119.414C151.294 118.746 150.322 118.638 149.656 119.172C149.275 119.474 149.073 119.926 149.073 120.378Z" fill="white" fill-opacity="0.3"/>
<path d="M200.227 93.4818C201.023 93.169 201.413 92.2704 201.103 91.4798C200.79 90.6836 199.894 90.2911 199.101 90.6039C198.492 90.8457 198.117 91.4286 198.117 92.0429C198.117 92.2306 198.151 92.4239 198.225 92.6088C198.535 93.4022 199.434 93.7946 200.227 93.4818Z" fill="white" fill-opacity="0.3"/>
<path d="M119.573 151.644C120.241 152.176 121.214 152.068 121.746 151.402C122.277 150.737 122.169 149.762 121.504 149.23C120.836 148.698 119.866 148.806 119.331 149.471C119.104 149.756 118.993 150.097 118.993 150.435C118.993 150.888 119.192 151.337 119.573 151.644Z" fill="white" fill-opacity="0.3"/>
<path d="M130.862 138.549C130.234 137.968 129.259 138.003 128.676 138.631C128.4 138.93 128.263 139.305 128.263 139.683C128.263 140.098 128.428 140.511 128.758 140.815C129.384 141.395 130.362 141.361 130.942 140.735C131.522 140.107 131.488 139.129 130.862 138.549Z" fill="white" fill-opacity="0.3"/>
<path d="M140.906 130.777C141.532 130.196 141.568 129.218 140.988 128.593C140.408 127.967 139.43 127.93 138.804 128.51C138.475 128.814 138.31 129.227 138.31 129.642C138.31 130.017 138.446 130.396 138.722 130.694C139.302 131.32 140.28 131.357 140.906 130.777Z" fill="white" fill-opacity="0.3"/>
<path d="M228.311 83.3535C228.12 82.5203 227.293 81.9971 226.46 82.1876L226.462 82.1876C225.746 82.3497 225.257 82.9867 225.257 83.6948C225.257 83.8085 225.271 83.9223 225.296 84.036C225.484 84.8692 226.312 85.3925 227.145 85.2019C227.978 85.0143 228.499 84.1867 228.311 83.3535Z" fill="white" fill-opacity="0.3"/>
<path d="M211.536 87.3528C211.536 87.5035 211.559 87.6571 211.604 87.8078C211.858 88.6239 212.719 89.0818 213.538 88.8315C214.354 88.5784 214.812 87.714 214.562 86.8978C214.312 86.0817 213.447 85.6238 212.628 85.8741C211.963 86.0817 211.536 86.6931 211.536 87.3528Z" fill="white" fill-opacity="0.3"/>
<path d="M85.3207 226.85C85.5113 226.017 84.9908 225.189 84.1576 224.999C83.3244 224.808 82.4969 225.328 82.3064 226.162C82.2808 226.275 82.2694 226.395 82.2694 226.506C82.2694 227.211 82.7557 227.848 83.4695 228.013C84.3027 228.203 85.1302 227.68 85.3207 226.85Z" fill="white" fill-opacity="0.3"/>
<path d="M253.324 79.5126C253.324 79.5495 253.324 79.5865 253.327 79.6263C253.392 80.4766 254.132 81.1164 254.982 81.0539C255.832 80.9885 256.472 80.2491 256.41 79.3988C256.344 78.5485 255.605 77.9087 254.755 77.9713C253.944 78.031 253.324 78.7106 253.324 79.5126Z" fill="white" fill-opacity="0.3"/>
<path d="M175.412 103.596C174.986 102.859 174.042 102.603 173.302 103.033C172.808 103.317 172.529 103.838 172.529 104.372C172.529 104.634 172.597 104.901 172.736 105.146C173.166 105.885 174.11 106.138 174.849 105.712C175.586 105.282 175.839 104.335 175.412 103.596Z" fill="white" fill-opacity="0.3"/>
<path d="M88.9658 213.246C89.2188 212.43 88.761 211.565 87.9449 211.312C87.1287 211.059 86.2642 211.517 86.0111 212.333C85.9628 212.487 85.94 212.638 85.94 212.791C85.94 213.451 86.3666 214.062 87.032 214.27C87.8482 214.52 88.7155 214.065 88.9658 213.246Z" fill="white" fill-opacity="0.3"/>
<path d="M185.089 97.7305C185.089 97.9523 185.137 98.1827 185.243 98.3988C185.612 99.1666 186.537 99.4908 187.307 99.1211C188.075 98.7514 188.399 97.8243 188.027 97.0565C187.657 96.2887 186.733 95.9645 185.965 96.3342C185.41 96.6015 185.089 97.1532 185.089 97.7305Z" fill="white" fill-opacity="0.3"/>
<path d="M239.215 81.0781C239.215 81.1521 239.22 81.2317 239.232 81.3085C239.357 82.1531 240.145 82.736 240.986 82.6081C241.831 82.4829 242.414 81.6952 242.286 80.8506C242.164 80.0061 241.373 79.4231 240.531 79.5511C239.766 79.6648 239.215 80.3246 239.215 81.0781Z" fill="white" fill-opacity="0.3"/>
<path d="M91.6221 200.83C92.4155 201.143 93.3141 200.753 93.6241 199.957C93.9369 199.161 93.5473 198.265 92.751 197.952C91.9576 197.639 91.059 198.029 90.7491 198.825C90.6751 199.01 90.641 199.203 90.641 199.391C90.6438 200.008 91.0135 200.588 91.6221 200.83Z" fill="white" fill-opacity="0.3"/>
<path d="M173.001 127.924C172.512 127.225 171.55 127.049 170.851 127.538C170.419 127.839 170.185 128.32 170.185 128.809C170.185 129.113 170.276 129.423 170.464 129.693C170.95 130.393 171.912 130.566 172.614 130.08C173.314 129.588 173.487 128.627 173.001 127.924Z" fill="white" fill-opacity="0.3"/>
<path d="M107.203 219.922C107.45 219.106 106.987 218.244 106.17 217.997C105.354 217.75 104.493 218.21 104.245 219.029C104.2 219.18 104.177 219.331 104.177 219.479C104.177 220.141 104.606 220.755 105.278 220.957C106.091 221.205 106.955 220.741 107.203 219.922Z" fill="white" fill-opacity="0.3"/>
<path d="M124.47 181.265C124.913 180.534 124.683 179.585 123.952 179.141C123.221 178.697 122.272 178.928 121.828 179.658C121.674 179.909 121.603 180.187 121.603 180.458C121.603 180.981 121.868 181.49 122.345 181.78C123.076 182.226 124.026 181.996 124.47 181.265Z" fill="white" fill-opacity="0.3"/>
<path d="M138.783 156.392C138.53 156.685 138.407 157.043 138.407 157.405C138.407 157.837 138.589 158.269 138.942 158.573C139.587 159.131 140.563 159.063 141.123 158.417C141.68 157.769 141.612 156.793 140.967 156.236C140.318 155.676 139.343 155.747 138.783 156.392Z" fill="white" fill-opacity="0.3"/>
<path d="M117.637 193.649C118.018 192.887 117.705 191.957 116.94 191.579C116.175 191.198 115.248 191.508 114.87 192.273C114.759 192.495 114.708 192.731 114.708 192.961C114.708 193.53 115.02 194.073 115.564 194.346C116.326 194.724 117.253 194.414 117.637 193.649Z" fill="white" fill-opacity="0.3"/>
<path d="M148.192 147.001C148.192 147.39 148.337 147.78 148.633 148.082C149.23 148.69 150.211 148.701 150.82 148.107C151.431 147.51 151.443 146.532 150.846 145.92C150.248 145.312 149.27 145.3 148.659 145.895C148.346 146.196 148.192 146.597 148.192 147.001Z" fill="white" fill-opacity="0.3"/>
<path d="M103.682 233.624C103.858 232.788 103.324 231.969 102.491 231.789C101.655 231.613 100.836 232.145 100.656 232.981C100.634 233.089 100.622 233.197 100.622 233.302C100.622 234.019 101.12 234.659 101.845 234.812C102.681 234.994 103.503 234.46 103.682 233.624Z" fill="white" fill-opacity="0.3"/>
<path d="M208.075 108.992C208.075 109.171 208.107 109.353 208.172 109.529C208.468 110.328 209.358 110.738 210.16 110.442C210.959 110.144 211.368 109.253 211.07 108.454C210.774 107.652 209.884 107.246 209.082 107.542C208.462 107.775 208.075 108.366 208.075 108.992Z" fill="white" fill-opacity="0.3"/>
<path d="M237.402 102.872C238.238 102.712 238.793 101.905 238.633 101.066C238.477 100.227 237.667 99.6753 236.828 99.8345C236.083 99.9767 235.568 100.625 235.568 101.353C235.568 101.447 235.576 101.544 235.596 101.64C235.753 102.476 236.563 103.028 237.402 102.872Z" fill="white" fill-opacity="0.3"/>
<path d="M108.992 205.423C108.918 205.611 108.884 205.804 108.884 205.992C108.884 206.609 109.253 207.189 109.856 207.431C110.652 207.746 111.551 207.357 111.864 206.566C112.18 205.773 111.793 204.874 110.999 204.558C110.206 204.24 109.307 204.63 108.992 205.423Z" fill="white" fill-opacity="0.3"/>
<path d="M161.339 138.638C161.996 138.095 162.09 137.12 161.544 136.463C161.001 135.806 160.025 135.712 159.368 136.258C158.999 136.563 158.808 137.003 158.808 137.45C158.808 137.797 158.925 138.146 159.164 138.434C159.707 139.091 160.682 139.182 161.339 138.638Z" fill="white" fill-opacity="0.3"/>
<path d="M223.619 106.083C224.444 105.855 224.924 105.002 224.694 104.18C224.467 103.359 223.613 102.878 222.792 103.106C222.109 103.296 221.66 103.919 221.66 104.593C221.66 104.729 221.677 104.869 221.714 105.008C221.947 105.83 222.8 106.313 223.619 106.083Z" fill="white" fill-opacity="0.3"/>
<path d="M132.319 169.493C132.819 168.805 132.668 167.838 131.977 167.332C131.289 166.831 130.322 166.982 129.816 167.673C129.617 167.946 129.52 168.265 129.52 168.58C129.52 169.058 129.742 169.53 130.157 169.832C130.848 170.335 131.815 170.184 132.319 169.493Z" fill="white" fill-opacity="0.3"/>
<path d="M197.107 115.929C197.88 115.565 198.21 114.643 197.849 113.87C197.485 113.096 196.564 112.767 195.79 113.131C195.233 113.392 194.903 113.95 194.903 114.53C194.903 114.751 194.951 114.973 195.051 115.187C195.412 115.96 196.336 116.29 197.107 115.929Z" fill="white" fill-opacity="0.3"/>
<path d="M249.696 99.2901C249.696 99.3441 249.699 99.3981 249.704 99.4521C249.79 100.302 250.549 100.92 251.399 100.831C252.247 100.743 252.867 99.9839 252.779 99.1337C252.69 98.2862 251.934 97.6663 251.084 97.7544C250.287 97.8369 249.696 98.508 249.696 99.2901Z" fill="white" fill-opacity="0.3"/>
<path d="M183.017 119.811C182.522 120.098 182.243 120.615 182.243 121.15C182.243 121.412 182.308 121.679 182.451 121.924C182.877 122.66 183.824 122.916 184.564 122.489C184.564 122.487 184.564 122.487 184.564 122.487C185.3 122.06 185.556 121.116 185.127 120.377C184.7 119.637 183.756 119.387 183.017 119.811Z" fill="white" fill-opacity="0.3"/>
<path d="M140.565 186.265C140.397 186.524 140.318 186.814 140.318 187.101C140.318 187.61 140.568 188.108 141.026 188.403C141.742 188.864 142.701 188.656 143.164 187.943C143.628 187.226 143.42 186.268 142.704 185.804C141.981 185.341 141.026 185.548 140.565 186.265Z" fill="white" fill-opacity="0.3"/>
<path d="M133.28 198.836C133.163 199.064 133.107 199.306 133.107 199.544C133.107 200.102 133.408 200.645 133.943 200.918C134.699 201.31 135.635 201.015 136.024 200.255C136.417 199.499 136.121 198.566 135.362 198.174C134.605 197.778 133.672 198.074 133.28 198.836Z" fill="white" fill-opacity="0.3"/>
<path d="M246.008 119.491C246.13 120.335 246.912 120.924 247.757 120.804C248.601 120.682 249.19 119.9 249.071 119.056C248.948 118.211 248.166 117.622 247.322 117.745C246.551 117.853 245.991 118.515 245.991 119.272C245.994 119.346 245.999 119.417 246.008 119.491Z" fill="white" fill-opacity="0.3"/>
<path d="M179.829 145.729C179.829 146.041 179.922 146.354 180.116 146.624C180.614 147.321 181.578 147.48 182.274 146.986C182.971 146.491 183.13 145.524 182.635 144.83C182.138 144.133 181.174 143.971 180.48 144.469L180.477 144.469C180.056 144.77 179.831 145.245 179.829 145.729Z" fill="white" fill-opacity="0.3"/>
<path d="M168.9 155.63C169.457 156.276 170.436 156.347 171.081 155.787C171.727 155.226 171.798 154.251 171.238 153.605C170.677 152.96 169.699 152.889 169.056 153.449L169.056 153.452C168.704 153.756 168.522 154.188 168.522 154.621C168.522 154.976 168.65 155.337 168.9 155.63Z" fill="white" fill-opacity="0.3"/>
<path d="M160.773 165.604C161.362 164.987 161.342 164.006 160.722 163.418C160.105 162.829 159.124 162.849 158.535 163.469C158.251 163.77 158.109 164.154 158.109 164.535C158.109 164.945 158.268 165.351 158.587 165.656C159.206 166.244 160.185 166.224 160.773 165.604Z" fill="white" fill-opacity="0.3"/>
<path d="M218.15 126.515C218.429 127.323 219.308 127.752 220.115 127.474C220.92 127.192 221.35 126.313 221.071 125.506C220.792 124.701 219.911 124.272 219.106 124.55C218.466 124.772 218.062 125.372 218.062 126.012C218.065 126.18 218.093 126.348 218.15 126.515Z" fill="white" fill-opacity="0.3"/>
<path d="M122.465 225.772C122.422 225.917 122.402 226.062 122.402 226.207C122.402 226.876 122.837 227.493 123.511 227.692C124.33 227.933 125.189 227.464 125.431 226.645C125.673 225.826 125.203 224.967 124.384 224.726C123.563 224.484 122.704 224.953 122.465 225.772Z" fill="white" fill-opacity="0.3"/>
<path d="M130.094 213.194C130.416 212.401 130.029 211.502 129.239 211.184C128.445 210.862 127.544 211.249 127.225 212.039C127.151 212.23 127.114 212.423 127.114 212.617C127.114 213.228 127.481 213.808 128.084 214.053C128.877 214.371 129.776 213.987 130.094 213.194Z" fill="white" fill-opacity="0.3"/>
<path d="M191.929 137.945C191.929 138.207 191.997 138.474 192.137 138.716C192.566 139.455 193.51 139.708 194.249 139.282C194.986 138.855 195.242 137.911 194.815 137.172C194.386 136.432 193.442 136.179 192.703 136.606C192.205 136.893 191.929 137.41 191.929 137.945Z" fill="white" fill-opacity="0.3"/>
<path d="M151.181 174.185C150.509 173.656 149.537 173.772 149.011 174.441C148.786 174.725 148.678 175.064 148.678 175.396C148.678 175.854 148.88 176.306 149.267 176.613C149.935 177.142 150.91 177.026 151.437 176.355C151.965 175.686 151.852 174.714 151.181 174.185Z" fill="white" fill-opacity="0.3"/>
<path d="M233.055 120.47C232.347 120.643 231.872 121.275 231.872 121.971C231.872 122.094 231.886 122.213 231.917 122.335C232.117 123.166 232.95 123.675 233.78 123.476C234.61 123.274 235.12 122.441 234.923 121.613C234.719 120.78 233.885 120.271 233.055 120.47Z" fill="white" fill-opacity="0.3"/>
<path d="M204.854 131.994C205.206 132.77 206.125 133.112 206.901 132.756C207.678 132.403 208.022 131.485 207.666 130.709C207.314 129.932 206.395 129.588 205.619 129.944C205.05 130.205 204.714 130.766 204.714 131.351C204.712 131.567 204.757 131.784 204.854 131.994Z" fill="white" fill-opacity="0.3"/>
<path d="M154.471 206.849C154.471 206.852 154.471 206.852 154.471 206.849C154.877 206.101 154.602 205.163 153.851 204.753C153.1 204.347 152.162 204.625 151.755 205.373C151.627 205.609 151.567 205.862 151.567 206.11C151.567 206.659 151.86 207.19 152.375 207.469C153.126 207.878 154.064 207.6 154.471 206.849Z" fill="white" fill-opacity="0.3"/>
<path d="M204.486 153.974C204.06 153.234 203.116 152.979 202.376 153.408C201.882 153.692 201.603 154.213 201.603 154.747C201.603 155.009 201.668 155.276 201.81 155.521C202.24 156.26 203.184 156.513 203.92 156.087C204.66 155.657 204.913 154.713 204.486 153.974Z" fill="white" fill-opacity="0.3"/>
<path d="M191.911 163.939C192.599 163.433 192.747 162.466 192.241 161.778C191.735 161.09 190.768 160.942 190.08 161.445C189.67 161.749 189.451 162.219 189.451 162.693C189.451 163.012 189.548 163.33 189.753 163.609C190.256 164.297 191.223 164.445 191.911 163.939Z" fill="white" fill-opacity="0.3"/>
<path d="M178.245 171.92C178.245 172.295 178.379 172.671 178.654 172.966C179.232 173.595 180.213 173.635 180.838 173.057C181.467 172.48 181.507 171.502 180.929 170.873C180.352 170.245 179.374 170.205 178.745 170.782C178.413 171.09 178.245 171.505 178.245 171.92Z" fill="white" fill-opacity="0.3"/>
<path d="M162.001 194.645C162.49 193.943 162.317 192.979 161.614 192.493C160.915 192.006 159.948 192.18 159.464 192.879L159.464 192.882C159.277 193.15 159.186 193.46 159.186 193.764C159.186 194.253 159.419 194.734 159.851 195.035C160.551 195.521 161.512 195.348 162.001 194.645Z" fill="white" fill-opacity="0.3"/>
<path d="M143.668 233.374C143.901 232.552 143.423 231.699 142.601 231.466C141.779 231.232 140.926 231.71 140.693 232.532C140.653 232.671 140.636 232.814 140.636 232.953C140.636 233.627 141.08 234.247 141.76 234.44C142.581 234.673 143.437 234.196 143.668 233.374Z" fill="white" fill-opacity="0.3"/>
<path d="M147.487 217.793C146.696 217.472 145.795 217.85 145.473 218.641L145.473 218.643C145.397 218.834 145.36 219.03 145.36 219.224C145.36 219.832 145.721 220.412 146.324 220.657C147.114 220.978 148.019 220.6 148.337 219.809C148.658 219.019 148.277 218.117 147.487 217.793Z" fill="white" fill-opacity="0.3"/>
<path d="M256.609 137.585C256.609 137.628 256.612 137.668 256.615 137.713C256.683 138.564 257.431 139.198 258.281 139.13C259.132 139.059 259.766 138.313 259.697 137.463C259.629 136.613 258.881 135.979 258.031 136.047C257.223 136.112 256.609 136.789 256.609 137.585Z" fill="white" fill-opacity="0.3"/>
<path d="M242.26 139.852C242.422 140.688 243.235 141.237 244.071 141.075C244.91 140.912 245.459 140.102 245.297 139.26C245.135 138.424 244.325 137.875 243.483 138.037C242.746 138.182 242.232 138.828 242.232 139.556C242.229 139.653 242.24 139.752 242.26 139.852Z" fill="white" fill-opacity="0.3"/>
<path d="M216.72 149.603C217.505 149.262 217.86 148.349 217.516 147.567C217.175 146.785 216.262 146.43 215.48 146.771C214.903 147.024 214.556 147.593 214.556 148.187C214.556 148.395 214.599 148.608 214.687 148.807C215.028 149.592 215.938 149.947 216.72 149.603Z" fill="white" fill-opacity="0.3"/>
<path d="M168.115 182.32C168.115 182.749 168.294 183.178 168.644 183.486C169.287 184.046 170.262 183.98 170.825 183.338C171.386 182.692 171.32 181.717 170.675 181.157C170.032 180.596 169.057 180.662 168.493 181.304C168.24 181.597 168.115 181.958 168.115 182.32Z" fill="white" fill-opacity="0.3"/>
<path d="M228.155 143.103C228.155 143.257 228.178 143.41 228.226 143.564C228.479 144.38 229.35 144.835 230.163 144.579C230.979 144.326 231.434 143.459 231.178 142.645C230.925 141.829 230.055 141.374 229.241 141.63C228.579 141.832 228.155 142.446 228.155 143.103Z" fill="white" fill-opacity="0.3"/>
<path d="M165.755 224.382C164.967 224.055 164.06 224.428 163.733 225.219C163.65 225.412 163.613 225.614 163.613 225.81C163.613 226.419 163.972 226.993 164.566 227.24C165.354 227.567 166.261 227.195 166.588 226.404C166.918 225.617 166.545 224.709 165.755 224.382Z" fill="white" fill-opacity="0.3"/>
<path d="M173.015 213.422C173.444 212.685 173.191 211.739 172.452 211.312C171.715 210.883 170.766 211.136 170.342 211.875L170.342 211.872C170.2 212.117 170.131 212.384 170.131 212.649C170.131 213.18 170.407 213.701 170.902 213.988C171.641 214.412 172.586 214.161 173.015 213.422Z" fill="white" fill-opacity="0.3"/>
<path d="M178.916 201.668C179.593 202.186 180.563 202.061 181.083 201.387C181.604 200.71 181.478 199.74 180.802 199.217C180.125 198.697 179.155 198.825 178.635 199.498C178.419 199.78 178.313 200.11 178.313 200.44C178.313 200.903 178.521 201.364 178.916 201.668Z" fill="white" fill-opacity="0.3"/>
<path d="M188.468 190.496C189.071 191.102 190.049 191.102 190.655 190.499C191.258 189.893 191.258 188.915 190.655 188.312C190.052 187.707 189.074 187.707 188.468 188.309C188.167 188.611 188.016 189.006 188.016 189.401C188.016 189.797 188.164 190.195 188.468 190.496Z" fill="white" fill-opacity="0.3"/>
<path d="M199.066 179.713C199.066 180.043 199.171 180.372 199.387 180.654C199.908 181.331 200.875 181.462 201.554 180.938C202.231 180.421 202.359 179.448 201.839 178.771C201.321 178.095 200.349 177.964 199.669 178.487C199.276 178.791 199.066 179.249 199.066 179.713Z" fill="white" fill-opacity="0.3"/>
<path d="M224.591 165.628C224.918 166.415 225.823 166.791 226.613 166.464C227.401 166.137 227.776 165.232 227.449 164.445C227.122 163.654 226.218 163.281 225.428 163.606C224.833 163.853 224.472 164.43 224.472 165.036C224.475 165.235 224.512 165.434 224.591 165.628Z" fill="white" fill-opacity="0.3"/>
<path d="M254.57 159.007C255.418 158.896 256.015 158.123 255.904 157.273C255.796 156.428 255.02 155.828 254.172 155.939C253.393 156.041 252.824 156.707 252.824 157.469C252.824 157.537 252.83 157.603 252.838 157.671C252.949 158.521 253.723 159.115 254.57 159.007Z" fill="white" fill-opacity="0.3"/>
<path d="M238.458 160.716C238.68 161.54 239.524 162.032 240.352 161.811C241.176 161.592 241.666 160.744 241.447 159.92C241.225 159.095 240.38 158.603 239.553 158.825C238.862 159.007 238.404 159.632 238.404 160.318C238.404 160.448 238.424 160.582 238.458 160.716Z" fill="white" fill-opacity="0.3"/>
<path d="M211.288 171.542C211.288 171.804 211.357 172.071 211.496 172.316C211.925 173.055 212.869 173.308 213.609 172.881C214.345 172.455 214.601 171.508 214.172 170.771C213.745 170.032 212.801 169.776 212.062 170.206C211.567 170.487 211.288 171.01 211.288 171.542Z" fill="white" fill-opacity="0.3"/>
<path d="M190.899 215.592C190.717 215.856 190.629 216.161 190.629 216.462C190.629 216.957 190.862 217.44 191.303 217.742C192.008 218.222 192.969 218.043 193.453 217.338C193.933 216.633 193.754 215.672 193.049 215.188C192.344 214.708 191.38 214.887 190.899 215.592Z" fill="white" fill-opacity="0.3"/>
<path d="M183.662 228.479C183.662 229.054 183.983 229.606 184.535 229.873C185.303 230.245 186.23 229.924 186.6 229.156C186.969 228.388 186.651 227.461 185.883 227.092C185.115 226.719 184.188 227.041 183.818 227.808C183.71 228.024 183.662 228.255 183.662 228.479Z" fill="white" fill-opacity="0.3"/>
<path d="M233.507 182.3C233.507 182.487 233.541 182.681 233.615 182.866C233.925 183.659 234.824 184.052 235.617 183.742C236.413 183.429 236.803 182.533 236.493 181.74C236.18 180.943 235.284 180.551 234.491 180.864C233.88 181.1 233.507 181.683 233.507 182.3Z" fill="white" fill-opacity="0.3"/>
<path d="M246.798 178.215C246.798 178.328 246.813 178.442 246.835 178.556C247.026 179.389 247.853 179.909 248.687 179.722C249.52 179.534 250.04 178.707 249.852 177.873C249.665 177.04 248.837 176.517 248.004 176.707C247.285 176.869 246.798 177.509 246.798 178.215Z" fill="white" fill-opacity="0.3"/>
<path d="M209.5 196.166C209.5 196.505 209.61 196.843 209.838 197.13C210.367 197.799 211.342 197.907 212.008 197.375C212.676 196.843 212.784 195.871 212.252 195.202C211.72 194.534 210.748 194.426 210.08 194.958C209.696 195.262 209.5 195.711 209.5 196.166Z" fill="white" fill-opacity="0.3"/>
<path d="M199.8 206.745C200.425 207.325 201.404 207.291 201.987 206.666C202.567 206.04 202.533 205.062 201.907 204.482C201.278 203.902 200.3 203.936 199.72 204.561C199.444 204.86 199.308 205.238 199.308 205.614C199.305 206.026 199.473 206.441 199.8 206.745Z" fill="white" fill-opacity="0.3"/>
<path d="M221.754 186.993C221.259 187.28 220.98 187.798 220.98 188.332C220.98 188.594 221.046 188.861 221.188 189.106C221.615 189.842 222.562 190.098 223.298 189.672C224.037 189.242 224.291 188.298 223.864 187.559C223.44 186.819 222.493 186.566 221.754 186.993Z" fill="white" fill-opacity="0.3"/>
<path d="M230.671 205.127C230.671 205.389 230.74 205.656 230.879 205.901C231.308 206.64 232.253 206.893 232.992 206.467C233.728 206.04 233.984 205.096 233.558 204.357C233.128 203.617 232.184 203.364 231.445 203.791C230.947 204.072 230.671 204.593 230.671 205.127Z" fill="white" fill-opacity="0.3"/>
<path d="M221.83 214.413C222.476 213.853 222.547 212.877 221.987 212.232C221.429 211.586 220.448 211.515 219.806 212.075C219.453 212.38 219.271 212.812 219.271 213.244C219.271 213.605 219.396 213.963 219.649 214.256C220.21 214.899 221.185 214.97 221.83 214.413Z" fill="white" fill-opacity="0.3"/>
<path d="M204.941 235.828C205.331 235.072 205.035 234.136 204.279 233.747C203.52 233.354 202.587 233.65 202.194 234.407C202.078 234.634 202.021 234.876 202.021 235.117C202.021 235.678 202.325 236.215 202.857 236.491C203.616 236.886 204.546 236.588 204.941 235.828Z" fill="white" fill-opacity="0.3"/>
<path d="M243.4 199.314C243.4 199.482 243.425 199.652 243.485 199.817C243.764 200.625 244.643 201.054 245.45 200.775C246.255 200.497 246.684 199.615 246.406 198.81C246.127 198.003 245.245 197.573 244.441 197.852C243.801 198.074 243.4 198.674 243.4 199.314Z" fill="white" fill-opacity="0.3"/>
<path d="M257.001 196.031C257.001 196.105 257.007 196.176 257.016 196.253C257.138 197.097 257.92 197.686 258.765 197.564C259.609 197.444 260.198 196.662 260.076 195.817C259.956 194.973 259.174 194.384 258.329 194.504C257.559 194.612 257.001 195.274 257.001 196.031Z" fill="white" fill-opacity="0.3"/>
<path d="M210.194 224.575C210.865 225.104 211.838 224.987 212.364 224.319C212.893 223.648 212.779 222.675 212.108 222.149C211.439 221.62 210.464 221.734 209.938 222.405C209.716 222.687 209.608 223.025 209.608 223.361C209.608 223.816 209.807 224.271 210.194 224.575Z" fill="white" fill-opacity="0.3"/>
<path d="M256.469 216.113C256.25 215.288 255.403 214.799 254.578 215.018C253.887 215.203 253.429 215.828 253.429 216.511C253.429 216.644 253.446 216.778 253.483 216.912C253.702 217.736 254.55 218.228 255.374 218.007C256.199 217.788 256.688 216.94 256.469 216.113Z" fill="white" fill-opacity="0.3"/>
<path d="M229.571 231.634C230.174 232.24 231.152 232.24 231.758 231.637C232.36 231.034 232.363 230.053 231.758 229.45C231.155 228.844 230.176 228.844 229.574 229.447C229.272 229.749 229.119 230.144 229.119 230.542C229.119 230.934 229.266 231.33 229.571 231.634Z" fill="white" fill-opacity="0.3"/>
<path d="M240.349 221.924C240.349 222.186 240.418 222.453 240.557 222.695C240.986 223.434 241.93 223.687 242.667 223.261C243.406 222.834 243.659 221.89 243.236 221.151C242.806 220.411 241.862 220.158 241.123 220.585C240.628 220.872 240.349 221.392 240.349 221.924Z" fill="white" fill-opacity="0.3"/>
<path d="M250.239 239.496C250.665 240.235 251.61 240.488 252.349 240.062C253.088 239.635 253.341 238.691 252.915 237.952C252.488 237.212 251.544 236.959 250.805 237.386C250.307 237.67 250.031 238.191 250.031 238.725C250.031 238.984 250.097 239.251 250.239 239.496Z" fill="white" fill-opacity="0.3"/>
<ellipse cx="269.015" cy="268.971" rx="180.928" ry="180.928" transform="rotate(-180 269.015 268.971)" fill="url(#paint0_linear_1449_4800)"/>
<circle cx="268.968" cy="268.919" r="143" transform="rotate(90 268.968 268.919)" fill="#011530"/>
<defs>
<linearGradient id="paint0_linear_1449_4800" x1="203.49" y1="268.971" x2="464.847" y2="268.971" gradientUnits="userSpaceOnUse">
<stop stop-color="#FFD15B"/>
<stop offset="1" stop-color="#ECA026"/>
</linearGradient>
</defs>
</svg>
