<svg width="159" height="156" viewBox="0 0 159 156" fill="none" xmlns="http://www.w3.org/2000/svg">
<path d="M117.035 148.693C116.491 148.552 115.935 148.878 115.794 149.423C115.654 149.967 115.98 150.523 116.525 150.664C116.611 150.686 116.697 150.697 116.782 150.697C117.235 150.697 117.647 150.394 117.767 149.935C117.906 149.39 117.58 148.833 117.035 148.693Z" fill="white" fill-opacity="0.3"/>
<path d="M28.9833 88.6709C28.5244 88.9988 28.4195 89.634 28.7455 90.093C28.944 90.3703 29.2568 90.5202 29.5753 90.5202C29.7794 90.5202 29.9855 90.4584 30.1653 90.331C30.6242 90.005 30.731 89.3698 30.405 88.9107C30.0772 88.4535 29.4423 88.3448 28.9833 88.6709Z" fill="white" fill-opacity="0.3"/>
<path d="M125.078 150.55C124.528 150.437 123.99 150.793 123.878 151.345C123.766 151.896 124.122 152.433 124.674 152.546C124.743 152.561 124.811 152.566 124.878 152.566C125.352 152.566 125.777 152.233 125.874 151.75C125.987 151.197 125.631 150.662 125.078 150.55Z" fill="white" fill-opacity="0.3"/>
<path d="M109.102 146.403C108.566 146.233 107.993 146.529 107.823 147.065C107.652 147.6 107.948 148.174 108.484 148.344C108.585 148.376 108.69 148.393 108.793 148.393C109.226 148.393 109.625 148.116 109.764 147.683C109.934 147.147 109.64 146.574 109.102 146.403Z" fill="white" fill-opacity="0.3"/>
<path d="M24.3964 81.749C23.9222 82.0506 23.7798 82.6801 24.0816 83.1541C24.2746 83.4595 24.6064 83.6281 24.9437 83.6281C25.1293 83.6281 25.3186 83.5757 25.4873 83.4689C25.9615 83.1673 26.104 82.5377 25.8022 82.0637C25.5004 81.5897 24.8707 81.4473 24.3964 81.749Z" fill="white" fill-opacity="0.3"/>
<path d="M20.1857 74.5939C19.6952 74.8695 19.5211 75.4901 19.7963 75.9813C19.9816 76.3151 20.3279 76.5007 20.6855 76.5007C20.854 76.5007 21.0262 76.4595 21.1834 76.3713C21.6739 76.0957 21.848 75.4751 21.5728 74.9838C21.2958 74.4926 20.6761 74.3182 20.1857 74.5939Z" fill="white" fill-opacity="0.3"/>
<path d="M9.95322 51.9294C9.42452 52.1225 9.15266 52.7075 9.3439 53.2363C9.49576 53.6507 9.88572 53.9057 10.3019 53.9057C10.4182 53.9057 10.5363 53.887 10.6507 53.8439C11.1794 53.6507 11.4512 53.0638 11.2581 52.5369C11.0669 52.01 10.4819 51.7381 9.95322 51.9294Z" fill="white" fill-opacity="0.3"/>
<path d="M133.212 151.969C132.655 151.886 132.138 152.272 132.056 152.829C131.973 153.385 132.359 153.902 132.914 153.984C132.965 153.992 133.015 153.995 133.064 153.995C133.562 153.995 133.997 153.63 134.07 153.126C134.155 152.568 133.769 152.051 133.212 151.969Z" fill="white" fill-opacity="0.3"/>
<path d="M149.649 153.494C149.087 153.471 148.613 153.909 148.591 154.471C148.568 155.032 149.007 155.506 149.569 155.528C149.584 155.528 149.597 155.53 149.61 155.53C150.153 155.53 150.604 155.1 150.627 154.551C150.648 153.99 150.209 153.516 149.649 153.494Z" fill="white" fill-opacity="0.3"/>
<path d="M5.2157 36.0033C4.67015 36.1363 4.33457 36.6906 4.46956 37.2356C4.58391 37.7001 5.0001 38.011 5.45753 38.011C5.53815 38.011 5.62063 38.0016 5.70125 37.981C6.2468 37.848 6.58238 37.2937 6.4474 36.7487C6.31617 36.2018 5.76125 35.8685 5.2157 36.0033Z" fill="white" fill-opacity="0.3"/>
<path d="M4.68896 28.6817C4.58411 28.1309 4.05048 27.7656 3.49813 27.8705C2.94765 27.9754 2.58254 28.5075 2.6874 29.0602C2.78101 29.5491 3.20604 29.8901 3.68724 29.8901C3.74903 29.8901 3.81456 29.8845 3.8801 29.8732C4.43058 29.7683 4.79382 29.2344 4.68896 28.6817Z" fill="white" fill-opacity="0.3"/>
<path d="M7.36778 44.0312C6.83022 44.196 6.52678 44.7635 6.69161 45.3028C6.8246 45.7411 7.22917 46.0239 7.66559 46.0239C7.76486 46.0239 7.86413 46.0089 7.96153 45.9789C8.4991 45.8141 8.8044 45.2467 8.63957 44.7092C8.47475 44.1698 7.90534 43.8664 7.36778 44.0312Z" fill="white" fill-opacity="0.3"/>
<path d="M12.9543 59.6616C12.4377 59.881 12.1962 60.481 12.4171 60.9984C12.5837 61.3865 12.96 61.6172 13.353 61.6172C13.486 61.6172 13.6226 61.5909 13.7536 61.5365C14.2703 61.3153 14.5118 60.7172 14.2909 60.1979C14.07 59.6823 13.471 59.4404 12.9543 59.6616Z" fill="white" fill-opacity="0.3"/>
<path d="M16.3679 67.2226C15.8624 67.4715 15.6546 68.0815 15.9036 68.5868C16.0815 68.9461 16.441 69.1557 16.8192 69.1557C16.9689 69.1557 17.1225 69.1202 17.2666 69.0491C17.7703 68.8002 17.98 68.192 17.731 67.6867C17.4819 67.1814 16.8716 66.9755 16.3679 67.2226Z" fill="white" fill-opacity="0.3"/>
<path d="M141.411 152.953C140.851 152.9 140.354 153.313 140.302 153.873C140.249 154.434 140.661 154.931 141.222 154.982C141.253 154.986 141.285 154.986 141.317 154.986C141.836 154.986 142.28 154.59 142.33 154.061C142.383 153.5 141.969 153.003 141.411 152.953Z" fill="white" fill-opacity="0.3"/>
<path d="M65.0645 124.024C64.6111 123.69 63.9741 123.789 63.6406 124.243C63.309 124.696 63.4083 125.333 63.8617 125.667C64.0415 125.8 64.2533 125.864 64.4631 125.864C64.776 125.864 65.0851 125.719 65.2856 125.448C65.6172 124.992 65.5198 124.355 65.0645 124.024Z" fill="white" fill-opacity="0.3"/>
<path d="M78.9023 133.052C78.4153 132.769 77.7915 132.935 77.5105 133.423C77.2295 133.911 77.3962 134.535 77.8833 134.814C78.0425 134.908 78.2186 134.951 78.3928 134.951C78.745 134.951 79.0859 134.769 79.2751 134.443C79.5561 133.956 79.3894 133.331 78.9023 133.052Z" fill="white" fill-opacity="0.3"/>
<path d="M71.8614 128.723C71.3894 128.415 70.7582 128.548 70.4511 129.019C70.1439 129.491 70.2769 130.121 70.747 130.428C70.9193 130.54 71.1103 130.595 71.3032 130.595C71.6348 130.595 71.9606 130.432 72.1573 130.134C72.4645 129.66 72.3333 129.028 71.8614 128.723Z" fill="white" fill-opacity="0.3"/>
<path d="M101.288 143.681C100.762 143.482 100.173 143.747 99.975 144.273C99.7764 144.798 100.041 145.386 100.567 145.587C100.687 145.632 100.807 145.653 100.928 145.653C101.338 145.653 101.726 145.401 101.88 144.995C102.08 144.468 101.814 143.88 101.288 143.681Z" fill="white" fill-opacity="0.3"/>
<path d="M44.8782 107.842C44.4773 108.237 44.4736 108.882 44.8688 109.283C45.0674 109.486 45.3296 109.587 45.5937 109.587C45.8522 109.587 46.1107 109.488 46.3093 109.293C46.7101 108.897 46.7139 108.252 46.3186 107.851C45.9234 107.452 45.279 107.448 44.8782 107.842Z" fill="white" fill-opacity="0.3"/>
<path d="M50.8384 113.641C50.4598 114.055 50.4898 114.7 50.9058 115.079C51.1026 115.259 51.3463 115.345 51.5918 115.345C51.8692 115.345 52.1447 115.233 52.3452 115.011C52.7238 114.595 52.6938 113.95 52.2777 113.572C51.8617 113.195 51.2169 113.225 50.8384 113.641Z" fill="white" fill-opacity="0.3"/>
<path d="M57.0951 119.112C56.739 119.549 56.8046 120.19 57.2395 120.546C57.4288 120.7 57.6575 120.777 57.8824 120.777C58.1785 120.777 58.4728 120.649 58.6734 120.402C59.0295 119.967 58.9639 119.324 58.529 118.968C58.0942 118.614 57.4513 118.677 57.0951 119.112Z" fill="white" fill-opacity="0.3"/>
<path d="M39.241 101.737C38.8208 102.11 38.7814 102.755 39.1547 103.175C39.3554 103.401 39.6349 103.518 39.9182 103.518C40.1583 103.518 40.3984 103.433 40.5934 103.261C41.0136 102.888 41.053 102.243 40.6797 101.824C40.3064 101.402 39.6631 101.363 39.241 101.737Z" fill="white" fill-opacity="0.3"/>
<path d="M93.6374 140.543C93.124 140.315 92.5207 140.547 92.2939 141.062C92.0672 141.575 92.2977 142.176 92.813 142.405C92.946 142.465 93.0865 142.493 93.2252 142.493C93.6149 142.493 93.9896 142.266 94.1564 141.886C94.385 141.371 94.1526 140.77 93.6374 140.543Z" fill="white" fill-opacity="0.3"/>
<path d="M33.9367 95.3413C33.4965 95.6898 33.4253 96.3324 33.7737 96.7708C33.9742 97.0237 34.272 97.1567 34.5718 97.1567C34.7947 97.1567 35.0176 97.0836 35.2068 96.9338C35.647 96.5853 35.7182 95.9427 35.3698 95.5043C35.0176 95.0621 34.3769 94.991 33.9367 95.3413Z" fill="white" fill-opacity="0.3"/>
<path d="M86.1681 136.994C85.6661 136.739 85.0536 136.94 84.7988 137.44C84.5422 137.941 84.7426 138.555 85.2446 138.81C85.3926 138.885 85.55 138.921 85.7054 138.921C86.0763 138.921 86.4341 138.717 86.614 138.364C86.8687 137.864 86.6683 137.249 86.1681 136.994Z" fill="white" fill-opacity="0.3"/>
<path d="M1.55223 13.4208C2.11429 13.3758 2.53209 12.8851 2.48713 12.3231C2.44216 11.763 1.9513 11.3453 1.38923 11.3903C0.829039 11.4352 0.41123 11.926 0.456195 12.488C0.499287 13.0199 0.943325 13.4245 1.46979 13.4245C1.4979 13.4245 1.52413 13.4226 1.55223 13.4208Z" fill="white" fill-opacity="0.3"/>
<path d="M3.36871 20.5327C3.29378 19.9759 2.77868 19.5841 2.22238 19.6591C1.66607 19.7341 1.2746 20.2477 1.34952 20.8045C1.41883 21.3163 1.85525 21.6875 2.35723 21.6875C2.40219 21.6875 2.44715 21.6837 2.49398 21.6781C3.05216 21.605 3.44363 21.0913 3.36871 20.5327Z" fill="white" fill-opacity="0.3"/>
<path d="M1.05413 5.12577C1.61624 5.11078 2.06031 4.64228 2.04344 4.08006C2.02845 3.51784 1.56002 3.07369 0.997908 3.09055C0.43392 3.10555 -0.00827196 3.57406 0.00671775 4.13628C0.0217075 4.68912 0.473271 5.12765 1.02414 5.12765C1.03539 5.12578 1.04476 5.12577 1.05413 5.12577Z" fill="white" fill-opacity="0.3"/>
<path d="M157.906 153.598C157.344 153.606 156.893 154.069 156.902 154.63C156.909 155.187 157.363 155.636 157.921 155.636C157.924 155.636 157.93 155.636 157.934 155.636C158.497 155.627 158.947 155.166 158.939 154.604C158.93 154.042 158.467 153.591 157.906 153.598Z" fill="white" fill-opacity="0.3"/>
<path d="M64.2098 110.436C64.5715 110.005 64.5171 109.364 64.0861 109.001C63.655 108.639 63.0122 108.693 62.6505 109.124C62.2889 109.555 62.3432 110.198 62.7742 110.559C62.9654 110.72 63.1978 110.799 63.4283 110.799C63.7206 110.799 64.0092 110.675 64.2098 110.436Z" fill="white" fill-opacity="0.3"/>
<path d="M57.9372 104.925C58.325 104.516 58.3062 103.871 57.896 103.485C57.4875 103.097 56.8431 103.117 56.4571 103.526C56.0693 103.935 56.0899 104.58 56.4984 104.966C56.6951 105.152 56.9461 105.244 57.1972 105.244C57.4669 105.244 57.7367 105.137 57.9372 104.925Z" fill="white" fill-opacity="0.3"/>
<path d="M99.1927 130.721C98.6754 130.498 98.0756 130.736 97.8525 131.251C97.6295 131.766 97.8675 132.366 98.383 132.59C98.5142 132.647 98.651 132.675 98.786 132.675C99.1796 132.675 99.5563 132.444 99.7213 132.06C99.9462 131.545 99.71 130.946 99.1927 130.721Z" fill="white" fill-opacity="0.3"/>
<path d="M70.7903 115.574C71.1278 115.125 71.034 114.485 70.5841 114.15C70.1323 113.813 69.4949 113.906 69.1574 114.356C68.8219 114.808 68.9137 115.445 69.3655 115.782C69.5474 115.917 69.7611 115.985 69.9748 115.985C70.2841 115.985 70.5916 115.842 70.7903 115.574Z" fill="white" fill-opacity="0.3"/>
<path d="M84.4093 123.271C83.924 122.988 83.3001 123.155 83.019 123.64C82.7361 124.127 82.9028 124.751 83.3881 125.032C83.5493 125.126 83.7254 125.171 83.8996 125.171C84.25 125.171 84.5929 124.987 84.7821 124.661C85.0632 124.176 84.8964 123.554 84.4093 123.271Z" fill="white" fill-opacity="0.3"/>
<path d="M91.6933 127.213C91.1911 126.96 90.5783 127.162 90.3253 127.665C90.0723 128.167 90.2747 128.78 90.7769 129.033C90.9231 129.108 91.0805 129.142 91.2342 129.142C91.6071 129.142 91.9668 128.937 92.1449 128.581C92.3978 128.079 92.1955 127.466 91.6933 127.213Z" fill="white" fill-opacity="0.3"/>
<path d="M77.3656 118.911C76.8951 118.602 76.2635 118.731 75.9542 119.201C75.645 119.671 75.7743 120.303 76.2447 120.612C76.4172 120.726 76.6121 120.78 76.8052 120.78C77.135 120.78 77.4612 120.619 77.6561 120.322C77.9653 119.851 77.8341 119.22 77.3656 118.911Z" fill="white" fill-opacity="0.3"/>
<path d="M51.9949 99.0563C52.4037 98.6702 52.4225 98.0254 52.0381 97.6169C51.6517 97.2064 51.0066 97.1877 50.5978 97.5737C50.1871 97.9598 50.1683 98.6046 50.5546 99.0132C50.7534 99.225 51.0253 99.3337 51.2954 99.3337C51.5448 99.3356 51.798 99.2437 51.9949 99.0563Z" fill="white" fill-opacity="0.3"/>
<path d="M30.8598 70.6853C30.3723 70.9664 30.2055 71.5885 30.4867 72.0757C30.6761 72.4018 31.0173 72.5854 31.3698 72.5854C31.5423 72.5854 31.7186 72.5423 31.8779 72.4486C32.3654 72.1656 32.5323 71.5435 32.251 71.0563C31.9717 70.571 31.3473 70.4023 30.8598 70.6853Z" fill="white" fill-opacity="0.3"/>
<path d="M26.9421 63.2994C26.44 63.5505 26.2358 64.1634 26.4887 64.6657C26.6686 65.0218 27.0265 65.228 27.3993 65.228C27.553 65.228 27.7085 65.1924 27.8565 65.1212C28.3586 64.8681 28.561 64.2553 28.3099 63.753C28.057 63.2488 27.4443 63.0464 26.9421 63.2994Z" fill="white" fill-opacity="0.3"/>
<path d="M24.8011 56.2245C24.578 55.708 23.978 55.4723 23.4624 55.695C22.9449 55.9176 22.7068 56.5165 22.9299 57.033C23.0968 57.4166 23.4718 57.6486 23.8674 57.6486C24.0005 57.6486 24.1374 57.6206 24.2686 57.5644C24.7842 57.3399 25.0223 56.741 24.8011 56.2245Z" fill="white" fill-opacity="0.3"/>
<path d="M35.2003 77.8276C34.7315 78.1367 34.6002 78.768 34.9096 79.2382C35.1047 79.5342 35.431 79.6972 35.761 79.6972C35.9542 79.6972 36.1492 79.6429 36.3198 79.5305C36.7905 79.2214 36.9218 78.59 36.6105 78.1198C36.303 77.6477 35.671 77.5185 35.2003 77.8276Z" fill="white" fill-opacity="0.3"/>
<path d="M45.0868 91.2942C44.6558 91.6559 44.5996 92.2986 44.9613 92.7297C45.1617 92.9695 45.4522 93.0932 45.7426 93.0932C45.9731 93.0932 46.2054 93.0164 46.3966 92.8552C46.8275 92.4936 46.8837 91.8489 46.5221 91.4179C46.1605 90.9887 45.5159 90.9325 45.0868 91.2942Z" fill="white" fill-opacity="0.3"/>
<path d="M39.9482 84.7056C39.4965 85.0408 39.4046 85.6794 39.7402 86.1307C39.9389 86.3984 40.2463 86.5407 40.5574 86.5407C40.7693 86.5407 40.983 86.4733 41.1648 86.3385C41.6165 86.0033 41.7102 85.3648 41.3747 84.9135C41.0392 84.4622 40.4 84.3686 39.9482 84.7056Z" fill="white" fill-opacity="0.3"/>
<path d="M130.876 140.225C130.321 140.128 129.793 140.497 129.695 141.051C129.598 141.606 129.967 142.135 130.521 142.232C130.581 142.241 130.641 142.247 130.701 142.247C131.186 142.247 131.615 141.898 131.702 141.406C131.799 140.851 131.43 140.323 130.876 140.225Z" fill="white" fill-opacity="0.3"/>
<path d="M122.753 138.549C122.206 138.42 121.658 138.759 121.527 139.305C121.398 139.852 121.736 140.4 122.283 140.531C122.362 140.548 122.442 140.559 122.519 140.559C122.98 140.559 123.397 140.243 123.509 139.775C123.639 139.226 123.3 138.68 122.753 138.549Z" fill="white" fill-opacity="0.3"/>
<path d="M106.879 133.786C106.35 133.594 105.766 133.867 105.573 134.395C105.38 134.923 105.652 135.507 106.18 135.7C106.296 135.743 106.414 135.762 106.528 135.762C106.944 135.762 107.334 135.506 107.485 135.094C107.68 134.564 107.407 133.979 106.879 133.786Z" fill="white" fill-opacity="0.3"/>
<path d="M155.628 142.393C155.064 142.393 154.609 142.848 154.609 143.41C154.609 143.975 155.064 144.43 155.626 144.43C155.628 144.43 155.628 144.43 155.628 144.43C156.189 144.43 156.646 143.975 156.646 143.412C156.646 142.85 156.191 142.393 155.628 142.393Z" fill="white" fill-opacity="0.3"/>
<path d="M147.338 142.148C146.776 142.114 146.294 142.543 146.262 143.105C146.228 143.668 146.658 144.15 147.22 144.181C147.241 144.183 147.259 144.183 147.28 144.183C147.816 144.185 148.264 143.765 148.296 143.224C148.33 142.661 147.9 142.179 147.338 142.148Z" fill="white" fill-opacity="0.3"/>
<path d="M139.078 141.425C138.52 141.362 138.014 141.761 137.949 142.319C137.885 142.877 138.284 143.385 138.844 143.449C138.883 143.453 138.923 143.456 138.964 143.456C139.473 143.456 139.911 143.074 139.973 142.555C140.037 141.997 139.636 141.491 139.078 141.425Z" fill="white" fill-opacity="0.3"/>
<path d="M114.749 136.4C114.209 136.239 113.641 136.544 113.48 137.084C113.318 137.622 113.624 138.19 114.162 138.351C114.259 138.381 114.359 138.394 114.456 138.394C114.895 138.394 115.3 138.109 115.431 137.667C115.592 137.131 115.287 136.563 114.749 136.4Z" fill="white" fill-opacity="0.3"/>
<path d="M13.136 17.4277C13.1734 17.4277 13.2128 17.424 13.2521 17.4202C13.8124 17.3565 14.2133 16.8507 14.1477 16.2925C14.084 15.7343 13.5782 15.3316 13.0198 15.3971C12.4596 15.4608 12.0586 15.9666 12.1242 16.5248C12.1842 17.0456 12.6245 17.4277 13.136 17.4277Z" fill="white" fill-opacity="0.3"/>
<path d="M17.8666 39.9489C17.3285 40.1082 17.0211 40.6763 17.1823 41.2162C17.3135 41.6586 17.7204 41.9436 18.1573 41.9436C18.2547 41.9436 18.3522 41.9304 18.4497 41.9004C18.9878 41.7411 19.2953 41.1731 19.1341 40.6332C18.9747 40.0951 18.4066 39.7877 17.8666 39.9489Z" fill="white" fill-opacity="0.3"/>
<path d="M16.2392 33.8468C16.7865 33.7176 17.1275 33.1687 16.9982 32.6218C16.8689 32.073 16.3217 31.7339 15.7726 31.8632C15.2254 31.9905 14.8862 32.5394 15.0155 33.0882H15.0137C15.1242 33.5565 15.544 33.8731 16.005 33.8731C16.0818 33.8749 16.1605 33.8637 16.2392 33.8468Z" fill="white" fill-opacity="0.3"/>
<path d="M12.4792 9.10673C13.0411 9.07489 13.4701 8.59354 13.4382 8.03166C13.4064 7.46977 12.925 7.04087 12.3631 7.07271C11.8011 7.10455 11.3722 7.5859 11.404 8.14778C11.434 8.68906 11.8835 9.10861 12.4211 9.10861C12.4399 9.10861 12.4586 9.1086 12.4792 9.10673Z" fill="white" fill-opacity="0.3"/>
<path d="M15.336 24.4978C15.336 24.4997 15.336 24.4997 15.336 24.4978C15.2386 23.9448 14.712 23.5737 14.1573 23.6693C13.6026 23.7668 13.2316 24.2935 13.329 24.8483C13.4152 25.3432 13.8462 25.6919 14.3297 25.6919C14.3878 25.6919 14.4478 25.6862 14.5077 25.675C15.0606 25.5813 15.4316 25.0527 15.336 24.4978Z" fill="white" fill-opacity="0.3"/>
<path d="M20.4292 47.8963C19.9012 48.0892 19.6278 48.6735 19.8206 49.2016C19.9723 49.6155 20.3618 49.872 20.7775 49.872C20.8936 49.872 21.0096 49.8533 21.1257 49.8102C21.6556 49.6174 21.9272 49.0331 21.7343 48.505C21.5414 47.9769 20.9591 47.7034 20.4292 47.8963Z" fill="white" fill-opacity="0.3"/>
<path d="M12.1865 0.761439C12.1884 0.761439 12.1884 0.761439 12.1865 0.761439C12.7502 0.761439 13.2053 0.306367 13.2053 -0.257336C13.2053 -0.819167 12.7502 -1.27612 12.1865 -1.27612C11.6247 -1.27612 11.1677 -0.82104 11.1677 -0.257336C11.1715 0.304494 11.6266 0.761439 12.1865 0.761439Z" fill="white" fill-opacity="0.3"/>
<path d="M151.487 131.104C150.926 131.087 150.456 131.527 150.437 132.091C150.42 132.652 150.86 133.122 151.423 133.141C151.433 133.141 151.446 133.141 151.457 133.141C152.004 133.141 152.457 132.707 152.474 132.154C152.49 131.593 152.051 131.123 151.487 131.104Z" fill="white" fill-opacity="0.3"/>
<path d="M134.905 129.524C134.349 129.436 133.826 129.815 133.738 130.37C133.65 130.924 134.028 131.448 134.583 131.536C134.637 131.545 134.691 131.549 134.746 131.549C135.238 131.549 135.669 131.193 135.75 130.69C135.84 130.135 135.461 129.612 134.905 129.524Z" fill="white" fill-opacity="0.3"/>
<path d="M27.1697 26.6619C27.0554 26.1109 26.516 25.7585 25.9654 25.871C25.4147 25.9853 25.0607 26.5251 25.175 27.0761C25.2761 27.5559 25.6994 27.8877 26.1714 27.8877C26.2388 27.8877 26.31 27.8802 26.3793 27.8652C26.93 27.7508 27.2839 27.2129 27.1697 26.6619Z" fill="white" fill-opacity="0.3"/>
<path d="M29.1248 34.762C28.9768 34.2188 28.4166 33.9004 27.8733 34.0502C27.3299 34.1982 27.0114 34.7601 27.1613 35.3015C27.285 35.7548 27.6953 36.0507 28.1412 36.0507C28.2311 36.0507 28.321 36.0395 28.411 36.0133C28.9562 35.8653 29.2747 35.3052 29.1248 34.762Z" fill="white" fill-opacity="0.3"/>
<path d="M126.726 127.948C126.176 127.825 125.631 128.17 125.507 128.719C125.383 129.268 125.727 129.813 126.276 129.937C126.351 129.953 126.428 129.961 126.501 129.961C126.967 129.961 127.387 129.64 127.494 129.166C127.618 128.617 127.275 128.074 126.726 127.948Z" fill="white" fill-opacity="0.3"/>
<path d="M36.6694 57.6498C36.1657 57.8991 35.9598 58.5101 36.2107 59.0143C36.3885 59.3722 36.7481 59.5803 37.1225 59.5803C37.2761 59.5803 37.4296 59.5447 37.5757 59.4734C38.0794 59.2223 38.2853 58.6113 38.0344 58.1071C37.7835 57.6048 37.1731 57.3986 36.6694 57.6498Z" fill="white" fill-opacity="0.3"/>
<path d="M34.5686 50.5195C34.3511 50.0005 33.7548 49.7569 33.2355 49.9743C32.718 50.1916 32.4724 50.7875 32.6899 51.3065C32.853 51.6962 33.2317 51.9323 33.6311 51.9323C33.7624 51.9323 33.8955 51.9061 34.0248 51.8518C34.5423 51.6344 34.7861 51.0386 34.5686 50.5195Z" fill="white" fill-opacity="0.3"/>
<path d="M118.659 125.855C118.119 125.696 117.553 126.005 117.394 126.544C117.235 127.083 117.544 127.648 118.084 127.807C118.179 127.836 118.276 127.851 118.372 127.851C118.812 127.851 119.217 127.562 119.348 127.119C119.507 126.579 119.198 126.012 118.659 125.855Z" fill="white" fill-opacity="0.3"/>
<path d="M143.171 130.575C142.611 130.522 142.112 130.932 142.06 131.493C142.005 132.053 142.417 132.55 142.976 132.604C143.01 132.608 143.042 132.608 143.075 132.608C143.593 132.608 144.037 132.214 144.087 131.686C144.142 131.127 143.731 130.629 143.171 130.575Z" fill="white" fill-opacity="0.3"/>
<path d="M23.7228 18.739C23.794 19.2468 24.2307 19.6159 24.7293 19.6159C24.7761 19.6159 24.823 19.6122 24.8736 19.6066C25.4303 19.526 25.8183 19.0107 25.7396 18.4542C25.659 17.8977 25.1435 17.5098 24.5868 17.5885C24.0301 17.6672 23.6422 18.1825 23.7228 18.739Z" fill="white" fill-opacity="0.3"/>
<path d="M23.813 11.2666C23.8393 11.2666 23.8655 11.2647 23.8936 11.2628C24.4544 11.2197 24.8744 10.7289 24.8294 10.1688C24.7863 9.60674 24.295 9.18897 23.7342 9.23206C23.1735 9.27515 22.7535 9.76598 22.7985 10.328C22.8397 10.8619 23.286 11.2666 23.813 11.2666Z" fill="white" fill-opacity="0.3"/>
<path d="M30.2965 42.0919C29.7662 42.2754 29.4832 42.856 29.6669 43.3861C29.813 43.8075 30.2066 44.0735 30.6301 44.0735C30.7388 44.0735 30.8531 44.0547 30.9618 44.0173C31.494 43.8337 31.777 43.2531 31.5915 42.723C31.4097 42.1911 30.8287 41.9083 30.2965 42.0919Z" fill="white" fill-opacity="0.3"/>
<path d="M23.4388 2.88131C24.003 2.87194 24.4528 2.40897 24.4434 1.84667C24.4341 1.28437 23.9711 0.834522 23.4089 0.843894C22.8466 0.853266 22.3968 1.31623 22.4061 1.87666C22.4155 2.43334 22.8691 2.88131 23.4257 2.88131C23.4276 2.88131 23.4351 2.88131 23.4388 2.88131Z" fill="white" fill-opacity="0.3"/>
<path d="M74.5412 103.045C74.1006 102.696 73.4594 102.773 73.1107 103.213C72.762 103.656 72.8389 104.297 73.2813 104.646C73.4669 104.792 73.69 104.863 73.9113 104.863C74.2131 104.863 74.5112 104.73 74.7118 104.475C75.0587 104.033 74.9837 103.393 74.5412 103.045Z" fill="white" fill-opacity="0.3"/>
<path d="M110.744 123.249C110.215 123.056 109.631 123.327 109.438 123.857C109.245 124.385 109.517 124.969 110.047 125.162C110.161 125.205 110.279 125.224 110.395 125.224C110.811 125.224 111.201 124.968 111.352 124.556C111.543 124.026 111.27 123.443 110.744 123.249Z" fill="white" fill-opacity="0.3"/>
<path d="M159.824 131.111C159.262 131.128 158.82 131.598 158.836 132.16C158.853 132.711 159.305 133.148 159.854 133.148C159.863 133.148 159.874 133.148 159.886 133.148C160.448 133.131 160.89 132.661 160.873 132.098C160.856 131.538 160.388 131.096 159.824 131.111Z" fill="white" fill-opacity="0.3"/>
<path d="M51.0262 80.7626C51.474 80.4214 51.5602 79.7822 51.2192 79.3342C50.8782 78.8881 50.2394 78.8 49.7916 79.1412C49.3439 79.4842 49.2577 80.1215 49.5986 80.5695C49.7991 80.8338 50.1026 80.9707 50.4099 80.9707C50.6234 80.9707 50.8408 80.9032 51.0262 80.7626Z" fill="white" fill-opacity="0.3"/>
<path d="M81.2443 107.991C80.7815 107.672 80.1462 107.789 79.8276 108.251C79.5071 108.714 79.6233 109.349 80.0862 109.667C80.2624 109.789 80.4647 109.849 80.6634 109.849C80.9857 109.849 81.3043 109.695 81.5029 109.409C81.8234 108.944 81.7072 108.311 81.2443 107.991Z" fill="white" fill-opacity="0.3"/>
<path d="M60.6941 91.9164C60.2932 92.3118 60.2876 92.9565 60.6828 93.3575C60.8814 93.5618 61.1455 93.6611 61.4096 93.6611C61.6662 93.6611 61.9266 93.5655 62.1233 93.3688C62.5241 92.9752 62.5297 92.3287 62.1345 91.9295C61.7393 91.5266 61.0949 91.521 60.6941 91.9164Z" fill="white" fill-opacity="0.3"/>
<path d="M56.4758 85.8054C56.1088 85.3799 55.4647 85.333 55.0396 85.7023C54.6146 86.0697 54.5677 86.7146 54.9366 87.1401C55.1388 87.3707 55.4216 87.4907 55.7062 87.4907C55.944 87.4907 56.1799 87.4101 56.3728 87.2414C56.7997 86.8739 56.8447 86.2309 56.4758 85.8054Z" fill="white" fill-opacity="0.3"/>
<path d="M66.7237 97.7608C66.3489 98.1809 66.3827 98.826 66.8024 99.2011C66.9973 99.3737 67.241 99.4599 67.4827 99.4599C67.762 99.4599 68.0412 99.3455 68.2417 99.1205C68.6165 98.7004 68.5809 98.0571 68.163 97.682C67.7432 97.3069 67.0985 97.3426 66.7237 97.7608Z" fill="white" fill-opacity="0.3"/>
<path d="M45.532 74.1289C45.7269 74.1289 45.9218 74.0746 46.0962 73.9565C46.5628 73.6455 46.6922 73.0122 46.3792 72.5457C46.068 72.0773 45.4345 71.9499 44.966 72.2628C44.4993 72.5738 44.3718 73.2071 44.683 73.6755C44.8816 73.9678 45.204 74.1289 45.532 74.1289Z" fill="white" fill-opacity="0.3"/>
<path d="M40.5883 65.0885C40.1009 65.3695 39.934 65.9934 40.2152 66.4786C40.4046 66.8065 40.7458 66.9882 41.0983 66.9882C41.2708 66.9882 41.4471 66.9451 41.6064 66.8515C42.0939 66.5686 42.2608 65.9466 41.9796 65.4595C41.6983 64.9723 41.0758 64.8056 40.5883 65.0885Z" fill="white" fill-opacity="0.3"/>
<path d="M103.023 120.15C102.507 119.924 101.906 120.158 101.681 120.673C101.456 121.188 101.69 121.789 102.206 122.014C102.339 122.073 102.477 122.102 102.614 122.102C103.006 122.102 103.381 121.873 103.548 121.493C103.772 120.976 103.538 120.375 103.023 120.15Z" fill="white" fill-opacity="0.3"/>
<path d="M95.5138 116.562C95.0151 116.304 94.3983 116.5 94.1415 116.999C93.8827 117.498 94.0777 118.115 94.5783 118.371C94.7283 118.45 94.8876 118.486 95.0451 118.486C95.4126 118.486 95.7707 118.285 95.9507 117.935C96.2094 117.436 96.0125 116.821 95.5138 116.562Z" fill="white" fill-opacity="0.3"/>
<path d="M88.2408 112.504C87.7596 112.213 87.1342 112.371 86.8439 112.852C86.5537 113.333 86.711 113.961 87.1922 114.249C87.357 114.347 87.5368 114.395 87.7165 114.395C88.063 114.395 88.3981 114.219 88.591 113.901C88.8794 113.42 88.724 112.794 88.2408 112.504Z" fill="white" fill-opacity="0.3"/>
<path d="M46.5086 52.216C46.003 52.4652 45.7952 53.074 46.0423 53.5799C46.2183 53.9414 46.5797 54.1494 46.9579 54.1494C47.1077 54.1494 47.2613 54.1156 47.4055 54.0445C47.911 53.7972 48.1189 53.1864 47.8717 52.6806C47.6227 52.1767 47.0141 51.9687 46.5086 52.216Z" fill="white" fill-opacity="0.3"/>
<path d="M60.7442 73.3173C60.3996 72.8712 59.759 72.7906 59.3151 73.1355C58.8693 73.4785 58.7887 74.1195 59.1334 74.5656C59.3338 74.8242 59.6354 74.9592 59.9388 74.9592C60.1561 74.9592 60.3752 74.8898 60.5607 74.7474C61.0065 74.4006 61.0889 73.7596 60.7442 73.3173Z" fill="white" fill-opacity="0.3"/>
<path d="M70.0892 86.8976C70.2878 87.0926 70.5445 87.1901 70.8031 87.1901C71.0673 87.1901 71.3277 87.0889 71.5301 86.8864C71.9236 86.4851 71.918 85.8401 71.5189 85.4444C71.1179 85.0507 70.4733 85.0563 70.0779 85.4557C69.6826 85.8588 69.6863 86.5039 70.0892 86.8976Z" fill="white" fill-opacity="0.3"/>
<path d="M55.7149 68.1479C56.1815 67.835 56.3051 67.2015 55.9922 66.7349C55.6774 66.2682 55.0441 66.1445 54.5775 66.4575C54.111 66.7723 53.9873 67.4058 54.3002 67.8724C54.497 68.1648 54.8174 68.3222 55.1453 68.3222C55.342 68.3204 55.5406 68.266 55.7149 68.1479Z" fill="white" fill-opacity="0.3"/>
<path d="M43.2146 44.7166C42.6938 44.9282 42.4447 45.5239 42.6582 46.0446C42.8194 46.4379 43.2015 46.6777 43.6006 46.6777C43.7298 46.6777 43.8591 46.6533 43.9865 46.6028C44.5073 46.3892 44.7565 45.7955 44.5429 45.2748C44.3312 44.7522 43.7355 44.503 43.2146 44.7166Z" fill="white" fill-opacity="0.3"/>
<path d="M39.4343 29.8709C39.2939 29.3256 38.738 28.9977 38.1934 29.1382C37.6506 29.2788 37.3212 29.8334 37.4616 30.3787C37.5795 30.8378 37.9931 31.1433 38.4461 31.1433C38.5303 31.1433 38.6164 31.1339 38.7006 31.1114C39.2471 30.9709 39.5747 30.4162 39.4343 29.8709Z" fill="white" fill-opacity="0.3"/>
<path d="M34.776 6.91305C34.7929 6.91305 34.8116 6.91117 34.8266 6.91117C35.3907 6.88308 35.8217 6.40539 35.7936 5.8434C35.7655 5.28142 35.2876 4.84868 34.7254 4.87678C34.1632 4.90488 33.7322 5.38257 33.7585 5.94268C33.7866 6.48781 34.2363 6.91305 34.776 6.91305Z" fill="white" fill-opacity="0.3"/>
<path d="M40.7573 38.9919C40.864 38.9919 40.9707 38.9751 41.0774 38.9395C41.6109 38.7616 41.9011 38.1866 41.7233 37.6528C41.5473 37.1191 40.9707 36.8288 40.4372 37.0067C39.9037 37.1828 39.6135 37.7596 39.7895 38.2933C39.9336 38.7204 40.3305 38.99 40.7573 38.9919Z" fill="white" fill-opacity="0.3"/>
<path d="M76.1586 92.4842C76.3498 92.651 76.5861 92.7297 76.8224 92.7297C77.1094 92.7297 77.3944 92.6098 77.5951 92.3755C77.9627 91.9482 77.9139 91.3054 77.4882 90.9381C77.0606 90.5707 76.4174 90.6213 76.0498 91.0468C75.6841 91.4741 75.7328 92.1188 76.1586 92.4842Z" fill="white" fill-opacity="0.3"/>
<path d="M50.3042 59.474C49.8167 59.7568 49.6498 60.3785 49.931 60.8654C50.1204 61.1912 50.4617 61.3747 50.8142 61.3747C50.9866 61.3747 51.1629 61.3298 51.3223 61.2361C51.8098 60.9553 51.9766 60.3336 51.6954 59.8467C51.416 59.3579 50.7898 59.1931 50.3042 59.474Z" fill="white" fill-opacity="0.3"/>
<path d="M35.4534 15.0656C35.4946 15.0656 35.5339 15.0638 35.5733 15.0581C36.1317 14.9945 36.5309 14.4887 36.4672 13.9286C36.4016 13.3704 35.8956 12.9695 35.3372 13.0351C34.7787 13.1007 34.3777 13.6045 34.4433 14.1646C34.5051 14.6835 34.9436 15.0656 35.4534 15.0656Z" fill="white" fill-opacity="0.3"/>
<path d="M36.6775 23.155C36.7393 23.155 36.803 23.1494 36.8649 23.1381C37.4175 23.0351 37.7829 22.5029 37.6798 21.9501C37.5787 21.3954 37.0447 21.0318 36.492 21.1349C35.9394 21.2361 35.574 21.7702 35.6771 22.323C35.7707 22.8139 36.1979 23.155 36.6775 23.155Z" fill="white" fill-opacity="0.3"/>
<path d="M135.477 118.245C134.922 118.152 134.397 118.523 134.302 119.077C134.208 119.632 134.579 120.158 135.136 120.254C135.192 120.263 135.25 120.269 135.308 120.269C135.795 120.269 136.226 119.916 136.311 119.42C136.404 118.865 136.029 118.337 135.477 118.245Z" fill="white" fill-opacity="0.3"/>
<path d="M143.516 119.334C142.956 119.278 142.458 119.684 142.4 120.244C142.344 120.804 142.75 121.303 143.31 121.361C143.346 121.365 143.38 121.366 143.413 121.366C143.93 121.366 144.373 120.975 144.427 120.45C144.483 119.89 144.077 119.392 143.516 119.334Z" fill="white" fill-opacity="0.3"/>
<path d="M151.609 119.882C151.045 119.861 150.574 120.302 150.556 120.864C150.537 121.429 150.977 121.9 151.539 121.918C151.551 121.918 151.562 121.918 151.575 121.918C152.122 121.918 152.575 121.485 152.592 120.934C152.611 120.373 152.171 119.902 151.609 119.882Z" fill="white" fill-opacity="0.3"/>
<path d="M159.757 121.925C159.766 121.925 159.779 121.925 159.791 121.925C160.352 121.907 160.792 121.437 160.775 120.875C160.756 120.311 160.287 119.871 159.725 119.888C159.162 119.907 158.722 120.377 158.739 120.94C158.757 121.489 159.21 121.925 159.757 121.925Z" fill="white" fill-opacity="0.3"/>
<path d="M64.4907 79.4764C64.0706 79.8514 64.0312 80.4946 64.4045 80.9146C64.6052 81.1415 64.8865 81.2578 65.1679 81.2578C65.408 81.2578 65.65 81.1734 65.8432 81.0009C66.2634 80.6259 66.3028 79.9827 65.9295 79.5626C65.5562 79.1426 64.9109 79.1032 64.4907 79.4764Z" fill="white" fill-opacity="0.3"/>
<path d="M97.41 104.844C96.919 104.57 96.2968 104.747 96.0232 105.238C95.7496 105.731 95.9258 106.35 96.4167 106.623C96.5742 106.711 96.7447 106.753 96.9115 106.753C97.2694 106.753 97.6161 106.563 97.8016 106.228C98.0771 105.736 97.901 105.118 97.41 104.844Z" fill="white" fill-opacity="0.3"/>
<path d="M84.0173 97.446C84.3526 96.996 84.2627 96.3565 83.8112 96.019C83.3615 95.6814 82.7226 95.7733 82.3854 96.2234C82.0481 96.6734 82.1399 97.3129 82.5915 97.6504C82.7751 97.7873 82.9887 97.853 83.2004 97.853C83.5095 97.8548 83.8168 97.7142 84.0173 97.446Z" fill="white" fill-opacity="0.3"/>
<path d="M127.529 116.613C126.982 116.48 126.432 116.817 126.301 117.364C126.17 117.911 126.507 118.462 127.053 118.593C127.134 118.612 127.213 118.621 127.293 118.621C127.752 118.621 128.169 118.308 128.282 117.842C128.413 117.295 128.076 116.744 127.529 116.613Z" fill="white" fill-opacity="0.3"/>
<path d="M112.062 111.75C111.537 111.544 110.946 111.805 110.742 112.328C110.538 112.853 110.796 113.444 111.319 113.648C111.441 113.697 111.567 113.717 111.691 113.717C112.097 113.717 112.482 113.472 112.639 113.069C112.845 112.547 112.585 111.955 112.062 111.75Z" fill="white" fill-opacity="0.3"/>
<path d="M104.619 108.546C104.109 108.306 103.502 108.523 103.263 109.033C103.023 109.541 103.24 110.15 103.75 110.388C103.89 110.456 104.038 110.486 104.182 110.486C104.563 110.486 104.93 110.27 105.104 109.903C105.346 109.393 105.127 108.786 104.619 108.546Z" fill="white" fill-opacity="0.3"/>
<path d="M90.7624 102.07C91.0676 101.598 90.9347 100.966 90.4609 100.661C89.989 100.355 89.3597 100.488 89.0526 100.961C88.7474 101.433 88.8803 102.064 89.3522 102.37C89.5245 102.482 89.7155 102.534 89.9066 102.534C90.2399 102.534 90.5658 102.371 90.7624 102.07Z" fill="white" fill-opacity="0.3"/>
<path d="M119.712 114.444C119.175 114.275 118.604 114.573 118.435 115.11C118.267 115.648 118.564 116.219 119.102 116.387C119.203 116.419 119.307 116.434 119.407 116.434C119.839 116.434 120.242 116.157 120.378 115.721C120.547 115.185 120.249 114.614 119.712 114.444Z" fill="white" fill-opacity="0.3"/>
<path d="M108.933 99.3031C109.176 98.797 108.966 98.1859 108.458 97.9422C107.952 97.6985 107.343 97.9103 107.099 98.4164C106.853 98.9226 107.065 99.5337 107.571 99.7774C107.716 99.8449 107.866 99.8786 108.014 99.8786C108.395 99.8805 108.756 99.6668 108.933 99.3031Z" fill="white" fill-opacity="0.3"/>
<path d="M64.0756 62.2892C64.2742 62.5776 64.5928 62.7331 64.9188 62.7331C65.1174 62.7331 65.316 62.6751 65.4922 62.5552C65.9569 62.2386 66.0749 61.6054 65.7582 61.139C65.4416 60.6744 64.8082 60.5565 64.3436 60.873C63.877 61.1915 63.7589 61.8246 64.0756 62.2892Z" fill="white" fill-opacity="0.3"/>
<path d="M100.247 95.8941C100.408 95.9878 100.584 96.031 100.758 96.031C101.108 96.031 101.451 95.8491 101.64 95.5228C101.923 95.0371 101.756 94.4108 101.269 94.1314C100.784 93.8483 100.158 94.0152 99.8794 94.5008C99.5947 94.9884 99.7614 95.6109 100.247 95.8941Z" fill="white" fill-opacity="0.3"/>
<path d="M92.9653 90.0548C92.6487 90.5193 92.7667 91.1525 93.2314 91.4709C93.4075 91.5908 93.6061 91.6489 93.8066 91.6489C94.1308 91.6489 94.4493 91.4953 94.6479 91.2049C94.9645 90.7404 94.8465 90.1072 94.3818 89.7888C93.9172 89.4722 93.2839 89.5902 92.9653 90.0548Z" fill="white" fill-opacity="0.3"/>
<path d="M69.8023 69.3488C70.0253 69.3488 70.2484 69.2758 70.4377 69.1259C70.8781 68.7756 70.9493 68.133 70.5989 67.6947C70.2484 67.2544 69.6055 67.1832 69.1669 67.5336C68.7265 67.8857 68.6552 68.5264 69.0076 68.9648C69.2063 69.2158 69.5043 69.3488 69.8023 69.3488Z" fill="white" fill-opacity="0.3"/>
<path d="M54.3487 39.5713C54.1427 39.0467 53.5507 38.79 53.0299 38.9942C52.5054 39.2003 52.2469 39.7905 52.453 40.3133C52.6122 40.7143 52.9962 40.9616 53.4008 40.9616C53.5245 40.9616 53.6519 40.9391 53.7736 40.8904C54.2963 40.6862 54.5548 40.0941 54.3487 39.5713Z" fill="white" fill-opacity="0.3"/>
<path d="M87.9982 86.3794C88.3489 85.9388 88.2777 85.2976 87.8388 84.947C87.4 84.5964 86.7567 84.6676 86.406 85.1063C86.0553 85.547 86.1266 86.1863 86.5654 86.5388C86.753 86.6888 86.978 86.7619 87.2012 86.7619C87.4994 86.7619 87.7957 86.6307 87.9982 86.3794Z" fill="white" fill-opacity="0.3"/>
<path d="M80.2296 79.682C79.8474 80.0961 79.8699 80.7389 80.284 81.123C80.4807 81.3048 80.728 81.3947 80.9771 81.3947C81.2507 81.3947 81.5223 81.2861 81.7228 81.0687C82.105 80.6564 82.0825 80.0118 81.6703 79.6296C81.2563 79.2473 80.6118 79.2698 80.2296 79.682Z" fill="white" fill-opacity="0.3"/>
<path d="M75.9131 73.8685C75.5307 73.456 74.8857 73.4317 74.4732 73.8141C74.0608 74.1965 74.0364 74.8414 74.4189 75.2539C74.6195 75.4713 74.8913 75.58 75.1651 75.58C75.4125 75.58 75.6619 75.4901 75.8588 75.3082C76.2712 74.9258 76.2956 74.2809 75.9131 73.8685Z" fill="white" fill-opacity="0.3"/>
<path d="M48.344 23.2393C47.7951 23.3649 47.4503 23.9101 47.5759 24.4591V24.4572C47.6826 24.9294 48.1023 25.2517 48.5688 25.2517C48.6438 25.2517 48.7187 25.2423 48.7937 25.2254C49.3426 25.1018 49.6873 24.5565 49.5618 24.0075C49.4382 23.4586 48.893 23.1157 48.344 23.2393Z" fill="white" fill-opacity="0.3"/>
<path d="M50.686 33.1928C50.7853 33.1928 50.8864 33.1779 50.9856 33.1479C51.5231 32.9812 51.8245 32.4138 51.6598 31.8745C51.4931 31.337 50.9238 31.0355 50.3864 31.2003C49.849 31.3651 49.5475 31.9344 49.7123 32.4737C49.849 32.9119 50.2516 33.1928 50.686 33.1928Z" fill="white" fill-opacity="0.3"/>
<path d="M139.46 107.518C138.903 107.435 138.384 107.818 138.3 108.374C138.217 108.931 138.599 109.45 139.156 109.535C139.207 109.542 139.257 109.544 139.308 109.544C139.804 109.546 140.239 109.182 140.314 108.676C140.399 108.119 140.016 107.602 139.46 107.518Z" fill="white" fill-opacity="0.3"/>
<path d="M131.458 106.007C130.909 105.882 130.364 106.225 130.239 106.774C130.113 107.323 130.456 107.869 131.005 107.994C131.08 108.011 131.159 108.019 131.232 108.019C131.696 108.019 132.116 107.698 132.225 107.228C132.35 106.678 132.005 106.133 131.458 106.007Z" fill="white" fill-opacity="0.3"/>
<path d="M46.1484 9.00704C46.1728 9.00704 46.1972 9.00704 46.2234 9.00517C46.7839 8.96203 47.2057 8.47443 47.1644 7.9137C47.1213 7.35296 46.6339 6.93101 46.0734 6.97227C45.513 7.0154 45.0912 7.503 45.1324 8.06374C45.1718 8.59822 45.6198 9.00704 46.1484 9.00704Z" fill="white" fill-opacity="0.3"/>
<path d="M44.8296 -0.226098C44.8296 0.337605 45.2847 0.792689 45.8465 0.792689C45.8484 0.792689 45.8484 0.792689 45.8484 0.792689C46.4102 0.792689 46.8672 0.337607 46.8672 -0.224223C46.8672 -0.226096 46.8672 -0.226098 46.8672 -0.226098C46.8672 -0.787928 46.4121 -1.24487 45.8484 -1.24487C45.2847 -1.24487 44.8296 -0.789801 44.8296 -0.226098Z" fill="white" fill-opacity="0.3"/>
<path d="M147.55 108.427C146.99 108.384 146.5 108.806 146.459 109.366C146.416 109.928 146.838 110.417 147.4 110.458C147.426 110.46 147.451 110.462 147.477 110.462C148.005 110.462 148.451 110.055 148.491 109.519C148.532 108.957 148.112 108.468 147.55 108.427Z" fill="white" fill-opacity="0.3"/>
<path d="M155.69 108.733C155.127 108.733 154.67 109.188 154.67 109.751C154.668 110.313 155.124 110.77 155.688 110.77C156.252 110.77 156.707 110.315 156.707 109.753C156.709 109.188 156.254 108.733 155.69 108.733Z" fill="white" fill-opacity="0.3"/>
<path d="M60.0264 53.8723C59.5414 54.1535 59.3729 54.7758 59.6556 55.2632C59.8429 55.5894 60.1855 55.7732 60.5375 55.7732C60.7098 55.7732 60.8858 55.7281 61.0468 55.6363C61.5337 55.3532 61.7003 54.7308 61.4194 54.2434C61.1367 53.7579 60.5132 53.5911 60.0264 53.8723Z" fill="white" fill-opacity="0.3"/>
<path d="M123.592 103.899C123.055 103.733 122.486 104.034 122.32 104.571C122.153 105.108 122.454 105.677 122.991 105.844C123.093 105.876 123.192 105.891 123.293 105.891C123.727 105.891 124.129 105.61 124.266 105.172C124.431 104.635 124.131 104.064 123.592 103.899Z" fill="white" fill-opacity="0.3"/>
<path d="M56.6938 48.5022C56.8399 48.5022 56.9917 48.4703 57.1341 48.401C57.6399 48.1574 57.8535 47.5484 57.61 47.0406C57.3664 46.5346 56.7556 46.321 56.2497 46.5665C55.7438 46.8101 55.5302 47.4191 55.7738 47.925C55.9499 48.2904 56.3134 48.5022 56.6938 48.5022Z" fill="white" fill-opacity="0.3"/>
<path d="M47.054 17.1753C47.1027 17.1753 47.1552 17.1715 47.2058 17.164C47.7623 17.0815 48.1464 16.5619 48.0621 16.0066C47.9796 15.4495 47.4606 15.0649 46.9041 15.1493C46.3475 15.23 45.9634 15.7515 46.0477 16.3067C46.1227 16.8113 46.5574 17.1753 47.054 17.1753Z" fill="white" fill-opacity="0.3"/>
<path d="M116.485 102.526C116.691 102.003 116.434 101.411 115.91 101.206C115.385 101 114.795 101.257 114.589 101.782C114.383 102.305 114.64 102.897 115.164 103.101C115.286 103.15 115.413 103.173 115.537 103.173C115.943 103.171 116.325 102.927 116.485 102.526Z" fill="white" fill-opacity="0.3"/>
<path d="M74.0996 55.2739C73.6391 55.5963 73.5231 56.2299 73.845 56.691C74.0435 56.9759 74.3598 57.1296 74.6818 57.1296C74.8821 57.1296 75.0861 57.0696 75.264 56.9459C75.7245 56.6254 75.8386 55.9918 75.5185 55.5288C75.1947 55.0677 74.562 54.9534 74.0996 55.2739Z" fill="white" fill-opacity="0.3"/>
<path d="M127.456 93.343C126.919 93.1799 126.351 93.4854 126.188 94.0231C126.025 94.5609 126.329 95.1286 126.868 95.2917C126.967 95.3216 127.067 95.3366 127.164 95.3366C127.6 95.3366 128.005 95.0537 128.138 94.6115C128.301 94.0756 127.996 93.506 127.456 93.343Z" fill="white" fill-opacity="0.3"/>
<path d="M105.11 83.3611C104.628 83.0687 104.003 83.2205 103.71 83.7021C103.418 84.1837 103.57 84.8096 104.051 85.1019C104.216 85.2031 104.4 85.25 104.578 85.25C104.923 85.25 105.258 85.0757 105.449 84.7609C105.743 84.2793 105.591 83.6534 105.11 83.3611Z" fill="white" fill-opacity="0.3"/>
<path d="M90.5667 75.2758C90.7597 75.4426 90.9958 75.5232 91.2338 75.5232C91.5186 75.5232 91.8034 75.4032 92.0039 75.1709C92.3711 74.7456 92.3262 74.103 91.9008 73.7339C91.4736 73.3666 90.8309 73.4116 90.4636 73.8369C90.0945 74.2641 90.1414 74.9067 90.5667 75.2758Z" fill="white" fill-opacity="0.3"/>
<path d="M112.269 87.3114C111.767 87.0602 111.154 87.2664 110.905 87.7706C110.653 88.2748 110.858 88.8858 111.362 89.1351C111.508 89.2082 111.664 89.2419 111.816 89.2419C112.19 89.2419 112.549 89.0357 112.728 88.6777C112.978 88.1754 112.773 87.5644 112.269 87.3114Z" fill="white" fill-opacity="0.3"/>
<path d="M85.2131 69.8584C85.4701 69.8584 85.727 69.7628 85.9259 69.5681C86.3273 69.1747 86.3348 68.5286 85.9427 68.1278C85.5489 67.7251 84.9036 67.7176 84.5004 68.1109C84.099 68.5043 84.0915 69.1485 84.4835 69.5512C84.6823 69.7572 84.9468 69.8584 85.2131 69.8584Z" fill="white" fill-opacity="0.3"/>
<path d="M135.378 95.3781C134.827 95.262 134.288 95.6141 134.169 96.1629C134.053 96.7136 134.404 97.253 134.955 97.371C135.026 97.386 135.097 97.3935 135.166 97.3935C135.639 97.3935 136.06 97.0657 136.161 96.5881C136.281 96.0374 135.929 95.4961 135.378 95.3781Z" fill="white" fill-opacity="0.3"/>
<path d="M143.443 96.7408C142.885 96.6715 142.375 97.0669 142.305 97.6235C142.236 98.182 142.63 98.6917 143.188 98.7611C143.232 98.7667 143.275 98.7705 143.316 98.7705C143.822 98.7705 144.261 98.3938 144.327 97.8784C144.398 97.3218 144.002 96.812 143.443 96.7408Z" fill="white" fill-opacity="0.3"/>
<path d="M150.534 98.3991C150.511 98.963 150.948 99.437 151.508 99.4595C151.523 99.4614 151.538 99.4614 151.551 99.4614C152.095 99.4614 152.545 99.0323 152.569 98.4853C152.592 97.9232 152.155 97.4492 151.595 97.4248C151.034 97.4004 150.558 97.837 150.534 98.3991Z" fill="white" fill-opacity="0.3"/>
<path d="M63.2115 35.1972C63.3295 35.1972 63.4494 35.1766 63.5656 35.1335C64.0919 34.9386 64.3617 34.3521 64.1669 33.8237C63.9702 33.2971 63.3839 33.0273 62.8575 33.224C62.3292 33.4189 62.0614 34.0054 62.2562 34.5339C62.4098 34.9424 62.7994 35.1972 63.2115 35.1972Z" fill="white" fill-opacity="0.3"/>
<path d="M59.7913 18.0748C59.6863 17.524 59.154 17.1587 58.601 17.2636C58.048 17.3666 57.6843 17.9006 57.7893 18.4532C57.883 18.9441 58.3104 19.2832 58.7903 19.2832C58.8522 19.2832 58.9159 19.2776 58.9796 19.2644C59.5308 19.1614 59.8944 18.6275 59.7913 18.0748Z" fill="white" fill-opacity="0.3"/>
<path d="M118.983 92.5425C119.106 92.5912 119.234 92.6137 119.358 92.6137C119.764 92.6137 120.146 92.37 120.305 91.9725C120.513 91.4475 120.257 90.855 119.736 90.6487C119.213 90.4406 118.621 90.6956 118.413 91.2187C118.204 91.7419 118.46 92.3344 118.983 92.5425Z" fill="white" fill-opacity="0.3"/>
<path d="M80.4682 62.0471C80.11 61.6141 79.4669 61.5523 79.0338 61.9121C78.6007 62.2702 78.5388 62.913 78.8988 63.346C79.0994 63.5897 79.39 63.7153 79.6844 63.7153C79.9132 63.7153 80.1438 63.6384 80.3332 63.481C80.7663 63.123 80.8263 62.4801 80.4682 62.0471Z" fill="white" fill-opacity="0.3"/>
<path d="M61.6477 26.0432C61.4977 25.4998 60.9354 25.1831 60.3937 25.3349C59.852 25.4848 59.5352 26.047 59.6852 26.5886C59.8107 27.0383 60.2212 27.3344 60.6655 27.3344C60.7554 27.3344 60.8473 27.3232 60.9391 27.2988C61.4808 27.1452 61.7995 26.583 61.6477 26.0432Z" fill="white" fill-opacity="0.3"/>
<path d="M98.3042 78.8235C97.8507 78.4939 97.2136 78.5932 96.88 79.0483C96.5502 79.5016 96.6495 80.1385 97.1049 80.4719C97.2848 80.603 97.4947 80.6667 97.7027 80.6667C98.0175 80.6667 98.3285 80.5206 98.5272 80.2471C98.8589 79.792 98.7595 79.1551 98.3042 78.8235Z" fill="white" fill-opacity="0.3"/>
<path d="M67.3381 41.3694C67.0983 40.8597 66.4913 40.6424 65.9817 40.8803C65.4721 41.1202 65.2547 41.7273 65.4945 42.2369C65.6669 42.6041 66.0341 42.8215 66.4163 42.8215C66.5625 42.8215 66.7086 42.7896 66.8491 42.7241C67.3587 42.4861 67.5761 41.8772 67.3381 41.3694Z" fill="white" fill-opacity="0.3"/>
<path d="M57.0889 2.85665C57.0964 2.85665 57.1039 2.85665 57.1095 2.85478C57.6736 2.84542 58.1196 2.37915 58.1084 1.81738C58.0972 1.25374 57.6324 0.808064 57.0683 0.8193C56.506 0.828662 56.06 1.29493 56.0713 1.8567C56.0825 2.41285 56.536 2.85665 57.0889 2.85665Z" fill="white" fill-opacity="0.3"/>
<path d="M57.595 11.1069C57.6306 11.1069 57.6662 11.105 57.7018 11.1013C58.2618 11.045 58.6682 10.5445 58.6102 9.98402C58.5521 9.4254 58.052 9.01673 57.492 9.07484C56.9339 9.13295 56.5256 9.6316 56.5836 10.1921C56.6379 10.717 57.08 11.1069 57.595 11.1069Z" fill="white" fill-opacity="0.3"/>
<path d="M69.3667 49.6404C69.556 49.9665 69.8971 50.1501 70.2495 50.1501C70.422 50.1501 70.5982 50.107 70.7594 50.0133C71.2448 49.7322 71.4135 49.1082 71.1324 48.621C71.1305 48.621 71.1305 48.621 71.1305 48.621C70.8493 48.1357 70.227 47.967 69.7397 48.25C69.2524 48.5311 69.0874 49.1532 69.3667 49.6404Z" fill="white" fill-opacity="0.3"/>
<path d="M159.817 99.468C159.832 99.468 159.845 99.468 159.858 99.4661C160.42 99.4436 160.859 98.9696 160.834 98.4075C160.812 97.8436 160.338 97.407 159.776 97.4314C159.212 97.4539 158.776 97.9279 158.798 98.49C158.823 99.0389 159.274 99.468 159.817 99.468Z" fill="white" fill-opacity="0.3"/>
<path d="M107.872 74.2533C108.043 74.3638 108.234 74.4162 108.423 74.4162C108.759 74.4162 109.087 74.2514 109.282 73.9499C109.585 73.4779 109.448 72.8468 108.978 72.5415C108.506 72.2362 107.874 72.3729 107.569 72.8449C107.263 73.3206 107.4 73.9499 107.872 74.2533Z" fill="white" fill-opacity="0.3"/>
<path d="M139.341 84.731C138.79 84.6243 138.255 84.9876 138.149 85.5382C138.042 86.0907 138.404 86.6245 138.957 86.7312C139.02 86.7425 139.086 86.75 139.15 86.75C139.629 86.75 140.055 86.411 140.149 85.924C140.256 85.3715 139.894 84.8378 139.341 84.731Z" fill="white" fill-opacity="0.3"/>
<path d="M115.159 78.4779C115.309 78.5547 115.468 78.5922 115.626 78.5922C115.993 78.5922 116.351 78.3935 116.53 78.0411C116.789 77.5425 116.594 76.9258 116.094 76.669C115.596 76.4103 114.981 76.6053 114.723 77.1058C114.462 77.6044 114.657 78.2192 115.159 78.4779Z" fill="white" fill-opacity="0.3"/>
<path d="M69.3067 13.2378C69.8634 13.1573 70.2514 12.6424 70.1727 12.0864C70.0921 11.5304 69.5766 11.1429 69.0199 11.2216C68.4633 11.3021 68.0753 11.8169 68.1559 12.3729C68.2271 12.8802 68.6638 13.249 69.1624 13.249C69.2111 13.2471 69.258 13.2434 69.3067 13.2378Z" fill="white" fill-opacity="0.3"/>
<path d="M84.4757 51.5461C84.6818 51.5461 84.8879 51.4843 85.0658 51.357C85.5249 51.0293 85.6298 50.3944 85.3038 49.9356C84.9778 49.4768 84.3408 49.372 83.8837 49.6978C83.4247 50.0255 83.3179 50.6603 83.6457 51.1173V51.1191C83.8443 51.3963 84.1572 51.5442 84.4757 51.5461Z" fill="white" fill-opacity="0.3"/>
<path d="M90.2876 57.8419C90.7128 57.4749 90.7597 56.8306 90.3907 56.4054C90.0217 55.9803 89.3792 55.9334 88.954 56.3024C88.5288 56.6714 88.482 57.3156 88.851 57.7389H88.8529C89.0533 57.9712 89.338 58.091 89.6227 58.091C89.8568 58.091 90.0947 58.0068 90.2876 57.8419Z" fill="white" fill-opacity="0.3"/>
<path d="M96.065 62.364C95.6586 61.9762 95.0125 61.9893 94.6249 62.3977C94.2372 62.8043 94.2503 63.4507 94.6586 63.8386C94.8571 64.0259 95.1099 64.1196 95.3609 64.1196C95.6305 64.1196 95.8983 64.0147 96.0987 63.8048C96.4864 63.3964 96.4733 62.7519 96.065 62.364Z" fill="white" fill-opacity="0.3"/>
<path d="M73.3948 29.3574C73.9268 29.1739 74.2096 28.5951 74.026 28.0632C73.8406 27.5332 73.2618 27.2504 72.7298 27.4339C72.1997 27.6175 71.9168 28.1981 72.1004 28.7281C72.2465 29.1495 72.6418 29.4155 73.0632 29.4155C73.1737 29.4136 73.2843 29.3949 73.3948 29.3574Z" fill="white" fill-opacity="0.3"/>
<path d="M130.772 84.7459C130.868 84.774 130.963 84.7871 131.059 84.7871C131.499 84.7871 131.906 84.5004 132.037 84.0563C132.196 83.5166 131.887 82.9507 131.347 82.7914C130.808 82.6321 130.242 82.9413 130.083 83.481C129.924 84.0225 130.233 84.5884 130.772 84.7459Z" fill="white" fill-opacity="0.3"/>
<path d="M155.702 86.291C155.14 86.291 154.683 86.7461 154.683 87.3098C154.683 87.8716 155.138 88.3286 155.7 88.3286H155.702C156.263 88.3286 156.719 87.8716 156.72 87.3098C156.72 86.7499 156.265 86.2929 155.702 86.291Z" fill="white" fill-opacity="0.3"/>
<path d="M147.484 85.8998C146.926 85.8455 146.427 86.258 146.373 86.8168C146.321 87.3775 146.731 87.8763 147.291 87.9288C147.323 87.9326 147.357 87.9326 147.388 87.9326C147.905 87.9326 148.349 87.5369 148.402 87.01C148.454 86.4493 148.044 85.9523 147.484 85.8998Z" fill="white" fill-opacity="0.3"/>
<path d="M123.572 80.0961C123.05 79.8844 122.458 80.1391 122.249 80.6599C122.037 81.1824 122.292 81.7762 122.812 81.986C122.938 82.0347 123.065 82.059 123.192 82.059C123.595 82.059 123.977 81.8174 124.138 81.4203C124.348 80.8977 124.095 80.3058 123.572 80.0961Z" fill="white" fill-opacity="0.3"/>
<path d="M79.9714 44.5432C80.1439 44.5432 80.3201 44.4982 80.4795 44.4064C80.967 44.1235 81.1339 43.5016 80.8526 43.0145C80.5714 42.5293 79.9489 42.3607 79.4614 42.6417C78.9739 42.9246 78.807 43.5465 79.0883 44.0336C79.2776 44.3615 79.6189 44.5432 79.9714 44.5432Z" fill="white" fill-opacity="0.3"/>
<path d="M100.85 67.929C100.502 68.3714 100.579 69.0125 101.019 69.3593C101.206 69.5073 101.429 69.5786 101.649 69.5786C101.95 69.5786 102.248 69.4455 102.451 69.1905C102.799 68.75 102.722 68.1071 102.28 67.7603C101.84 67.4117 101.199 67.4866 100.85 67.929Z" fill="white" fill-opacity="0.3"/>
<path d="M68.3389 2.92618C67.7748 2.95054 67.3418 3.42826 67.3681 3.99029C67.3924 4.53734 67.8441 4.96261 68.3857 4.96261C68.4026 4.96261 68.4176 4.96261 68.4344 4.96074C68.9967 4.93451 69.4296 4.45865 69.4034 3.89662C69.4034 3.89475 69.4034 3.89475 69.4034 3.89475C69.3771 3.33271 68.9011 2.89995 68.3389 2.92618Z" fill="white" fill-opacity="0.3"/>
<path d="M69.7354 20.6436C69.8497 21.11 70.2658 21.4228 70.7249 21.4228C70.8055 21.4228 70.8842 21.4135 70.9647 21.3929C71.5119 21.2617 71.8474 20.7129 71.7162 20.1659C71.5831 19.619 71.0341 19.2837 70.4888 19.4129C69.9397 19.5478 69.6043 20.0966 69.7354 20.6436Z" fill="white" fill-opacity="0.3"/>
<path d="M76.5772 37.0511C77.0885 36.8188 77.3133 36.2135 77.0792 35.7019C76.8469 35.1904 76.2419 34.9636 75.7305 35.1979C75.2191 35.4302 74.9925 36.0355 75.2266 36.5471C75.399 36.9218 75.768 37.1429 76.1538 37.1429C76.2962 37.1448 76.4385 37.1148 76.5772 37.0511Z" fill="white" fill-opacity="0.3"/>
<path d="M119.913 65.9923C119.915 65.9923 119.915 65.9923 119.913 65.9923C119.42 65.7243 118.802 65.9061 118.532 66.401C118.264 66.8958 118.448 67.5144 118.941 67.7825C119.096 67.8668 119.263 67.9062 119.426 67.9062C119.788 67.9062 120.138 67.7131 120.322 67.3739C120.592 66.879 120.408 66.2604 119.913 65.9923Z" fill="white" fill-opacity="0.3"/>
<path d="M151.457 76.9905C151.475 76.9905 151.494 76.9924 151.513 76.9924C152.051 76.9924 152.5 76.5725 152.528 76.0288C152.558 75.4664 152.129 74.9865 151.567 74.9565C151.005 74.9246 150.526 75.3558 150.494 75.9182C150.464 76.4787 150.895 76.9586 151.457 76.9905Z" fill="white" fill-opacity="0.3"/>
<path d="M89.1859 37.0433C88.6991 37.3245 88.5305 37.947 88.8133 38.4344C89.0005 38.7606 89.3432 38.9443 89.6952 38.9443C89.8675 38.9443 90.0435 38.9012 90.2045 38.8074C90.6914 38.5244 90.858 37.902 90.5772 37.4164C90.2944 36.929 89.6728 36.7621 89.1859 37.0433Z" fill="white" fill-opacity="0.3"/>
<path d="M95.1161 44.3562C94.7826 43.9025 94.1457 43.805 93.6924 44.1387C93.2391 44.4724 93.1417 45.1099 93.4733 45.5636C93.6737 45.8336 93.9828 45.978 94.2956 45.978C94.5054 45.978 94.7152 45.9142 94.8988 45.7792C95.3521 45.4474 95.4495 44.8099 95.1161 44.3562Z" fill="white" fill-opacity="0.3"/>
<path d="M99.6367 52.4641C99.8841 52.4641 100.132 52.376 100.327 52.1943C100.741 51.8139 100.767 51.1675 100.387 50.7553C100.006 50.3412 99.3611 50.315 98.9469 50.6953C98.5326 51.0757 98.5063 51.7202 98.8869 52.1343C99.0893 52.3535 99.363 52.4641 99.6367 52.4641Z" fill="white" fill-opacity="0.3"/>
<path d="M112.86 61.6408C112.397 61.3186 111.762 61.4329 111.442 61.8956C111.122 62.3564 111.236 62.9933 111.697 63.3118H111.699C111.875 63.4354 112.079 63.4953 112.279 63.4953C112.601 63.4953 112.918 63.3417 113.116 63.057C113.437 62.5962 113.322 61.963 112.86 61.6408Z" fill="white" fill-opacity="0.3"/>
<path d="M135.241 72.2352C134.7 72.0815 134.138 72.3965 133.984 72.9383C133.83 73.4802 134.145 74.0426 134.687 74.1964C134.778 74.2226 134.872 74.2339 134.964 74.2339C135.408 74.2339 135.816 73.9414 135.944 73.4933C136.097 72.9514 135.783 72.3871 135.241 72.2352Z" fill="white" fill-opacity="0.3"/>
<path d="M126.075 70.0973C125.863 70.6183 126.112 71.2125 126.633 71.4243H126.635C126.76 71.4749 126.89 71.4992 127.017 71.4992C127.418 71.4992 127.8 71.2612 127.961 70.8638C128.173 70.3428 127.924 69.7468 127.403 69.5368C126.882 69.325 126.288 69.5762 126.075 70.0973Z" fill="white" fill-opacity="0.3"/>
<path d="M79.7623 7.10372C79.7904 7.10372 79.8166 7.10185 79.8466 7.09997C80.4068 7.05502 80.8246 6.56238 80.7796 6.00231C80.7328 5.44223 80.2419 5.02452 79.6817 5.06948C79.1215 5.11443 78.7037 5.60707 78.7487 6.16714C78.7918 6.69912 79.2377 7.10372 79.7623 7.10372Z" fill="white" fill-opacity="0.3"/>
<path d="M81.0971 15.4067C81.6477 15.3 82.0092 14.7645 81.9024 14.2139C81.7957 13.6615 81.2619 13.3001 80.7076 13.4069C80.1569 13.5136 79.7955 14.0473 79.9022 14.6015C79.9977 15.0865 80.4229 15.4255 80.9023 15.4255C80.966 15.4273 81.0316 15.4198 81.0971 15.4067Z" fill="white" fill-opacity="0.3"/>
<path d="M86.8315 30.02C86.6067 29.5027 86.0054 29.2684 85.4903 29.4952C84.9751 29.7201 84.741 30.3217 84.9658 30.8371C85.1325 31.2176 85.5071 31.4463 85.8986 31.4463C86.0354 31.4463 86.1758 31.4181 86.307 31.36C86.824 31.1351 87.0581 30.5354 86.8315 30.02Z" fill="white" fill-opacity="0.3"/>
<path d="M105.656 58.3283C105.939 58.3283 106.222 58.2102 106.425 57.9796C106.794 57.5559 106.751 56.9128 106.327 56.5416C105.902 56.1722 105.259 56.2153 104.889 56.6409C104.52 57.0647 104.563 57.7078 104.987 58.079C105.18 58.2458 105.418 58.3283 105.656 58.3283Z" fill="white" fill-opacity="0.3"/>
<path d="M82.9566 23.5735C83.0578 23.5735 83.159 23.5585 83.2602 23.5266C83.7981 23.36 84.098 22.7869 83.9293 22.2514C83.7625 21.7139 83.1908 21.4143 82.6548 21.5828C82.1169 21.7495 81.817 22.3225 81.9857 22.8581C82.1188 23.2944 82.5236 23.5735 82.9566 23.5735Z" fill="white" fill-opacity="0.3"/>
<path d="M142.994 76.0565C143.05 76.0659 143.108 76.0715 143.163 76.0715C143.652 76.0715 144.085 75.7173 144.168 75.2208C144.259 74.6643 143.884 74.1415 143.33 74.0478C142.775 73.956 142.25 74.3307 142.158 74.8854C142.064 75.4382 142.439 75.9647 142.994 76.0565Z" fill="white" fill-opacity="0.3"/>
<path d="M159.861 74.9631C159.298 74.9931 158.867 75.475 158.899 76.0356C158.927 76.5793 159.377 76.9992 159.915 76.9992C159.934 76.9992 159.951 76.9992 159.971 76.9974C160.534 76.9674 160.965 76.4874 160.933 75.9249C160.903 75.3644 160.421 74.9331 159.861 74.9631Z" fill="white" fill-opacity="0.3"/>
<path d="M129.888 59.5215C129.673 60.0401 129.918 60.6374 130.438 60.8527C130.566 60.907 130.699 60.9314 130.828 60.9314C131.229 60.9314 131.607 60.6955 131.77 60.3041C131.985 59.7855 131.74 59.1882 131.219 58.9729C130.701 58.7557 130.103 59.001 129.888 59.5215Z" fill="white" fill-opacity="0.3"/>
<path d="M123.722 55.2601C123.236 54.9772 122.612 55.144 122.331 55.6311C122.048 56.1163 122.215 56.7421 122.702 57.0212H122.7C122.861 57.1149 123.038 57.1599 123.212 57.1599C123.563 57.1599 123.906 56.9782 124.095 56.6522C124.374 56.165 124.209 55.543 123.722 55.2601Z" fill="white" fill-opacity="0.3"/>
<path d="M91.7475 -0.213153C91.7494 -0.776853 91.292 -1.23193 90.7297 -1.23193C90.1655 -1.23193 89.71 -0.776853 89.71 -0.213153C89.71 0.350547 90.1673 0.805628 90.7297 0.805628C91.292 0.805628 91.7475 0.348675 91.7475 -0.213153Z" fill="white" fill-opacity="0.3"/>
<path d="M155.717 63.8523C155.153 63.8504 154.698 64.3059 154.698 64.8701C154.698 65.4325 155.153 65.8899 155.715 65.8899H155.717C156.278 65.8899 156.735 65.4343 156.735 64.8701C156.732 64.3097 156.276 63.8523 155.717 63.8523Z" fill="white" fill-opacity="0.3"/>
<path d="M116.954 52.0281C117.295 51.5819 117.213 50.9427 116.769 50.5996C116.322 50.2565 115.683 50.339 115.338 50.7852C114.995 51.2314 115.079 51.8706 115.524 52.2137C115.709 52.3561 115.927 52.4255 116.144 52.4255C116.45 52.4255 116.754 52.2887 116.954 52.0281Z" fill="white" fill-opacity="0.3"/>
<path d="M138.619 63.6375C138.707 63.6599 138.797 63.6731 138.884 63.6731C139.333 63.6731 139.746 63.3734 139.866 62.9182C140.012 62.375 139.689 61.8168 139.146 61.6707C138.602 61.5246 138.042 61.8468 137.898 62.39C137.753 62.9332 138.076 63.4914 138.619 63.6375Z" fill="white" fill-opacity="0.3"/>
<path d="M110.475 46.511C110.874 46.1136 110.874 45.4688 110.477 45.0695C110.078 44.6721 109.434 44.6721 109.037 45.0695C108.638 45.4669 108.638 46.1117 109.035 46.511C109.233 46.7097 109.494 46.809 109.754 46.809C110.015 46.809 110.277 46.7116 110.475 46.511Z" fill="white" fill-opacity="0.3"/>
<path d="M104.146 40.4116C104.364 40.4116 104.581 40.3423 104.766 40.1999C105.212 39.857 105.298 39.22 104.954 38.7722C104.613 38.3263 103.972 38.242 103.527 38.5849C103.081 38.9259 102.995 39.5666 103.339 40.0144C103.54 40.2729 103.841 40.4116 104.146 40.4116Z" fill="white" fill-opacity="0.3"/>
<path d="M147.094 65.3226C147.139 65.3282 147.182 65.332 147.227 65.332C147.731 65.332 148.167 64.9574 148.235 64.4461C148.308 63.8898 147.914 63.3766 147.358 63.3036C146.801 63.2287 146.288 63.622 146.215 64.1801C146.142 64.7383 146.535 65.2477 147.094 65.3226Z" fill="white" fill-opacity="0.3"/>
<path d="M96.041 25.6257C96.56 25.4104 96.8072 24.8152 96.5918 24.2948C96.3764 23.7763 95.7807 23.5293 95.2617 23.7445C94.7409 23.9598 94.4955 24.555 94.7091 25.0754C94.8721 25.4666 95.2524 25.7043 95.6514 25.7043C95.7825 25.7024 95.9137 25.6781 96.041 25.6257Z" fill="white" fill-opacity="0.3"/>
<path d="M92.2836 8.14465C92.2106 7.5864 91.7012 7.193 91.1413 7.26606C90.5852 7.33724 90.1901 7.84867 90.2631 8.40693C90.3305 8.92022 90.7687 9.29489 91.2705 9.29489C91.3155 9.29489 91.3586 9.29114 91.4035 9.28552C91.9634 9.21246 92.3548 8.70291 92.2836 8.14465Z" fill="white" fill-opacity="0.3"/>
<path d="M93.1832 17.6055C93.7266 17.4595 94.0507 16.9035 93.9046 16.3587C93.7603 15.8158 93.2019 15.4938 92.6586 15.6379C92.1152 15.7839 91.791 16.34 91.9372 16.8847C92.0571 17.3397 92.4693 17.6411 92.9209 17.6411C93.0071 17.6411 93.0951 17.628 93.1832 17.6055Z" fill="white" fill-opacity="0.3"/>
<path d="M99.4174 33.3374C99.5899 33.3374 99.766 33.2924 99.9272 33.2006C100.414 32.9176 100.581 32.2955 100.3 31.8083C100.019 31.3229 99.3949 31.1543 98.9095 31.4372C98.4222 31.7183 98.2536 32.3405 98.5366 32.8277C98.7221 33.1537 99.067 33.3374 99.4174 33.3374Z" fill="white" fill-opacity="0.3"/>
<path d="M124.845 45.1172C125.019 45.237 125.219 45.2951 125.418 45.2951C125.744 45.2951 126.063 45.1415 126.261 44.8512C126.578 44.3866 126.46 43.7535 125.995 43.435C125.53 43.1185 124.897 43.2365 124.579 43.701C124.262 44.1656 124.38 44.8006 124.845 45.1172Z" fill="white" fill-opacity="0.3"/>
<path d="M132.374 49.3288C132.753 49.3288 133.117 49.117 133.293 48.7534C133.538 48.2474 133.326 47.6364 132.82 47.3927C132.314 47.1491 131.703 47.359 131.46 47.865C131.214 48.3711 131.426 48.9821 131.932 49.2257C132.074 49.297 132.226 49.3288 132.374 49.3288Z" fill="white" fill-opacity="0.3"/>
<path d="M140.832 51.5558C140.999 51.0186 140.698 50.4495 140.16 50.2829C139.623 50.1164 139.053 50.4177 138.887 50.9549C138.72 51.4922 139.022 52.0612 139.559 52.2278C139.66 52.2596 139.761 52.2746 139.861 52.2746C140.293 52.2746 140.696 51.9938 140.832 51.5558Z" fill="white" fill-opacity="0.3"/>
<path d="M155.721 52.6311C155.158 52.6292 154.703 53.0847 154.703 53.649C154.703 54.2113 155.158 54.6687 155.72 54.6687H155.721C156.283 54.6687 156.74 54.2132 156.74 53.649C156.738 53.0885 156.283 52.6311 155.721 52.6311Z" fill="white" fill-opacity="0.3"/>
<path d="M105.645 20.4768C105.768 20.4768 105.896 20.4543 106.018 20.4056C106.54 20.2013 106.799 19.6092 106.595 19.0865C106.389 18.5618 105.798 18.3051 105.275 18.5093C104.751 18.7155 104.492 19.3057 104.698 19.8285C104.854 20.2313 105.238 20.4768 105.645 20.4768Z" fill="white" fill-opacity="0.3"/>
<path d="M147.852 52.04C147.296 51.9576 146.777 52.3396 146.695 52.8959C146.61 53.4521 146.992 53.9708 147.55 54.0551C147.601 54.0626 147.652 54.0664 147.704 54.0664C148.198 54.0664 148.633 53.7049 148.71 53.1993C148.79 52.6412 148.406 52.1243 147.852 52.04Z" fill="white" fill-opacity="0.3"/>
<path d="M103.28 12.7832C103.355 12.7832 103.43 12.7738 103.505 12.7588C104.054 12.6333 104.397 12.088 104.273 11.539C104.15 10.99 103.604 10.6472 103.055 10.7708C102.506 10.8945 102.161 11.4397 102.287 11.9887C102.394 12.4628 102.815 12.7832 103.28 12.7832Z" fill="white" fill-opacity="0.3"/>
<path d="M113.67 34.3737C113.893 34.3737 114.116 34.3006 114.306 34.1506C114.746 33.8018 114.817 33.1587 114.467 32.7199C114.116 32.2793 113.476 32.208 113.035 32.5587C112.595 32.9093 112.524 33.5506 112.874 33.9912C113.074 34.2444 113.371 34.3737 113.67 34.3737Z" fill="white" fill-opacity="0.3"/>
<path d="M119.886 39.948C120.268 39.5357 120.246 38.8911 119.833 38.507C119.421 38.1247 118.776 38.1472 118.393 38.5595C118.011 38.9736 118.033 39.6182 118.446 40.0004C118.643 40.1822 118.892 40.2722 119.139 40.2722C119.411 40.274 119.685 40.1635 119.886 39.948Z" fill="white" fill-opacity="0.3"/>
<path d="M102.095 4.82784C102.12 4.82784 102.144 4.82598 102.17 4.82411C102.733 4.78289 103.153 4.29386 103.111 3.73365C103.07 3.17156 102.583 2.75186 102.02 2.79308C101.458 2.8343 101.038 3.32332 101.079 3.88354C101.119 4.41752 101.565 4.82784 102.095 4.82784Z" fill="white" fill-opacity="0.3"/>
<path d="M108.253 27.2186C108.442 27.5448 108.783 27.7285 109.135 27.7285C109.308 27.7285 109.484 27.6854 109.645 27.5916C110.13 27.3104 110.299 26.6861 110.018 26.2006C109.735 25.7132 109.113 25.5463 108.626 25.8275C108.139 26.1069 107.972 26.7311 108.253 27.2186Z" fill="white" fill-opacity="0.3"/>
<path d="M118.858 22.1176C119.031 22.1176 119.207 22.0727 119.368 21.9809C119.856 21.698 120.023 21.076 119.741 20.589C119.46 20.1038 118.838 19.9352 118.35 20.2162C117.863 20.499 117.696 21.121 117.977 21.6081C118.163 21.9359 118.506 22.1176 118.858 22.1176Z" fill="white" fill-opacity="0.3"/>
<path d="M124.327 27.0302C123.958 26.605 123.315 26.5582 122.889 26.9272C122.464 27.2942 122.417 27.9404 122.786 28.3637C122.987 28.5959 123.272 28.7158 123.557 28.7158C123.795 28.7158 124.031 28.6334 124.224 28.4667C124.647 28.0977 124.694 27.4553 124.327 27.0302Z" fill="white" fill-opacity="0.3"/>
<path d="M151.781 41.2216C151.221 41.1672 150.722 41.5779 150.67 42.1386C150.616 42.6993 151.026 43.1981 151.586 43.2506C151.62 43.2544 151.652 43.2544 151.684 43.2544C152.203 43.2544 152.647 42.8587 152.698 42.3318C152.752 41.7711 152.342 41.276 151.781 41.2216Z" fill="white" fill-opacity="0.3"/>
<path d="M144.018 39.7247C143.479 39.5656 142.913 39.8745 142.754 40.4137C142.595 40.9528 142.904 41.5182 143.443 41.6774C143.539 41.7073 143.636 41.7204 143.732 41.7204C144.172 41.7204 144.577 41.4321 144.708 40.9884C144.867 40.4492 144.558 39.8838 144.018 39.7247Z" fill="white" fill-opacity="0.3"/>
<path d="M136.685 36.7774C136.187 36.5207 135.57 36.7156 135.314 37.214C135.055 37.7143 135.25 38.329 135.748 38.5876C135.898 38.6644 136.058 38.7019 136.217 38.7019C136.586 38.7019 136.94 38.5014 137.122 38.151C137.382 37.6506 137.186 37.0379 136.685 36.7774Z" fill="white" fill-opacity="0.3"/>
<path d="M115.492 14.7512C115.603 14.7512 115.715 14.7343 115.824 14.6949C116.356 14.5112 116.639 13.9319 116.455 13.3995C116.272 12.869 115.691 12.5859 115.161 12.7697C114.629 12.9534 114.346 13.5345 114.53 14.065C114.676 14.4868 115.071 14.7512 115.492 14.7512Z" fill="white" fill-opacity="0.3"/>
<path d="M113.593 6.87838C113.642 6.87838 113.688 6.87463 113.739 6.86901C114.296 6.78838 114.684 6.27273 114.603 5.71583C114.524 5.15893 114.009 4.77079 113.452 4.85142C112.896 4.93017 112.508 5.44582 112.586 6.00272C112.658 6.51087 113.094 6.87838 113.593 6.87838Z" fill="white" fill-opacity="0.3"/>
<path d="M130.212 33.9257C130.561 33.4829 130.484 32.8413 130.044 32.4942C129.601 32.1452 128.96 32.2202 128.613 32.663C128.264 33.1039 128.339 33.7475 128.782 34.0946C128.967 34.2409 129.19 34.3122 129.412 34.3122C129.712 34.3122 130.012 34.1809 130.212 33.9257Z" fill="white" fill-opacity="0.3"/>
<path d="M159.78 43.2627C159.812 43.2627 159.843 43.2608 159.875 43.2589C160.435 43.2064 160.847 42.7099 160.795 42.1496C160.743 41.5894 160.246 41.1771 159.686 41.2296C159.126 41.2821 158.714 41.7786 158.766 42.3389C158.815 42.8673 159.259 43.2627 159.78 43.2627Z" fill="white" fill-opacity="0.3"/>
<path d="M125.184 6.94141C124.641 7.0857 124.318 7.64411 124.463 8.18752C124.584 8.64286 124.996 8.94454 125.446 8.94454C125.534 8.94454 125.622 8.9333 125.71 8.90894C126.253 8.76466 126.577 8.20626 126.431 7.66285C126.287 7.11943 125.729 6.79713 125.184 6.94141Z" fill="white" fill-opacity="0.3"/>
<path d="M140.571 26.1141C140.084 25.8309 139.46 25.9978 139.179 26.4835C138.896 26.971 139.063 27.5955 139.55 27.8767C139.709 27.9705 139.885 28.0136 140.06 28.0136C140.412 28.0136 140.753 27.8317 140.942 27.5055C141.223 27.0198 141.057 26.3972 140.571 26.1141Z" fill="white" fill-opacity="0.3"/>
<path d="M147.362 31.1233C147.45 31.1458 147.54 31.1589 147.626 31.1589C148.076 31.1589 148.486 30.8592 148.608 30.404C148.754 29.8608 148.432 29.3026 147.888 29.1565C147.345 29.0104 146.785 29.3326 146.64 29.8758C146.496 30.419 146.816 30.9772 147.362 31.1233Z" fill="white" fill-opacity="0.3"/>
<path d="M134.288 22.7186C134.687 22.3214 134.687 21.6768 134.29 21.2776C133.893 20.8804 133.246 20.8785 132.849 21.2776C132.45 21.6749 132.45 22.3195 132.847 22.7168C133.046 22.9154 133.306 23.0166 133.569 23.0166C133.827 23.0166 134.087 22.9191 134.288 22.7186Z" fill="white" fill-opacity="0.3"/>
<path d="M128.581 16.5168C128.753 16.5168 128.929 16.4718 129.089 16.38C129.576 16.097 129.743 15.4748 129.462 14.9893C129.181 14.502 128.558 14.3352 128.071 14.6145C127.583 14.8975 127.416 15.5197 127.698 16.007C127.887 16.3331 128.23 16.5168 128.581 16.5168Z" fill="white" fill-opacity="0.3"/>
<path d="M155.745 30.1909C155.182 30.189 154.727 30.6464 154.727 31.2088C154.727 31.773 155.182 32.2285 155.745 32.2285C156.309 32.2285 156.764 31.773 156.764 31.2106C156.764 30.6483 156.309 30.1909 155.745 30.1909Z" fill="white" fill-opacity="0.3"/>
<path d="M125.408 -0.19561C125.408 -0.757953 124.953 -1.21533 124.389 -1.21533C123.827 -1.2172 123.37 -0.75983 123.37 -0.197487C123.37 0.366731 123.825 0.82223 124.389 0.82223C124.953 0.82223 125.408 0.366733 125.408 -0.19561Z" fill="white" fill-opacity="0.3"/>
<path d="M159.742 18.5594C159.191 18.6755 158.839 19.2151 158.955 19.766C159.056 20.2456 159.48 20.5754 159.95 20.5754C160.019 20.5754 160.091 20.5679 160.162 20.5529C160.712 20.4386 161.065 19.8971 160.949 19.3463C160.832 18.7973 160.291 18.4451 159.742 18.5594Z" fill="white" fill-opacity="0.3"/>
<path d="M138.814 10.7755C139.302 10.4943 139.469 9.87185 139.187 9.38442C138.906 8.89699 138.284 8.73015 137.796 9.01135C137.309 9.29256 137.142 9.91496 137.423 10.4024C137.61 10.7305 137.954 10.9123 138.306 10.9123C138.477 10.9123 138.653 10.8692 138.814 10.7755Z" fill="white" fill-opacity="0.3"/>
<path d="M144.51 15.3065C144.057 14.9749 143.42 15.0742 143.087 15.5294C142.755 15.9828 142.855 16.6198 143.31 16.9533C143.492 17.0863 143.701 17.1482 143.909 17.1482C144.224 17.1482 144.533 17.002 144.733 16.7285C145.065 16.2732 144.964 15.6362 144.51 15.3065Z" fill="white" fill-opacity="0.3"/>
<path d="M151.356 20.5456C151.427 20.5606 151.498 20.5681 151.568 20.5681C152.038 20.5681 152.461 20.24 152.562 19.762C152.679 19.2108 152.328 18.6709 151.778 18.5528C151.227 18.4365 150.687 18.7871 150.569 19.3383C150.453 19.8876 150.805 20.4275 151.356 20.5456Z" fill="white" fill-opacity="0.3"/>
<path d="M135.717 2.93746C135.753 2.93746 135.788 2.93372 135.824 2.93185C136.384 2.87373 136.79 2.37322 136.732 1.81459C136.674 1.2541 136.174 0.847317 135.614 0.905429C135.056 0.963541 134.648 1.46405 134.706 2.02455C134.76 2.54755 135.202 2.93559 135.717 2.93746Z" fill="white" fill-opacity="0.3"/>
<path d="M155.771 7.75049C155.207 7.75049 154.752 8.20599 154.752 8.76833C154.752 9.33255 155.207 9.78805 155.771 9.78805C156.334 9.78805 156.79 9.33255 156.79 8.77021C156.79 8.20599 156.334 7.75049 155.771 7.75049Z" fill="white" fill-opacity="0.3"/>
<path d="M148.908 3.78006C148.627 3.29284 148.005 3.12418 147.517 3.40715C147.03 3.68824 146.863 4.31039 147.144 4.79762C147.332 5.12368 147.675 5.30734 148.027 5.30734C148.2 5.30734 148.376 5.26423 148.535 5.17053C149.022 4.89131 149.191 4.26729 148.908 3.78006Z" fill="white" fill-opacity="0.3"/>
<circle cx="155.623" cy="-0.36377" r="102" fill="url(#paint0_linear_3234_66)"/>
<circle cx="156.123" cy="0.13623" r="72.5" fill="#011530"/>
<defs>
<linearGradient id="paint0_linear_3234_66" x1="42.7824" y1="-0.364038" x2="253.772" y2="-0.364038" gradientUnits="userSpaceOnUse">
<stop stop-color="#A2E62E"/>
<stop offset="0.7542" stop-color="#09A76D"/>
<stop offset="1" stop-color="#017B4E"/>
</linearGradient>
</defs>
</svg>
