<svg width="194" height="167" viewBox="0 0 194 167" fill="none" xmlns="http://www.w3.org/2000/svg">
<path d="M84.8373 26.9504C84.7193 27.1612 84.6616 27.3896 84.6616 27.6155C84.6616 28.0949 84.9126 28.5567 85.3595 28.8077C86.0197 29.1767 86.8482 28.9407 87.2172 28.2831C87.5862 27.6256 87.3528 26.7948 86.695 26.4258C86.0373 26.0569 85.2064 26.2928 84.8373 26.9504Z" fill="white" fill-opacity="0.3"/>
<path d="M173.179 124.689C173.179 124.875 173.217 125.06 173.297 125.241C173.603 125.931 174.409 126.24 175.099 125.934C175.787 125.628 176.098 124.822 175.792 124.132C175.485 123.444 174.68 123.133 173.99 123.439C173.48 123.665 173.179 124.167 173.179 124.689Z" fill="white" fill-opacity="0.3"/>
<path d="M43.7279 9.77653C43.6877 9.90955 43.6701 10.0426 43.6701 10.1731C43.6701 10.7604 44.0493 11.3001 44.6394 11.4783C45.36 11.6966 46.1233 11.29 46.3417 10.5672C46.5602 9.84681 46.1534 9.08378 45.4303 8.86542C44.7097 8.64706 43.9463 9.05618 43.7279 9.77653Z" fill="white" fill-opacity="0.3"/>
<path d="M54.3452 13.229C54.2875 13.3822 54.2624 13.5404 54.2624 13.6961C54.2624 14.2535 54.6063 14.7784 55.1609 14.9792C55.8686 15.2379 56.6516 14.8688 56.9101 14.1632C57.1686 13.4525 56.8022 12.6716 56.0945 12.413C55.3843 12.1568 54.6037 12.5234 54.3452 13.229Z" fill="white" fill-opacity="0.3"/>
<path d="M136.805 69.0282C136.805 69.3547 136.923 69.6862 137.159 69.9474C137.669 70.505 138.534 70.5452 139.089 70.0378C139.647 69.528 139.687 68.6665 139.18 68.1089C138.67 67.5513 137.808 67.5111 137.25 68.0185C136.953 68.2872 136.805 68.6589 136.805 69.0282Z" fill="white" fill-opacity="0.3"/>
<path d="M186.72 167.024C186.72 167.114 186.728 167.205 186.748 167.298C186.898 168.036 187.619 168.513 188.359 168.362C189.097 168.212 189.574 167.491 189.423 166.752C189.27 166.014 188.552 165.537 187.812 165.687C187.164 165.818 186.72 166.386 186.72 167.024Z" fill="white" fill-opacity="0.3"/>
<path d="M168.394 114.65C168.394 114.858 168.442 115.071 168.545 115.27C168.886 115.94 169.709 116.209 170.379 115.865C171.052 115.523 171.318 114.7 170.976 114.03C170.632 113.359 169.812 113.091 169.14 113.432C168.668 113.673 168.394 114.153 168.394 114.65Z" fill="white" fill-opacity="0.3"/>
<path d="M181.09 145.478C181.09 145.614 181.113 145.754 181.155 145.892C181.386 146.611 182.154 147.005 182.872 146.779C183.59 146.548 183.984 145.779 183.756 145.061C183.525 144.343 182.757 143.948 182.041 144.177C181.461 144.363 181.09 144.9 181.09 145.478Z" fill="white" fill-opacity="0.3"/>
<path d="M163.076 104.881C163.076 105.112 163.137 105.348 163.262 105.564C163.641 106.215 164.475 106.438 165.125 106.059C165.778 105.682 166.001 104.846 165.622 104.195C165.243 103.542 164.41 103.319 163.757 103.698C163.32 103.952 163.076 104.409 163.076 104.881Z" fill="white" fill-opacity="0.3"/>
<path d="M144.087 77.4542C144.087 77.7579 144.187 78.0642 144.398 78.3178C144.872 78.9027 145.733 78.9881 146.316 78.5111C146.9 78.0341 146.986 77.173 146.509 76.5906C146.032 76.0056 145.171 75.9203 144.589 76.3973C144.257 76.6684 144.087 77.06 144.087 77.4542Z" fill="white" fill-opacity="0.3"/>
<path d="M103.748 38.7441C103.577 38.9851 103.497 39.2613 103.497 39.5349C103.497 39.9617 103.695 40.3835 104.07 40.6496C104.686 41.0839 105.538 40.9408 105.975 40.3258C106.412 39.7107 106.267 38.8596 105.653 38.4228C105.038 37.986 104.186 38.1291 103.748 38.7441Z" fill="white" fill-opacity="0.3"/>
<path d="M150.905 86.2549C150.905 86.5363 150.99 86.8176 151.171 87.0638C151.615 87.6718 152.468 87.8024 153.078 87.3578C153.686 86.9106 153.816 86.0565 153.372 85.4485C152.925 84.8406 152.072 84.7099 151.465 85.1546C151.096 85.4209 150.905 85.8354 150.905 86.2549Z" fill="white" fill-opacity="0.3"/>
<path d="M112.702 45.3853C112.501 45.634 112.406 45.9354 112.406 46.2318C112.406 46.6362 112.582 47.0331 112.921 47.3019C113.511 47.7716 114.371 47.6737 114.841 47.0808C115.308 46.4905 115.212 45.6315 114.619 45.1643C114.031 44.6945 113.172 44.795 112.702 45.3853Z" fill="white" fill-opacity="0.3"/>
<path d="M184.196 156.175C184.196 156.288 184.208 156.406 184.241 156.519C184.432 157.248 185.178 157.685 185.906 157.494C186.634 157.306 187.071 156.557 186.883 155.828C186.692 155.1 185.943 154.662 185.215 154.853C184.603 155.014 184.196 155.567 184.196 156.175Z" fill="white" fill-opacity="0.3"/>
<path d="M129.084 61.0006C129.084 61.3548 129.219 61.7066 129.491 61.9754C130.028 62.503 130.892 62.4979 131.422 61.9603C131.951 61.4227 131.944 60.5584 131.409 60.0309C130.872 59.5008 130.008 59.5058 129.478 60.0434C129.214 60.3072 129.084 60.6539 129.084 61.0006Z" fill="white" fill-opacity="0.3"/>
<path d="M120.944 53.3951C120.944 53.7742 121.1 54.1482 121.404 54.4168C121.969 54.9189 122.832 54.8661 123.33 54.2988C123.832 53.7365 123.779 52.873 123.214 52.3735C122.649 51.8739 121.788 51.9266 121.285 52.4914C121.057 52.75 120.944 53.0713 120.944 53.3951Z" fill="white" fill-opacity="0.3"/>
<path d="M22.0643 4.62657C22.0467 4.71196 22.0392 4.79735 22.0392 4.88274C22.0392 5.52565 22.4987 6.10075 23.1517 6.22381C23.8925 6.36193 24.6057 5.87473 24.7464 5.13388C24.8845 4.39302 24.3973 3.67978 23.6564 3.54166C22.9156 3.39851 22.2024 3.88321 22.0643 4.62657Z" fill="white" fill-opacity="0.3"/>
<path d="M32.9658 6.90742C32.9382 7.01535 32.9256 7.12579 32.9256 7.23373C32.9256 7.8487 33.3424 8.40845 33.9676 8.55905C34.6982 8.73978 35.4388 8.29047 35.6171 7.55752C35.7953 6.82708 35.3484 6.0866 34.6153 5.90839C33.8847 5.72766 33.1441 6.17698 32.9658 6.90742Z" fill="white" fill-opacity="0.3"/>
<path d="M64.7556 17.2526C64.6828 17.4258 64.6476 17.6066 64.6476 17.7874C64.6476 18.3171 64.9589 18.8217 65.4785 19.0426C66.1714 19.3389 66.9747 19.015 67.2684 18.3221C67.5646 17.6292 67.2408 16.8258 66.5479 16.5321C65.8526 16.2358 65.0518 16.5572 64.7556 17.2526Z" fill="white" fill-opacity="0.3"/>
<path d="M11.0532 2.9368C11.0456 2.99963 11.0406 3.05995 11.0406 3.11775C11.0406 3.79375 11.5382 4.37928 12.2242 4.46975C12.973 4.57027 13.6615 4.04504 13.7595 3.29616C13.8575 2.5498 13.3323 1.86124 12.5835 1.76323C11.8397 1.66522 11.1537 2.19044 11.0532 2.9368Z" fill="white" fill-opacity="0.3"/>
<path d="M74.9272 21.8309C74.8343 22.0242 74.7891 22.23 74.7891 22.4307C74.7891 22.9352 75.0678 23.4196 75.5524 23.658C76.2302 23.9893 77.0487 23.7107 77.3801 23.0331C77.7116 22.3579 77.4329 21.5398 76.755 21.206C76.0771 20.8747 75.2611 21.1558 74.9272 21.8309Z" fill="white" fill-opacity="0.3"/>
<path d="M157.242 95.4061C157.242 95.6621 157.315 95.9205 157.466 96.1514C157.877 96.7837 158.722 96.9594 159.354 96.5479C159.987 96.1338 160.162 95.2907 159.751 94.6583C159.337 94.026 158.492 93.8503 157.862 94.2618C157.461 94.5228 157.242 94.9594 157.242 95.4061Z" fill="white" fill-opacity="0.3"/>
<path d="M-0.0273452 1.83826C-0.0298558 1.87594 -0.0323713 1.9111 -0.0323713 1.94627C-0.0323714 2.65208 0.509923 3.24987 1.22545 3.30513C1.97612 3.3629 2.63389 2.80278 2.69415 2.05176C2.75189 1.30074 2.19203 0.642657 1.44136 0.582374C0.688173 0.527115 0.0303988 1.08724 -0.0273452 1.83826Z" fill="white" fill-opacity="0.3"/>
<path d="M94.45 32.5943C94.3067 32.8202 94.2389 33.0712 94.2389 33.3222C94.2389 33.7739 94.4625 34.2181 94.8722 34.4791C95.5106 34.8807 96.355 34.6925 96.7571 34.055C97.1617 33.42 96.9707 32.5768 96.3324 32.1752C95.699 31.7661 94.8546 31.9569 94.45 32.5943Z" fill="white" fill-opacity="0.3"/>
<path d="M177.411 134.969C177.411 135.13 177.441 135.295 177.501 135.453C177.77 136.156 178.558 136.511 179.261 136.244C179.966 135.976 180.32 135.187 180.052 134.482C179.785 133.779 178.997 133.425 178.292 133.691C177.745 133.899 177.411 134.419 177.411 134.969Z" fill="white" fill-opacity="0.3"/>
<path d="M167.853 153.583C167.853 153.711 167.873 153.844 167.911 153.975C168.124 154.696 168.886 155.107 169.609 154.891C170.33 154.675 170.742 153.915 170.526 153.194C170.31 152.471 169.549 152.061 168.828 152.275C168.235 152.451 167.853 152.993 167.853 153.583Z" fill="white" fill-opacity="0.3"/>
<path d="M164.336 142.959C164.336 143.112 164.364 143.27 164.419 143.426C164.678 144.134 165.461 144.498 166.169 144.241C166.877 143.985 167.241 143.2 166.985 142.492C166.726 141.784 165.943 141.417 165.235 141.676C164.683 141.877 164.336 142.401 164.336 142.959Z" fill="white" fill-opacity="0.3"/>
<path d="M123.404 76.6971C123.404 77.0338 123.527 77.3705 123.776 77.6343C124.293 78.1821 125.16 78.2072 125.707 77.6921C126.255 77.172 126.28 76.3076 125.763 75.7599C125.245 75.2121 124.381 75.187 123.831 75.7021C123.55 75.9709 123.404 76.3328 123.404 76.6971Z" fill="white" fill-opacity="0.3"/>
<path d="M130.853 85.0538C130.853 85.3653 130.959 85.6768 131.172 85.933C131.657 86.5108 132.52 86.5836 133.098 86.1013C133.675 85.6165 133.748 84.7548 133.263 84.1771C132.779 83.5993 131.918 83.5239 131.34 84.0088C131.019 84.2775 130.853 84.6644 130.853 85.0538Z" fill="white" fill-opacity="0.3"/>
<path d="M155.453 122.388C155.453 122.594 155.5 122.802 155.596 123.001C155.935 123.674 156.756 123.945 157.429 123.606C158.105 123.269 158.376 122.448 158.037 121.775C157.698 121.1 156.877 120.828 156.204 121.168C155.729 121.406 155.453 121.888 155.453 122.388Z" fill="white" fill-opacity="0.3"/>
<path d="M144.237 103C144.237 103.256 144.309 103.517 144.46 103.748C144.875 104.378 145.722 104.552 146.352 104.137C146.983 103.723 147.156 102.877 146.742 102.247C146.327 101.617 145.48 101.441 144.85 101.858C144.45 102.122 144.237 102.556 144.237 103Z" fill="white" fill-opacity="0.3"/>
<path d="M150.125 112.53C150.125 112.761 150.183 112.997 150.309 113.213C150.686 113.865 151.523 114.089 152.174 113.71C152.827 113.333 153.051 112.497 152.671 111.846L152.674 111.846C152.294 111.194 151.46 110.97 150.807 111.347C150.369 111.6 150.125 112.057 150.125 112.53Z" fill="white" fill-opacity="0.3"/>
<path d="M170.744 164.394C170.744 164.497 170.756 164.602 170.781 164.708C170.954 165.44 171.69 165.895 172.422 165.724C173.157 165.551 173.609 164.815 173.438 164.083C173.265 163.347 172.53 162.893 171.797 163.066C171.168 163.214 170.744 163.776 170.744 164.394Z" fill="white" fill-opacity="0.3"/>
<path d="M160.194 132.541C160.194 132.722 160.229 132.905 160.304 133.081C160.606 133.775 161.41 134.091 162.101 133.792C162.794 133.493 163.111 132.689 162.812 131.998C162.513 131.305 161.706 130.988 161.015 131.287C160.503 131.508 160.194 132.013 160.194 132.541Z" fill="white" fill-opacity="0.3"/>
<path d="M137.803 93.8336C137.803 94.1173 137.891 94.4036 138.074 94.6497C138.524 95.2549 139.38 95.378 139.986 94.9285C140.588 94.4764 140.714 93.6226 140.262 93.0174C139.812 92.4122 138.956 92.2892 138.35 92.7387C137.994 93.0049 137.803 93.4167 137.803 93.8336Z" fill="white" fill-opacity="0.3"/>
<path d="M70.0034 36.1627C69.9055 36.3585 69.8603 36.5694 69.8603 36.7777C69.8603 37.2773 70.1366 37.7568 70.6113 37.9978C71.2844 38.3342 72.1058 38.0631 72.4448 37.3903C72.7839 36.7175 72.5127 35.8966 71.837 35.5577C71.1639 35.2187 70.3425 35.4899 70.0034 36.1627Z" fill="white" fill-opacity="0.3"/>
<path d="M79.875 41.4089C79.7494 41.6224 79.6916 41.8585 79.6916 42.0922C79.6916 42.5644 79.9353 43.0216 80.3724 43.2754C81.0256 43.6522 81.8623 43.4286 82.2391 42.7754C82.616 42.1248 82.3924 41.2858 81.7392 40.9115C81.0885 40.5346 80.2543 40.7557 79.875 41.4089Z" fill="white" fill-opacity="0.3"/>
<path d="M91.3217 46.8334C90.691 46.419 89.8442 46.5923 89.4296 47.2226C89.2763 47.4536 89.2059 47.7173 89.2059 47.9735C89.2059 48.4154 89.4195 48.8499 89.819 49.1136C90.4497 49.5279 91.2991 49.3546 91.7112 48.7243C92.1258 48.094 91.9524 47.2477 91.3217 46.8334Z" fill="white" fill-opacity="0.3"/>
<path d="M115.49 68.7811C115.49 69.1424 115.633 69.5062 115.919 69.7747C116.467 70.2916 117.331 70.2665 117.848 69.717C118.366 69.17 118.341 68.3068 117.791 67.7874C117.243 67.2705 116.379 67.2956 115.862 67.8451C115.613 68.1086 115.49 68.4448 115.49 68.7811Z" fill="white" fill-opacity="0.3"/>
<path d="M52.004 28.3827C52.2625 27.6751 51.8986 26.8922 51.1884 26.6337C50.4808 26.3752 49.6978 26.7391 49.4394 27.4492C49.3816 27.6023 49.3565 27.7604 49.3565 27.916C49.3565 28.4731 49.7003 28.9975 50.2549 29.1983C50.9626 29.4567 51.748 29.0904 52.004 28.3827Z" fill="white" fill-opacity="0.3"/>
<path d="M100.543 53.3026C99.9368 52.8503 99.0797 52.9759 98.6298 53.5789C98.4489 53.8251 98.3609 54.1115 98.3609 54.3954C98.3609 54.8125 98.5494 55.222 98.9088 55.4908C99.5146 55.9405 100.372 55.8174 100.822 55.212C101.271 54.609 101.146 53.7548 100.543 53.3026Z" fill="white" fill-opacity="0.3"/>
<path d="M109.376 60.2941C108.798 59.809 107.937 59.8844 107.452 60.4625C107.236 60.7189 107.133 61.0305 107.133 61.3397C107.133 61.7293 107.298 62.1138 107.62 62.3853C108.198 62.8703 109.057 62.7949 109.545 62.2169C110.027 61.6413 109.954 60.7817 109.376 60.2941Z" fill="white" fill-opacity="0.3"/>
<path d="M59.8511 31.5057C59.7759 31.6814 59.7383 31.8672 59.7383 32.0454C59.7383 32.5726 60.0466 33.0772 60.5631 33.2981C61.2551 33.5993 62.0574 33.278 62.3558 32.5877C62.6567 31.8948 62.3357 31.0915 61.6463 30.7928C60.9518 30.494 60.1494 30.8129 59.8511 31.5057Z" fill="white" fill-opacity="0.3"/>
<path d="M18.5635 17.8983C17.8234 17.7678 17.1158 18.2624 16.9853 19.0055C16.9728 19.0859 16.9627 19.1662 16.9627 19.244C16.9627 19.8943 17.4294 20.4717 18.0918 20.5872C18.8345 20.7178 19.5421 20.2207 19.6726 19.4775C19.803 18.7369 19.3062 18.0289 18.5635 17.8983Z" fill="white" fill-opacity="0.3"/>
<path d="M5.90096 17.4694C5.89343 17.5221 5.89091 17.5748 5.89091 17.6275C5.89091 18.3126 6.40301 18.8998 7.09837 18.9827C7.84645 19.068 8.52425 18.5334 8.61211 17.7831C8.69997 17.0353 8.16276 16.3577 7.41468 16.2699C6.66409 16.1846 5.98631 16.7216 5.90096 17.4694Z" fill="white" fill-opacity="0.3"/>
<path d="M41.4087 24.7861C41.6248 24.0651 41.2127 23.3013 40.4917 23.0877C39.7707 22.8717 39.0069 23.2812 38.7934 24.0022C38.7532 24.1329 38.7356 24.266 38.7356 24.3942C38.7356 24.9846 39.1175 25.5248 39.7104 25.7032C40.4314 25.9192 41.1926 25.5072 41.4087 24.7861Z" fill="white" fill-opacity="0.3"/>
<path d="M27.9624 21.1818C27.9373 21.2897 27.9247 21.395 27.9247 21.4979C27.9247 22.1151 28.3487 22.6771 28.976 22.8252C29.7086 22.9983 30.4437 22.5441 30.6193 21.8115C30.7899 21.0789 30.3383 20.3413 29.6057 20.1682C28.8706 19.995 28.1355 20.4492 27.9624 21.1818Z" fill="white" fill-opacity="0.3"/>
<path d="M155.21 164.22C155.21 164.333 155.222 164.448 155.255 164.564C155.443 165.293 156.186 165.732 156.916 165.544C157.646 165.355 158.085 164.612 157.897 163.881C157.709 163.152 156.964 162.712 156.236 162.901C155.616 163.056 155.21 163.612 155.21 164.22Z" fill="white" fill-opacity="0.3"/>
<path d="M36.2531 38.9372C36.2129 39.0727 36.1928 39.2083 36.1928 39.3413C36.1928 39.9234 36.5672 40.463 37.1527 40.6462C37.874 40.8695 38.6404 40.468 38.8616 39.7478C39.0852 39.0276 38.6831 38.2647 37.9644 38.0414C37.2432 37.813 36.4767 38.2145 36.2531 38.9372Z" fill="white" fill-opacity="0.3"/>
<path d="M135.208 112.097C134.801 111.464 133.955 111.281 133.322 111.688C132.915 111.949 132.697 112.391 132.697 112.838C132.697 113.089 132.767 113.348 132.913 113.577C133.322 114.209 134.166 114.393 134.801 113.983C135.437 113.574 135.618 112.73 135.208 112.097Z" fill="white" fill-opacity="0.3"/>
<path d="M25.3843 36.024C25.3567 36.1319 25.3442 36.2398 25.3442 36.3478C25.3442 36.9627 25.7635 37.5224 26.3887 37.673C27.1218 37.8512 27.86 37.3994 28.0357 36.6665C28.214 35.9336 27.7646 35.1958 27.0314 35.0201C26.2983 34.8419 25.5626 35.2936 25.3843 36.024Z" fill="white" fill-opacity="0.3"/>
<path d="M49.4679 43.5152C49.7364 42.8121 49.385 42.021 48.6798 41.7523C47.977 41.4837 47.1889 41.8352 46.9203 42.5383C46.8575 42.699 46.8274 42.8648 46.8274 43.028C46.8274 43.5754 47.1613 44.0952 47.7059 44.3012C48.4087 44.5724 49.1968 44.2208 49.4679 43.5152Z" fill="white" fill-opacity="0.3"/>
<path d="M141.051 121.829C140.684 121.169 139.85 120.933 139.194 121.302C138.744 121.551 138.493 122.017 138.493 122.494C138.493 122.72 138.548 122.948 138.664 123.159C139.033 123.816 139.865 124.052 140.523 123.686C141.181 123.317 141.418 122.489 141.051 121.829Z" fill="white" fill-opacity="0.3"/>
<path d="M67.4223 51.7307C67.3119 51.9368 67.2591 52.1554 67.2591 52.374C67.2591 52.8615 67.5202 53.3314 67.9796 53.5802C67.9796 53.5777 67.9796 53.5777 67.9796 53.5777C68.6448 53.9345 69.4706 53.6857 69.8271 53.0223C70.1835 52.3564 69.935 51.5297 69.2698 51.1729C68.6046 50.8161 67.7762 51.0648 67.4223 51.7307Z" fill="white" fill-opacity="0.3"/>
<path d="M59.7974 47.9413C60.111 47.2562 59.8099 46.4457 59.1251 46.132C58.4402 45.8183 57.6299 46.1194 57.3163 46.8045C57.2335 46.9902 57.1909 47.1834 57.1909 47.3717C57.1909 47.8911 57.4869 48.3855 57.9886 48.6139C58.6735 48.9275 59.4838 48.6289 59.7974 47.9413Z" fill="white" fill-opacity="0.3"/>
<path d="M148.189 142.825C148.189 142.996 148.222 143.166 148.29 143.332C148.568 144.032 149.363 144.371 150.063 144.092C150.763 143.811 151.102 143.016 150.821 142.316C150.543 141.616 149.747 141.277 149.047 141.558C148.515 141.771 148.189 142.283 148.189 142.825Z" fill="white" fill-opacity="0.3"/>
<path d="M5.91128 32.607C5.99415 31.8562 5.45423 31.1808 4.70336 31.1004C3.95501 31.0176 3.27948 31.5574 3.19661 32.3057C3.19158 32.3584 3.18906 32.4086 3.18906 32.4588C3.18906 33.1468 3.70639 33.7369 4.40452 33.8147C5.15037 33.8951 5.8259 33.3552 5.91128 32.607Z" fill="white" fill-opacity="0.3"/>
<path d="M15.9302 32.7048C15.1871 32.5741 14.4791 33.0691 14.3485 33.8129C14.3359 33.8933 14.3284 33.9738 14.3284 34.0517C14.3284 34.7025 14.7954 35.2779 15.4582 35.3935C16.1989 35.5242 16.9069 35.0292 17.0375 34.2854C17.1705 33.5415 16.6734 32.8329 15.9302 32.7048Z" fill="white" fill-opacity="0.3"/>
<path d="M114.177 85.3918C113.658 84.8466 112.795 84.824 112.247 85.3441C111.966 85.6129 111.823 85.9722 111.823 86.334C111.823 86.6732 111.949 87.0123 112.202 87.2762C112.722 87.8214 113.585 87.8415 114.13 87.3214C114.677 86.8013 114.697 85.937 114.177 85.3918Z" fill="white" fill-opacity="0.3"/>
<path d="M121.576 95.7642C122.153 95.2795 122.229 94.4181 121.744 93.8405C121.259 93.2629 120.398 93.1876 119.82 93.6722C119.498 93.9409 119.333 94.3302 119.333 94.7169C119.333 95.0258 119.438 95.3397 119.652 95.5934C120.139 96.1735 121 96.2488 121.576 95.7642Z" fill="white" fill-opacity="0.3"/>
<path d="M106.093 77.4342C105.538 76.9244 104.673 76.9571 104.163 77.5096C103.919 77.7732 103.801 78.1047 103.801 78.4362C103.801 78.8054 103.947 79.172 104.241 79.4407C104.796 79.953 105.661 79.9178 106.171 79.3628C106.681 78.8129 106.646 77.949 106.093 77.4342Z" fill="white" fill-opacity="0.3"/>
<path d="M95.6062 70.2056C95.4002 70.4569 95.2997 70.7636 95.2997 71.0653C95.2997 71.4624 95.4705 71.8571 95.8021 72.1261C95.8021 72.1236 95.8021 72.1236 95.8021 72.1236C96.3873 72.5987 97.2463 72.5132 97.7236 71.9275C98.2008 71.3418 98.1104 70.4821 97.5277 70.0045C96.9424 69.5293 96.0809 69.6198 95.6062 70.2056Z" fill="white" fill-opacity="0.3"/>
<path d="M86.6043 63.4539C86.4335 63.6951 86.3507 63.9714 86.3507 64.2452C86.3507 64.6723 86.549 65.0918 86.9232 65.3581C87.5383 65.7951 88.3895 65.652 88.8264 65.039C89.2658 64.4261 89.1227 63.572 88.5076 63.1349C87.8949 62.6953 87.0412 62.841 86.6043 63.4539Z" fill="white" fill-opacity="0.3"/>
<path d="M77.1958 57.289C77.0576 57.5123 76.9897 57.7608 76.9897 58.0067C76.9897 58.4635 77.2184 58.9102 77.633 59.1686C78.2737 59.5652 79.1155 59.3694 79.515 58.7295C79.9121 58.087 79.7161 57.2488 79.0753 56.8498C78.4371 56.4508 77.5928 56.6465 77.1958 57.289Z" fill="white" fill-opacity="0.3"/>
<path d="M143.663 132.504C143.663 132.7 143.706 132.9 143.796 133.091C144.123 133.771 144.936 134.06 145.616 133.733C146.298 133.41 146.584 132.594 146.261 131.914C145.937 131.234 145.121 130.945 144.441 131.272C143.952 131.505 143.663 131.994 143.663 132.504Z" fill="white" fill-opacity="0.3"/>
<path d="M152.042 153.42C152.042 153.56 152.065 153.704 152.11 153.844C152.344 154.562 153.117 154.951 153.833 154.715C154.549 154.482 154.94 153.709 154.704 152.993C154.471 152.278 153.697 151.886 152.982 152.122C152.406 152.313 152.042 152.848 152.042 153.42Z" fill="white" fill-opacity="0.3"/>
<path d="M128.477 104.663C129.085 104.216 129.213 103.363 128.766 102.755C128.319 102.148 127.462 102.018 126.857 102.467C126.495 102.733 126.302 103.147 126.302 103.566C126.302 103.847 126.387 104.131 126.568 104.374C127.015 104.981 127.869 105.112 128.477 104.663Z" fill="white" fill-opacity="0.3"/>
<path d="M62.4394 66.1221C62.7936 65.4565 62.5449 64.6301 61.8793 64.2759C61.2137 63.9217 60.3873 64.1704 60.0307 64.836C59.9201 65.042 59.8699 65.2605 59.8699 65.4791C59.8699 65.9664 60.1311 66.4386 60.5908 66.6848C61.2564 67.039 62.0827 66.7878 62.4394 66.1221Z" fill="white" fill-opacity="0.3"/>
<path d="M87.1117 83.7984C87.1117 84.1899 87.28 84.579 87.6039 84.85C88.1839 85.3319 89.0452 85.2516 89.5273 84.6718C90.0094 84.092 89.929 83.2311 89.349 82.7492C88.769 82.2673 87.9077 82.3477 87.4256 82.9274C87.2147 83.1835 87.1117 83.4922 87.1117 83.7984Z" fill="white" fill-opacity="0.3"/>
<path d="M102.994 98.9036C102.994 99.2327 103.113 99.5643 103.354 99.8281C103.864 100.383 104.731 100.419 105.284 99.9085C105.839 99.3985 105.874 98.5343 105.367 97.9791C104.857 97.4239 103.99 97.3888 103.437 97.8988C103.143 98.1701 102.994 98.5369 102.994 98.9036Z" fill="white" fill-opacity="0.3"/>
<path d="M71.8749 71.6946C72.2745 71.0537 72.081 70.2117 71.4402 69.8121C70.7995 69.4125 69.9577 69.606 69.5582 70.2469C69.4175 70.4706 69.3522 70.7219 69.3522 70.9682C69.3522 71.4257 69.5808 71.8705 69.9954 72.1294C69.9954 72.1269 69.9954 72.1269 69.9954 72.1269C70.6336 72.5265 71.4754 72.333 71.8749 71.6946Z" fill="white" fill-opacity="0.3"/>
<path d="M80.9196 77.8814C81.3589 77.2714 81.2233 76.418 80.6107 75.9763C80.0006 75.5345 79.147 75.6726 78.7051 76.2825C78.5294 76.5235 78.4465 76.8021 78.4465 77.0807C78.4465 77.5049 78.6423 77.9215 79.0114 78.1876C79.624 78.6319 80.4752 78.4938 80.9196 77.8814Z" fill="white" fill-opacity="0.3"/>
<path d="M95.3066 91.086C95.3066 91.4478 95.4497 91.8072 95.7309 92.076C96.2757 92.5962 97.1419 92.5761 97.6617 92.0283C98.1814 91.483 98.1588 90.6161 97.6114 90.0985C97.0666 89.5784 96.2004 89.601 95.6832 90.1462C95.4321 90.4076 95.3066 90.7468 95.3066 91.086Z" fill="white" fill-opacity="0.3"/>
<path d="M18.9237 49.9899C18.9011 50.0904 18.891 50.1884 18.891 50.2889C18.891 50.9145 19.3227 51.4798 19.9602 51.6205C20.698 51.7839 21.4259 51.319 21.589 50.5853C21.7521 49.8492 21.2878 49.1205 20.5525 48.9572C19.8146 48.7889 19.0868 49.2512 18.9237 49.9899Z" fill="white" fill-opacity="0.3"/>
<path d="M117.301 114.885C116.921 115.151 116.718 115.573 116.718 116.005C116.718 116.276 116.796 116.547 116.964 116.785C117.396 117.403 118.245 117.556 118.864 117.124C119.482 116.692 119.635 115.844 119.203 115.224C118.773 114.604 117.921 114.453 117.301 114.885Z" fill="white" fill-opacity="0.3"/>
<path d="M125.225 124.507C124.836 123.861 123.996 123.653 123.35 124.04C122.925 124.296 122.689 124.748 122.689 125.211C122.689 125.452 122.752 125.696 122.885 125.915C122.885 125.912 122.885 125.912 122.885 125.912C123.275 126.561 124.112 126.769 124.76 126.38C125.404 125.993 125.612 125.153 125.225 124.507Z" fill="white" fill-opacity="0.3"/>
<path d="M30.4824 54.3413C31.205 54.5546 31.9627 54.1405 32.1785 53.4175C32.3917 52.697 31.9778 51.9364 31.2577 51.723C30.5351 51.5097 29.7749 51.9214 29.5616 52.6443C29.5215 52.7723 29.5039 52.9029 29.5039 53.0309C29.5065 53.6208 29.8903 54.1656 30.4824 54.3413Z" fill="white" fill-opacity="0.3"/>
<path d="M-2.7727 46.8687C-2.77522 46.9063 -2.77773 46.9465 -2.77773 46.9867C-2.77773 47.6894 -2.24019 48.2842 -1.52681 48.3444C-0.775746 48.4072 -0.115115 47.85 -0.0523177 47.0996C0.0129919 46.3467 -0.544642 45.6891 -1.29821 45.6238C-2.04676 45.5586 -2.70739 46.1183 -2.7727 46.8687Z" fill="white" fill-opacity="0.3"/>
<path d="M9.68287 46.9168C8.93711 46.8038 8.23906 47.3135 8.12607 48.0618C8.11602 48.1296 8.111 48.1999 8.111 48.2677C8.111 48.9306 8.59562 49.5131 9.27106 49.6161C10.0168 49.729 10.7124 49.2193 10.8254 48.4736C10.9409 47.7278 10.4286 47.0298 9.68287 46.9168Z" fill="white" fill-opacity="0.3"/>
<path d="M50.0375 60.6451C50.0375 61.1644 50.3364 61.6612 50.8438 61.8895C51.5295 62.1981 52.3409 61.892 52.6474 61.2046C52.9563 60.5171 52.6524 59.7093 51.9616 59.4007C51.2758 59.0896 50.4645 59.3957 50.158 60.0856C50.0776 60.2663 50.0375 60.4594 50.0375 60.6451Z" fill="white" fill-opacity="0.3"/>
<path d="M110.655 106.16C110.319 106.428 110.146 106.825 110.146 107.224C110.146 107.526 110.246 107.827 110.447 108.078C110.919 108.666 111.777 108.761 112.365 108.289C112.954 107.817 113.047 106.958 112.575 106.371C112.101 105.78 111.243 105.688 110.655 106.16Z" fill="white" fill-opacity="0.3"/>
<path d="M40.7989 57.7724C41.5046 58.0335 42.2907 57.672 42.5518 56.9665C42.8155 56.2585 42.4539 55.4752 41.7482 55.2116C41.04 54.9505 40.254 55.312 39.9928 56.0175C39.9351 56.1732 39.9074 56.3338 39.9074 56.492C39.9074 57.0469 40.249 57.5666 40.7989 57.7724Z" fill="white" fill-opacity="0.3"/>
<path d="M136.684 154.966C136.684 155.117 136.709 155.267 136.761 155.418C137.01 156.128 137.788 156.502 138.501 156.251C139.211 156.002 139.587 155.225 139.336 154.512C139.086 153.802 138.307 153.425 137.595 153.676C137.035 153.874 136.684 154.401 136.684 154.966Z" fill="white" fill-opacity="0.3"/>
<path d="M133.523 143.48C133.006 143.704 132.697 144.208 132.697 144.736C132.697 144.914 132.732 145.098 132.807 145.273C133.106 145.967 133.907 146.286 134.6 145.989C135.293 145.69 135.614 144.889 135.316 144.196C135.017 143.503 134.213 143.184 133.523 143.48Z" fill="white" fill-opacity="0.3"/>
<path d="M139.961 165.429C139.961 165.55 139.979 165.67 140.011 165.793C140.212 166.519 140.963 166.946 141.691 166.745C142.419 166.544 142.843 165.793 142.642 165.065C142.441 164.337 141.691 163.913 140.963 164.114C140.36 164.279 139.961 164.829 139.961 165.429Z" fill="white" fill-opacity="0.3"/>
<path d="M128.025 134.802C128.025 135.012 128.073 135.226 128.178 135.424C128.522 136.094 129.342 136.36 130.015 136.016C130.684 135.672 130.95 134.852 130.604 134.179C130.26 133.509 129.44 133.241 128.768 133.587C128.296 133.831 128.025 134.307 128.025 134.802Z" fill="white" fill-opacity="0.3"/>
<path d="M121.498 153.669C120.961 153.883 120.632 154.397 120.629 154.94C120.629 155.105 120.659 155.276 120.725 155.439C121.001 156.142 121.794 156.486 122.492 156.21C123.195 155.934 123.541 155.143 123.265 154.443C122.991 153.74 122.201 153.393 121.498 153.669Z" fill="white" fill-opacity="0.3"/>
<path d="M125.234 164.044C124.647 164.223 124.271 164.765 124.271 165.349C124.271 165.482 124.291 165.615 124.331 165.751C124.554 166.471 125.315 166.875 126.037 166.654C126.758 166.431 127.162 165.668 126.941 164.948C126.718 164.228 125.955 163.824 125.234 164.044Z" fill="white" fill-opacity="0.3"/>
<path d="M18.9857 65.4211C19.154 64.6854 18.6943 63.9548 17.9581 63.7865C17.222 63.6183 16.4908 64.0803 16.3225 64.8135C16.2999 64.9164 16.2898 65.0193 16.2898 65.1173C16.2898 65.7424 16.7195 66.3024 17.3501 66.448C18.0862 66.6162 18.8174 66.1542 18.9857 65.4211Z" fill="white" fill-opacity="0.3"/>
<path d="M113.605 134.41C113.228 133.757 112.391 133.534 111.741 133.911C111.304 134.164 111.058 134.624 111.058 135.093C111.058 135.324 111.118 135.56 111.241 135.776C111.62 136.429 112.454 136.653 113.107 136.273C113.76 135.899 113.981 135.063 113.605 134.41Z" fill="white" fill-opacity="0.3"/>
<path d="M107.679 124.997C107.255 124.374 106.404 124.216 105.782 124.641C105.393 124.904 105.187 125.334 105.187 125.768C105.187 126.035 105.262 126.303 105.425 126.537C105.85 127.16 106.698 127.321 107.323 126.896C107.945 126.472 108.105 125.62 107.679 124.997Z" fill="white" fill-opacity="0.3"/>
<path d="M84.0177 99.8428C83.774 100.104 83.6534 100.438 83.6534 100.772C83.6534 101.138 83.7991 101.502 84.0906 101.771C84.088 101.771 84.088 101.771 84.088 101.771C84.6433 102.283 85.5075 102.251 86.02 101.698C86.5325 101.146 86.4999 100.282 85.9472 99.77C85.3945 99.2553 84.5302 99.2879 84.0177 99.8428Z" fill="white" fill-opacity="0.3"/>
<path d="M26.9904 67.5605C26.9503 67.696 26.9302 67.8314 26.9302 67.9644C26.9302 68.5463 27.3065 69.0856 27.8935 69.2687C28.6135 69.492 29.3761 69.0881 29.5993 68.3657C29.8226 67.6458 29.4187 66.8832 28.6988 66.66C27.9763 66.4392 27.2137 66.8431 26.9904 67.5605Z" fill="white" fill-opacity="0.3"/>
<path d="M91.8766 107.559C91.5877 107.825 91.442 108.192 91.442 108.559C91.442 108.89 91.5626 109.224 91.8063 109.488C92.3188 110.041 93.183 110.073 93.7357 109.561C94.2885 109.048 94.3211 108.185 93.8086 107.629C93.2961 107.077 92.4318 107.047 91.8766 107.559Z" fill="white" fill-opacity="0.3"/>
<path d="M7.03359 61.7289C6.28764 61.6183 5.59193 62.1308 5.48142 62.877C5.46886 62.9448 5.46635 63.0126 5.46635 63.0805C5.46635 63.7462 5.95109 64.3291 6.62923 64.4295C7.37517 64.5401 8.07089 64.0251 8.1814 63.2814C8.29442 62.5353 7.77954 61.8394 7.03359 61.7289Z" fill="white" fill-opacity="0.3"/>
<path d="M47.5444 75.4227C47.4515 75.6136 47.4088 75.8146 47.4088 76.013C47.4088 76.5229 47.6926 77.0102 48.1822 77.2438C48.8603 77.5704 49.6764 77.2865 50.0029 76.6083C50.3318 75.9301 50.0456 75.1138 49.3675 74.7872C48.687 74.4556 47.8708 74.7395 47.5444 75.4227Z" fill="white" fill-opacity="0.3"/>
<path d="M116.353 145.43C116.68 146.107 117.495 146.394 118.175 146.065C118.852 145.738 119.138 144.923 118.81 144.242C118.483 143.565 117.668 143.278 116.988 143.607C116.501 143.843 116.215 144.33 116.215 144.837C116.218 145.036 116.263 145.239 116.353 145.43Z" fill="white" fill-opacity="0.3"/>
<path d="M68.5875 85.9065C67.965 85.4825 67.1165 85.6406 66.6897 86.2653C66.529 86.5011 66.4512 86.7671 66.4512 87.033C66.4512 87.467 66.6596 87.8961 67.0462 88.162C67.6712 88.586 68.5172 88.428 68.944 87.8032C69.3682 87.181 69.2101 86.333 68.5875 85.9065Z" fill="white" fill-opacity="0.3"/>
<path d="M39.1882 70.3365C38.4879 70.0604 37.6947 70.4043 37.4211 71.1071C37.3558 71.2702 37.3257 71.4409 37.3257 71.6065C37.3257 72.1512 37.652 72.6657 38.1917 72.8765C38.8945 73.1526 39.6852 72.8087 39.9614 72.106C40.2375 71.4032 39.8911 70.6101 39.1882 70.3365Z" fill="white" fill-opacity="0.3"/>
<path d="M57.3171 80.4814C57.1915 80.6974 57.1337 80.9309 57.1337 81.1644C57.1337 81.6365 57.3774 82.0935 57.8146 82.3471C58.4678 82.7238 59.3044 82.5003 59.6813 81.85C60.0581 81.1971 59.8345 80.3609 59.1813 79.9843C58.5306 79.6051 57.6965 79.8286 57.3171 80.4814Z" fill="white" fill-opacity="0.3"/>
<path d="M75.6054 92.7288C75.4044 92.9797 75.3064 93.2809 75.3064 93.5795C75.3064 93.9811 75.4823 94.3776 75.819 94.6487C76.4094 95.118 77.2688 95.0226 77.7386 94.4354C78.2085 93.8456 78.113 92.9873 77.5251 92.5179C76.9371 92.0436 76.0753 92.139 75.6054 92.7288Z" fill="white" fill-opacity="0.3"/>
<path d="M101.066 116.057C100.596 115.467 99.7345 115.371 99.1468 115.841C98.8102 116.112 98.6344 116.508 98.6344 116.91C98.6344 117.208 98.7323 117.507 98.9333 117.76C99.403 118.35 100.264 118.446 100.852 117.974C101.44 117.502 101.538 116.644 101.066 116.057Z" fill="white" fill-opacity="0.3"/>
<path d="M56.4576 95.9181C55.822 95.5139 54.9778 95.7022 54.5733 96.3373C54.4301 96.5658 54.3597 96.8193 54.3597 97.0679C54.3597 97.5198 54.5833 97.9616 54.9929 98.2227C55.6285 98.6269 56.4727 98.4386 56.8772 97.8035C57.2817 97.1683 57.0933 96.3248 56.4576 95.9181Z" fill="white" fill-opacity="0.3"/>
<path d="M63.9848 104.489C64.5852 104.946 65.4419 104.83 65.8991 104.23C66.3564 103.63 66.2383 102.773 65.6378 102.316C65.0399 101.859 64.1833 101.977 63.7235 102.575C63.5351 102.824 63.4472 103.112 63.4472 103.401C63.4472 103.813 63.6331 104.22 63.9848 104.489Z" fill="white" fill-opacity="0.3"/>
<path d="M80.3237 117.226C80.0375 117.494 79.8919 117.859 79.8919 118.22C79.8919 118.557 80.0149 118.891 80.2634 119.155C80.7806 119.705 81.6443 119.732 82.1916 119.215C82.7414 118.7 82.769 117.836 82.2518 117.286C81.7372 116.736 80.8735 116.708 80.3237 117.226Z" fill="white" fill-opacity="0.3"/>
<path d="M72.3292 109.554C72.093 109.815 71.9774 110.144 71.9774 110.468C71.9774 110.84 72.1307 111.214 72.4272 111.483C72.9875 111.987 73.8518 111.942 74.3569 111.382C74.8619 110.82 74.8167 109.958 74.2564 109.454C73.6961 108.949 72.8342 108.994 72.3292 109.554Z" fill="white" fill-opacity="0.3"/>
<path d="M89.5695 125.755C89.1023 125.164 88.2408 125.066 87.6531 125.534C87.3115 125.803 87.1357 126.202 87.1357 126.605C87.1357 126.901 87.2312 127.203 87.4296 127.452C87.8993 128.042 88.7582 128.143 89.3485 127.673C89.9412 127.205 90.0392 126.346 89.5695 125.755Z" fill="white" fill-opacity="0.3"/>
<path d="M106.949 154.409C106.64 153.718 105.834 153.409 105.146 153.715C104.638 153.942 104.337 154.441 104.337 154.964C104.337 155.15 104.377 155.338 104.455 155.519C104.761 156.207 105.568 156.516 106.258 156.209C106.947 155.903 107.256 155.097 106.949 154.409Z" fill="white" fill-opacity="0.3"/>
<path d="M4.00486 79.2419C4.00486 79.2444 4.00486 79.2444 4.00486 79.2419C4.75031 79.3524 5.44306 78.8348 5.5535 78.0909C5.66393 77.3446 5.14688 76.651 4.40143 76.5404C3.65598 76.4324 2.96324 76.9475 2.8528 77.6939C2.84277 77.7617 2.83775 77.8296 2.83775 77.8949C2.83775 78.5583 3.32717 79.1438 4.00486 79.2419Z" fill="white" fill-opacity="0.3"/>
<path d="M13.7184 79.962C13.7184 80.5802 14.1428 81.1431 14.7732 81.2914C15.509 81.4622 16.2423 81.0074 16.4131 80.2736C16.5839 79.5373 16.1293 78.8035 15.396 78.6326C14.6627 78.4617 13.9269 78.9166 13.7561 79.6504C13.7285 79.7534 13.7184 79.859 13.7184 79.962Z" fill="white" fill-opacity="0.3"/>
<path d="M37.3849 87.3333C37.6762 86.6374 37.3523 85.8361 36.6568 85.5447C35.9613 85.2533 35.1604 85.5774 34.8692 86.2732C34.7964 86.4465 34.7612 86.6274 34.7612 86.8032C34.7612 87.3358 35.0751 87.8407 35.5948 88.0617C36.2928 88.3531 37.0912 88.0266 37.3849 87.3333Z" fill="white" fill-opacity="0.3"/>
<path d="M99.4046 145.041C99.4046 145.264 99.4598 145.49 99.5751 145.698C99.9389 146.358 100.767 146.599 101.429 146.235C102.089 145.874 102.329 145.043 101.966 144.381C101.604 143.721 100.774 143.48 100.114 143.844C99.6604 144.09 99.4046 144.559 99.4046 145.041Z" fill="white" fill-opacity="0.3"/>
<path d="M44.9313 90.8894C44.8258 91.0929 44.7756 91.3089 44.7756 91.5223C44.7756 92.0146 45.0418 92.4892 45.5062 92.7328C46.1741 93.0819 47.0002 92.8232 47.3492 92.1577C47.7007 91.4897 47.4421 90.6634 46.7742 90.3143C46.1063 89.9627 45.2828 90.2239 44.9313 90.8894Z" fill="white" fill-opacity="0.3"/>
<path d="M96.1576 134.808C95.7381 134.183 94.8914 134.01 94.2633 134.429C93.8688 134.692 93.6553 135.124 93.6553 135.568C93.6553 135.826 93.7306 136.089 93.8839 136.323C94.3009 136.95 95.1501 137.12 95.7783 136.701C96.4038 136.28 96.5747 135.435 96.1576 134.808Z" fill="white" fill-opacity="0.3"/>
<path d="M109.335 163.978C108.772 164.174 108.418 164.702 108.418 165.267C108.418 165.415 108.44 165.568 108.493 165.716C108.742 166.427 109.52 166.803 110.231 166.557C110.942 166.309 111.319 165.53 111.073 164.82C110.827 164.106 110.048 163.73 109.335 163.978Z" fill="white" fill-opacity="0.3"/>
<path d="M24.3886 82.9356C24.3886 83.511 24.7552 84.0486 25.3328 84.2346C26.0484 84.4657 26.8193 84.0738 27.0529 83.3577C27.2839 82.6417 26.8922 81.8703 26.1765 81.6367C25.4583 81.4055 24.6874 81.7975 24.4539 82.5135C24.4087 82.6517 24.3886 82.7949 24.3886 82.9356Z" fill="white" fill-opacity="0.3"/>
<path d="M84.6244 144.65C84.2178 144.017 83.3719 143.834 82.7394 144.244C82.3328 144.505 82.1119 144.944 82.1119 145.391C82.1119 145.645 82.1822 145.901 82.3303 146.13C82.7369 146.763 83.5828 146.946 84.2153 146.539C84.8503 146.13 85.0335 145.286 84.6244 144.65Z" fill="white" fill-opacity="0.3"/>
<path d="M90.275 154.423C89.9283 153.752 89.1044 153.491 88.4362 153.835C87.9664 154.076 87.6976 154.556 87.6976 155.049C87.6976 155.262 87.7453 155.474 87.8509 155.675C88.195 156.346 89.0215 156.607 89.6897 156.263C90.3604 155.916 90.6217 155.092 90.275 154.423Z" fill="white" fill-opacity="0.3"/>
<path d="M93.1965 163.927C92.6619 164.14 92.3381 164.652 92.3381 165.194C92.3381 165.365 92.3682 165.536 92.436 165.701C92.7171 166.402 93.5103 166.74 94.2106 166.462C94.911 166.181 95.2498 165.385 94.9712 164.688C94.6901 163.987 93.8943 163.646 93.1965 163.927Z" fill="white" fill-opacity="0.3"/>
<path d="M60.5851 119.276C60.3615 119.535 60.251 119.853 60.251 120.17C60.251 120.552 60.4092 120.933 60.7207 121.202C61.2909 121.697 62.1526 121.634 62.6474 121.066C63.1423 120.496 63.0795 119.635 62.5118 119.14C61.9416 118.646 61.0799 118.706 60.5851 119.276Z" fill="white" fill-opacity="0.3"/>
<path d="M68.7488 126.886C68.4676 127.153 68.3245 127.514 68.3245 127.876C68.3245 128.212 68.45 128.552 68.7036 128.818C68.7036 128.815 68.7036 128.815 68.7036 128.815C69.2233 129.36 70.0869 129.383 70.6317 128.863C71.1764 128.343 71.199 127.479 70.6794 126.932C70.1572 126.387 69.2936 126.364 68.7488 126.886Z" fill="white" fill-opacity="0.3"/>
<path d="M78.0694 135.461C77.6024 134.868 76.7461 134.765 76.1534 135.232C75.8119 135.501 75.6336 135.901 75.6336 136.305C75.6336 136.602 75.7291 136.898 75.9274 137.15C76.3945 137.74 77.2533 137.843 77.8434 137.378C78.436 136.911 78.539 136.051 78.0694 135.461Z" fill="white" fill-opacity="0.3"/>
<path d="M53.6473 112.155C53.0323 111.716 52.1813 111.859 51.742 112.474C51.5713 112.715 51.4885 112.992 51.4885 113.265C51.4885 113.69 51.6868 114.109 52.0608 114.378C52.6759 114.815 53.5268 114.672 53.9661 114.059C54.4029 113.444 54.2598 112.592 53.6473 112.155Z" fill="white" fill-opacity="0.3"/>
<path d="M24.5022 98.3943C24.7483 97.6836 24.3715 96.9052 23.6606 96.6591C22.9472 96.4105 22.1684 96.7897 21.9223 97.5003C21.872 97.6485 21.8469 97.7992 21.8469 97.9473C21.8469 98.5123 22.2011 99.0422 22.7663 99.2381C23.4772 99.4842 24.2535 99.1075 24.5022 98.3943Z" fill="white" fill-opacity="0.3"/>
<path d="M44.6551 107.908C45.0343 107.255 44.8108 106.419 44.158 106.043C43.5077 105.664 42.6691 105.89 42.295 106.54C42.1695 106.756 42.1092 106.989 42.1092 107.222C42.1092 107.694 42.3553 108.151 42.7922 108.405C43.4424 108.784 44.281 108.56 44.6551 107.908Z" fill="white" fill-opacity="0.3"/>
<path d="M32.3255 101.533C32.2427 101.716 32.2001 101.909 32.2001 102.1C32.2001 102.617 32.4961 103.112 32.9978 103.34C33.6827 103.654 34.493 103.353 34.8065 102.667C35.1201 101.982 34.8191 101.172 34.1342 100.858C33.4469 100.544 32.6391 100.845 32.3255 101.533Z" fill="white" fill-opacity="0.3"/>
<path d="M1.35718 94.0541C2.10351 94.1621 2.79455 93.6421 2.9026 92.8961C3.01066 92.15 2.4905 91.4593 1.74418 91.3512C0.997854 91.2457 0.30681 91.7657 0.198757 92.5092C0.188705 92.5745 0.186196 92.6399 0.186196 92.7052C0.186196 93.3733 0.676198 93.9586 1.35718 94.0541Z" fill="white" fill-opacity="0.3"/>
<path d="M12.8281 93.481C12.0952 93.3028 11.3572 93.7546 11.1815 94.4874C11.1564 94.5954 11.1413 94.7008 11.1413 94.8087C11.1413 95.4236 11.5605 95.9833 12.1855 96.1339C12.916 96.3121 13.6564 95.8603 13.8321 95.1274C14.0129 94.3946 13.561 93.6567 12.8281 93.481Z" fill="white" fill-opacity="0.3"/>
<path d="M57.1347 136.522C56.8585 136.788 56.7229 137.145 56.7229 137.501C56.7204 137.843 56.8485 138.187 57.1096 138.453C57.6344 138.993 58.5007 139.005 59.0406 138.478C59.5805 137.953 59.593 137.087 59.0657 136.547C58.5409 136.007 57.6771 135.997 57.1347 136.522Z" fill="white" fill-opacity="0.3"/>
<path d="M73.0733 154.527C72.6765 153.885 71.8378 153.684 71.195 154.081C70.7756 154.337 70.5446 154.786 70.5446 155.245C70.5446 155.488 70.6099 155.737 70.748 155.958C71.1422 156.6 71.9835 156.801 72.6263 156.404C73.2666 156.008 73.4675 155.167 73.0733 154.527Z" fill="white" fill-opacity="0.3"/>
<path d="M48.7525 129.004C48.5415 129.257 48.441 129.567 48.441 129.873C48.441 130.268 48.6118 130.657 48.9358 130.926C49.5185 131.406 50.3801 131.323 50.8598 130.743C51.3395 130.162 51.2566 129.298 50.6739 128.818C50.0937 128.34 49.2322 128.423 48.7525 129.004Z" fill="white" fill-opacity="0.3"/>
<path d="M41.4897 122.054C40.8569 121.64 40.0106 121.818 39.5988 122.448C39.4456 122.68 39.3753 122.941 39.3753 123.194C39.3753 123.639 39.5937 124.076 39.993 124.337C40.6233 124.751 41.4696 124.575 41.884 123.943C42.2958 123.315 42.1175 122.469 41.4897 122.054Z" fill="white" fill-opacity="0.3"/>
<path d="M-0.920999 106.163C-1.66645 106.06 -2.35668 106.583 -2.45958 107.329C-2.46711 107.395 -2.47213 107.455 -2.47213 107.518C-2.47213 108.189 -1.97767 108.775 -1.29246 108.868C-0.547016 108.971 0.143214 108.448 0.246121 107.701C0.346518 106.955 -0.175552 106.266 -0.920999 106.163Z" fill="white" fill-opacity="0.3"/>
<path d="M76.6959 163.907C76.2038 164.141 75.9151 164.631 75.9151 165.143C75.9151 165.34 75.9578 165.538 76.0457 165.724C76.367 166.407 77.1829 166.699 77.8633 166.375C78.5461 166.053 78.8373 165.239 78.5135 164.555C78.1896 163.88 77.3762 163.586 76.6959 163.907Z" fill="white" fill-opacity="0.3"/>
<path d="M9.61186 110.988C10.3423 111.174 11.0828 110.73 11.2685 109.999C11.4543 109.271 11.01 108.528 10.2795 108.342C9.5491 108.157 8.8061 108.601 8.62286 109.331C8.59274 109.444 8.58018 109.555 8.58018 109.668C8.58018 110.275 8.99185 110.833 9.61186 110.988Z" fill="white" fill-opacity="0.3"/>
<path d="M32.2156 118.177C32.5572 117.504 32.2884 116.683 31.6177 116.342C30.9445 116 30.1231 116.269 29.7815 116.942C29.681 117.138 29.6333 117.349 29.6333 117.557C29.6333 118.054 29.9071 118.534 30.3793 118.775C31.0525 119.117 31.8739 118.851 32.2156 118.177Z" fill="white" fill-opacity="0.3"/>
<path d="M19.4123 112.547C19.3546 112.705 19.327 112.866 19.327 113.024C19.327 113.579 19.6633 114.099 20.2129 114.302C20.9182 114.568 21.7063 114.209 21.9698 113.504C22.2358 112.798 21.8769 112.012 21.1717 111.746C20.4639 111.482 19.6759 111.841 19.4123 112.547Z" fill="white" fill-opacity="0.3"/>
<path d="M66.5633 145.153C66.1015 144.559 65.2431 144.451 64.6483 144.915C64.3045 145.184 64.1213 145.585 64.1213 145.992C64.1213 146.285 64.2141 146.582 64.4099 146.83C64.8717 147.425 65.7301 147.533 66.3249 147.069C66.9197 146.602 67.0276 145.746 66.5633 145.153Z" fill="white" fill-opacity="0.3"/>
<path d="M47.4295 146.163C46.8944 145.63 46.0303 145.63 45.4977 146.163C45.2314 146.429 45.0983 146.779 45.0983 147.128C45.0983 147.478 45.2314 147.827 45.4977 148.094C46.0303 148.627 46.8944 148.627 47.4295 148.094C47.9621 147.563 47.9621 146.696 47.4295 146.163Z" fill="white" fill-opacity="0.3"/>
<path d="M36.8141 138.776C36.6233 139.025 36.5304 139.316 36.5304 139.607C36.5304 140.016 36.7136 140.42 37.0626 140.689C37.6602 141.148 38.5163 141.035 38.9783 140.44C39.4377 139.843 39.3247 138.987 38.7297 138.525C38.1297 138.063 37.2735 138.176 36.8141 138.776Z" fill="white" fill-opacity="0.3"/>
<path d="M6.10228 124.194C6.07216 124.312 6.0546 124.433 6.0546 124.548C6.0546 125.151 6.45624 125.703 7.06623 125.866C7.79421 126.059 8.54226 125.628 8.73806 124.9C8.93386 124.172 8.5021 123.423 7.77413 123.228C7.04364 123.034 6.29557 123.469 6.10228 124.194Z" fill="white" fill-opacity="0.3"/>
<path d="M55.0681 154.867C54.6085 154.27 53.7519 154.157 53.1516 154.616C52.8025 154.885 52.6191 155.291 52.6191 155.7C52.6191 155.991 52.7121 156.283 52.9004 156.531C53.3601 157.128 54.2191 157.241 54.817 156.782C55.4148 156.323 55.5253 155.464 55.0681 154.867Z" fill="white" fill-opacity="0.3"/>
<path d="M61.5083 164.496C61.1317 163.843 60.2981 163.619 59.6453 163.996C59.2084 164.25 58.9624 164.707 58.9624 165.179C58.9624 165.41 59.0226 165.646 59.1457 165.862C59.5248 166.513 60.3584 166.739 61.0112 166.36C61.664 165.983 61.8874 165.147 61.5083 164.496Z" fill="white" fill-opacity="0.3"/>
<path d="M29.1091 132.086C28.4589 131.707 27.6205 131.931 27.2465 132.583C27.121 132.796 27.0607 133.032 27.0607 133.266C27.0607 133.735 27.3067 134.194 27.7435 134.448C28.3936 134.827 29.2321 134.603 29.6061 133.951C29.9852 133.298 29.7642 132.463 29.1091 132.086Z" fill="white" fill-opacity="0.3"/>
<path d="M19.4758 128.742C19.7645 128.044 19.4331 127.246 18.7376 126.957C18.0421 126.666 17.2437 126.997 16.9549 127.695C16.8821 127.866 16.8495 128.044 16.8495 128.217C16.8495 128.752 17.1658 129.259 17.6931 129.478C18.3861 129.766 19.1845 129.437 19.4758 128.742Z" fill="white" fill-opacity="0.3"/>
<path d="M45.5575 167.362C45.1333 166.74 44.2848 166.581 43.6622 167.006C43.2731 167.269 43.0647 167.699 43.0647 168.136C43.0647 168.402 43.1426 168.668 43.3032 168.904C43.7275 169.527 44.5785 169.685 45.2011 169.261C45.8236 168.836 45.9818 167.987 45.5575 167.362Z" fill="white" fill-opacity="0.3"/>
<path d="M28.7387 151.52C28.5377 151.771 28.4397 152.073 28.4397 152.372C28.4397 152.771 28.6156 153.17 28.9523 153.439C29.5427 153.911 30.3996 153.813 30.872 153.225C31.3418 152.635 31.2463 151.779 30.6584 151.307C30.0679 150.835 29.2086 150.93 28.7387 151.52Z" fill="white" fill-opacity="0.3"/>
<path d="M36.3381 159.706C36.3381 160.037 36.4587 160.371 36.7023 160.635C37.2146 161.188 38.0786 161.22 38.6311 160.708C39.1862 160.196 39.2163 159.332 38.7039 158.777C38.1916 158.224 37.3276 158.194 36.7751 158.706C36.4863 158.975 36.3381 159.339 36.3381 159.706Z" fill="white" fill-opacity="0.3"/>
<path d="M19.7279 145.609C19.6024 145.823 19.5422 146.059 19.5422 146.292C19.5422 146.761 19.7857 147.221 20.2251 147.474C20.8754 147.853 21.714 147.63 22.0881 146.977C22.4672 146.327 22.2437 145.489 21.5909 145.115C20.9407 144.733 20.1046 144.954 19.7279 145.609Z" fill="white" fill-opacity="0.3"/>
<path d="M11.7068 140.339C11.0062 140.063 10.2127 140.407 9.93903 141.11C9.87374 141.273 9.84361 141.444 9.84361 141.61C9.84361 142.154 10.17 142.669 10.7099 142.88C11.413 143.156 12.204 142.809 12.4802 142.109C12.7539 141.406 12.4099 140.613 11.7068 140.339Z" fill="white" fill-opacity="0.3"/>
<path d="M-0.455772 138.431C-0.455772 139.054 -0.0265196 139.614 0.606071 139.76C1.34158 139.928 2.07208 139.466 2.24026 138.733C2.40845 137.997 1.94655 137.266 1.21355 137.098C0.478042 136.93 -0.252451 137.389 -0.42064 138.125C-0.445743 138.228 -0.455772 138.331 -0.455772 138.431Z" fill="white" fill-opacity="0.3"/>
<path d="M9.12941 155.58C8.44465 155.266 7.63448 155.568 7.32095 156.253C7.23817 156.437 7.19553 156.63 7.19553 156.821C7.19553 157.339 7.49151 157.833 7.99317 158.062C8.67793 158.376 9.48811 158.075 9.80164 157.391C10.1152 156.703 9.81668 155.894 9.12941 155.58Z" fill="white" fill-opacity="0.3"/>
<path d="M17.1653 163.37C17.7774 163.809 18.6303 163.666 19.0668 163.051C19.5058 162.436 19.3628 161.585 18.7482 161.149C18.1336 160.709 17.2832 160.852 16.8467 161.467C16.6761 161.708 16.5908 161.984 16.5908 162.258C16.5908 162.682 16.789 163.101 17.1653 163.37Z" fill="white" fill-opacity="0.3"/>
<circle cx="-14.9686" cy="208.587" r="149.995" transform="currentColor" fill="url(#paint0_linear_1449_3929)"/>
<ellipse cx="-14.9999" cy="209" rx="118" ry="118" transform="rotate(90 -14.9999 209)" fill="#011530"/>
<defs>
<linearGradient id="paint0_linear_1449_3929" x1="-180.906" y1="208.587" x2="129.363" y2="208.587" gradientUnits="userSpaceOnUse">
<stop stop-color="#A2E62E"/>
<stop offset="0.7542" stop-color="#09A76D"/>
<stop offset="1" stop-color="#017B4E"/>
</linearGradient>
</defs>
</svg>
