<svg width="130" height="337" viewBox="0 0 130 337" fill="none" xmlns="http://www.w3.org/2000/svg">
<path d="M105.436 83.3379C105.605 83.3379 105.775 83.2935 105.932 83.1994C106.388 82.9258 106.539 82.3325 106.264 81.8742C105.99 81.4158 105.397 81.2666 104.939 81.542C104.48 81.8155 104.331 82.4089 104.606 82.8672C104.788 83.1692 105.107 83.3379 105.436 83.3379Z" fill="white" fill-opacity="0.3"/>
<path d="M110.369 244.849C109.897 244.6 109.314 244.782 109.065 245.254C108.817 245.727 108.998 246.311 109.47 246.56C109.614 246.634 109.769 246.67 109.92 246.67C110.266 246.67 110.602 246.482 110.776 246.155C111.023 245.682 110.842 245.096 110.369 244.849Z" fill="white" fill-opacity="0.3"/>
<path d="M100.631 75.7722C100.815 75.7722 101.004 75.7189 101.169 75.6088C101.611 75.3103 101.728 74.7099 101.432 74.2675C101.133 73.8252 100.533 73.708 100.091 74.0046C99.6499 74.3031 99.5309 74.9035 99.8294 75.3458C100.014 75.6247 100.32 75.7722 100.631 75.7722Z" fill="white" fill-opacity="0.3"/>
<path d="M95.4238 68.4745C95.6263 68.4745 95.8306 68.4105 96.0047 68.2808C96.4311 67.9593 96.5145 67.3536 96.193 66.929C95.8733 66.5026 95.2675 66.4191 94.8412 66.7407C94.4148 67.0604 94.3313 67.6662 94.6529 68.0925C94.8429 68.3412 95.1325 68.4745 95.4238 68.4745Z" fill="white" fill-opacity="0.3"/>
<path d="M113.79 99.1764C113.925 99.1764 114.064 99.148 114.195 99.0876C114.68 98.8637 114.89 98.29 114.668 97.805C114.444 97.32 113.87 97.1086 113.387 97.3325C112.902 97.5563 112.692 98.1301 112.914 98.6133C113.076 98.9668 113.426 99.1764 113.79 99.1764Z" fill="white" fill-opacity="0.3"/>
<path d="M109.827 91.1452C109.978 91.1452 110.133 91.1097 110.277 91.0333C110.749 90.7846 110.929 90.2019 110.682 89.7294C110.431 89.2569 109.849 89.0774 109.376 89.3244C108.904 89.5748 108.724 90.1575 108.971 90.63C109.145 90.9587 109.481 91.1452 109.827 91.1452Z" fill="white" fill-opacity="0.3"/>
<path d="M83.8789 54.7585C84.1169 54.7585 84.3532 54.6715 84.5397 54.4974C84.9287 54.1332 84.9483 53.5222 84.5841 53.1313C84.2199 52.7423 83.6088 52.7228 83.2198 53.0869C82.8308 53.4529 82.8094 54.064 83.1754 54.453C83.3637 54.6573 83.6213 54.7585 83.8789 54.7585Z" fill="white" fill-opacity="0.3"/>
<path d="M130 167.75C129.998 167.216 129.565 166.786 129.034 166.786C128.499 166.787 128.067 167.221 128.069 167.752C128.069 167.8 128.073 167.846 128.078 167.891C128.073 167.937 128.069 167.981 128.069 168.029C128.069 168.564 128.501 168.996 129.035 168.996C129.57 168.996 130 168.564 130 168.031C130 167.983 129.996 167.937 129.991 167.891C129.996 167.844 130 167.798 130 167.75Z" fill="white" fill-opacity="0.3"/>
<path d="M70.4076 293.857C70.0026 294.205 69.96 294.816 70.3064 295.22C70.4982 295.44 70.7665 295.554 71.0383 295.554C71.2621 295.554 71.4859 295.477 71.6689 295.319C72.0721 294.971 72.1166 294.362 71.7702 293.957C71.4202 293.553 70.8109 293.509 70.4076 293.857Z" fill="white" fill-opacity="0.3"/>
<path d="M33.2027 318.13C32.7213 318.359 32.5152 318.935 32.7444 319.416C32.9096 319.764 33.256 319.969 33.6184 319.969C33.757 319.969 33.8991 319.939 34.0323 319.875C34.5137 319.645 34.7198 319.07 34.4906 318.587C34.2615 318.105 33.6859 317.901 33.2027 318.13Z" fill="white" fill-opacity="0.3"/>
<path d="M89.8348 61.4646C90.0533 61.4646 90.2754 61.3899 90.4566 61.2372C90.8652 60.8943 90.9167 60.285 90.5738 59.8764C90.231 59.4678 89.6217 59.4163 89.2131 59.7592C88.8045 60.102 88.753 60.7131 89.0958 61.1199C89.2877 61.3473 89.5613 61.4646 89.8348 61.4646Z" fill="white" fill-opacity="0.3"/>
<path d="M25.064 321.735C24.5702 321.937 24.3357 322.502 24.5382 322.996C24.691 323.369 25.0516 323.595 25.43 323.595C25.5526 323.595 25.6769 323.571 25.7977 323.522C26.2916 323.319 26.526 322.754 26.3235 322.262C26.1228 321.767 25.5561 321.53 25.064 321.735Z" fill="white" fill-opacity="0.3"/>
<path d="M83.2665 281.507C82.9023 281.896 82.9237 282.507 83.3127 282.871C83.4992 283.047 83.7355 283.133 83.9718 283.133C84.2293 283.133 84.4869 283.031 84.6788 282.827C85.0429 282.438 85.0216 281.827 84.6326 281.463C84.2418 281.097 83.6307 281.116 83.2665 281.507Z" fill="white" fill-opacity="0.3"/>
<path d="M127.819 158.836C127.847 159.351 128.274 159.749 128.782 159.749C128.799 159.749 128.817 159.749 128.835 159.747C129.368 159.719 129.777 159.262 129.746 158.731C129.718 158.198 129.261 157.79 128.73 157.82C128.199 157.848 127.79 158.303 127.819 158.836Z" fill="white" fill-opacity="0.3"/>
<path d="M63.5052 299.497C63.0824 299.824 63.006 300.43 63.3311 300.853C63.5212 301.098 63.8072 301.228 64.095 301.228C64.3011 301.228 64.5107 301.162 64.6848 301.027C65.1076 300.7 65.1839 300.092 64.8588 299.671C64.5338 299.25 63.928 299.172 63.5052 299.497Z" fill="white" fill-opacity="0.3"/>
<path d="M89.1868 274.833C88.8439 275.242 88.8955 275.851 89.304 276.196C89.487 276.347 89.7073 276.422 89.924 276.422C90.1994 276.422 90.4729 276.304 90.6648 276.077C91.0076 275.668 90.9543 275.061 90.5458 274.716C90.139 274.372 89.5314 274.425 89.1868 274.833Z" fill="white" fill-opacity="0.3"/>
<path d="M96.0954 267.662C95.6691 267.34 95.0633 267.425 94.7436 267.852C94.422 268.278 94.5073 268.884 94.9336 269.204C95.1077 269.335 95.312 269.399 95.5128 269.399C95.8059 269.399 96.0972 269.266 96.2855 269.014C96.607 268.587 96.5218 267.981 96.0954 267.662Z" fill="white" fill-opacity="0.3"/>
<path d="M16.7276 324.9C16.2249 325.076 15.9584 325.627 16.1343 326.131C16.2728 326.529 16.6477 326.778 17.0456 326.778C17.1522 326.778 17.2587 326.762 17.3635 326.725C17.8681 326.549 18.1327 325.998 17.9569 325.493C17.781 324.991 17.2303 324.724 16.7276 324.9Z" fill="white" fill-opacity="0.3"/>
<path d="M106.022 252.706C105.564 252.432 104.971 252.582 104.697 253.04C104.424 253.498 104.573 254.092 105.031 254.365C105.188 254.458 105.356 254.502 105.525 254.502C105.855 254.502 106.175 254.333 106.356 254.031C106.63 253.573 106.481 252.98 106.022 252.706Z" fill="white" fill-opacity="0.3"/>
<path d="M101.257 260.316C100.815 260.02 100.214 260.137 99.9178 260.579C99.6193 261.022 99.7384 261.622 100.181 261.919C100.346 262.031 100.534 262.082 100.719 262.082C101.032 262.082 101.335 261.933 101.522 261.656C101.817 261.215 101.7 260.615 101.257 260.316Z" fill="white" fill-opacity="0.3"/>
<path d="M127.096 149.949C127.149 150.444 127.568 150.81 128.055 150.81C128.089 150.81 128.126 150.808 128.16 150.805C128.691 150.746 129.073 150.27 129.016 149.741C128.958 149.21 128.482 148.828 127.952 148.885C127.421 148.943 127.039 149.419 127.096 149.949Z" fill="white" fill-opacity="0.3"/>
<path d="M16.4737 11.0728C16.5785 11.1083 16.6869 11.1261 16.7917 11.1261C17.1914 11.1261 17.5662 10.8756 17.703 10.4759C17.8789 9.97316 17.6124 9.42246 17.1079 9.2466C16.6052 9.07073 16.0545 9.33897 15.8786 9.84348C15.7028 10.3462 15.9692 10.8969 16.4737 11.0728Z" fill="white" fill-opacity="0.3"/>
<path d="M125.898 141.113C125.975 141.585 126.385 141.923 126.852 141.923C126.904 141.923 126.955 141.919 127.008 141.91C127.534 141.825 127.891 141.328 127.806 140.802C127.721 140.274 127.223 139.917 126.698 140.002C126.17 140.091 125.813 140.587 125.898 141.113Z" fill="white" fill-opacity="0.3"/>
<path d="M77.0018 287.855C76.6163 288.222 76.6039 288.833 76.9734 289.219C77.1617 289.416 77.4157 289.516 77.6698 289.516C77.9096 289.516 78.1512 289.427 78.3395 289.247C78.7232 288.88 78.7356 288.267 78.3679 287.883C77.9984 287.498 77.3873 287.485 77.0018 287.855Z" fill="white" fill-opacity="0.3"/>
<path d="M41.1399 314.09C40.6709 314.346 40.4968 314.933 40.7526 315.401C40.9285 315.723 41.2589 315.906 41.6018 315.906C41.7563 315.906 41.9144 315.867 42.0619 315.787C42.5308 315.533 42.7049 314.947 42.4491 314.478C42.1951 314.011 41.6089 313.836 41.1399 314.09Z" fill="white" fill-opacity="0.3"/>
<path d="M117.316 107.405C117.435 107.405 117.554 107.384 117.671 107.336C118.167 107.14 118.41 106.579 118.213 106.081C118.016 105.586 117.455 105.342 116.959 105.541C116.462 105.739 116.22 106.298 116.417 106.796C116.568 107.174 116.932 107.405 117.316 107.405Z" fill="white" fill-opacity="0.3"/>
<path d="M63.3875 36.4739C63.5634 36.6089 63.7712 36.6747 63.9773 36.6747C64.2651 36.6747 64.5511 36.545 64.7412 36.2998C65.068 35.8771 64.9899 35.2713 64.5671 34.9444C64.1443 34.6176 63.5385 34.6957 63.2117 35.1185C62.8883 35.5413 62.9647 36.1471 63.3875 36.4739Z" fill="white" fill-opacity="0.3"/>
<path d="M40.9668 21.8769C41.1124 21.955 41.2705 21.9923 41.4269 21.9923C41.7697 21.9923 42.1019 21.8094 42.276 21.4861C42.53 21.0189 42.3559 20.4326 41.887 20.1786C41.418 19.9228 40.8318 20.0987 40.5777 20.5677C40.3255 21.0366 40.4978 21.6229 40.9668 21.8769Z" fill="white" fill-opacity="0.3"/>
<path d="M128.189 184.976C127.658 184.919 127.183 185.305 127.127 185.834C127.07 186.365 127.453 186.842 127.985 186.898C128.018 186.902 128.054 186.904 128.088 186.904C128.574 186.904 128.992 186.536 129.047 186.04C129.104 185.507 128.718 185.031 128.189 184.976Z" fill="white" fill-opacity="0.3"/>
<path d="M120.791 220.018C120.284 219.847 119.737 220.121 119.57 220.627C119.4 221.134 119.673 221.681 120.18 221.849C120.281 221.883 120.384 221.899 120.485 221.899C120.89 221.899 121.267 221.643 121.402 221.238C121.571 220.732 121.297 220.185 120.791 220.018Z" fill="white" fill-opacity="0.3"/>
<path d="M120.396 115.829C120.499 115.829 120.602 115.813 120.704 115.779C121.21 115.609 121.482 115.061 121.313 114.557C121.143 114.051 120.595 113.779 120.091 113.949C119.585 114.118 119.313 114.665 119.482 115.172C119.617 115.575 119.993 115.829 120.396 115.829Z" fill="white" fill-opacity="0.3"/>
<path d="M56.1801 31.2103C56.3471 31.3258 56.5389 31.3808 56.7272 31.3808C57.0328 31.3808 57.3365 31.2352 57.5213 30.9634C57.825 30.5246 57.7149 29.9224 57.2761 29.6204C56.8373 29.3166 56.2351 29.4268 55.9331 29.8656C55.6312 30.3061 55.7431 30.9083 56.1801 31.2103Z" fill="white" fill-opacity="0.3"/>
<path d="M56.31 304.761C55.8712 305.065 55.7611 305.665 56.0649 306.104C56.2532 306.374 56.5552 306.521 56.8607 306.521C57.049 306.521 57.2409 306.464 57.4078 306.349C57.8466 306.045 57.9568 305.445 57.653 305.006C57.351 304.569 56.7488 304.457 56.31 304.761Z" fill="white" fill-opacity="0.3"/>
<path d="M48.8499 309.63C48.3951 309.911 48.253 310.504 48.5337 310.959C48.7167 311.255 49.0329 311.419 49.358 311.419C49.5303 311.419 49.7044 311.373 49.8625 311.277C50.3172 310.996 50.4594 310.403 50.1787 309.948C49.8998 309.491 49.3047 309.351 48.8499 309.63Z" fill="white" fill-opacity="0.3"/>
<path d="M117.766 228.481C117.269 228.285 116.708 228.527 116.512 229.024C116.317 229.52 116.56 230.081 117.056 230.277C117.173 230.323 117.294 230.344 117.411 230.344C117.797 230.344 118.161 230.113 118.31 229.733C118.312 229.733 118.312 229.733 118.312 229.733C118.507 229.238 118.262 228.678 117.766 228.481Z" fill="white" fill-opacity="0.3"/>
<path d="M48.7023 26.3396C48.8604 26.4355 49.0345 26.4835 49.2051 26.4835C49.5302 26.4835 49.8481 26.32 50.0293 26.0216C50.3082 25.5668 50.1661 24.9735 49.7114 24.6946C49.2566 24.4139 48.6633 24.5578 48.3826 25.0126C48.1037 25.4673 48.2476 26.0607 48.7023 26.3396Z" fill="white" fill-opacity="0.3"/>
<path d="M7.97369 8.37443C8.06251 8.40107 8.15311 8.41351 8.24193 8.41351C8.66117 8.41351 9.04843 8.13816 9.16923 7.7136C9.31667 7.20198 9.02179 6.66728 8.5084 6.51806C7.99679 6.37062 7.46208 6.66728 7.31286 7.17889C7.16542 7.69406 7.46208 8.22698 7.97369 8.37443Z" fill="white" fill-opacity="0.3"/>
<path d="M125.436 202.696C124.914 202.582 124.402 202.914 124.289 203.435C124.175 203.955 124.505 204.469 125.028 204.582C125.097 204.598 125.166 204.604 125.234 204.604C125.68 204.604 126.079 204.295 126.177 203.843C126.289 203.323 125.957 202.808 125.436 202.696Z" fill="white" fill-opacity="0.3"/>
<path d="M-0.397448 329.858C-0.917941 329.979 -1.24125 330.498 -1.12045 331.017C-1.01742 331.462 -0.619501 331.764 -0.180723 331.764C-0.107889 331.764 -0.0350522 331.756 0.0395578 331.74C0.560051 331.619 0.883357 331.1 0.76256 330.581C0.641763 330.061 0.123046 329.738 -0.397448 329.858Z" fill="white" fill-opacity="0.3"/>
<path d="M127.051 193.873C126.526 193.787 126.03 194.146 125.945 194.672C125.859 195.198 126.218 195.695 126.744 195.779C126.797 195.788 126.849 195.791 126.9 195.791C127.366 195.791 127.774 195.454 127.853 194.979C127.934 194.454 127.577 193.958 127.051 193.873Z" fill="white" fill-opacity="0.3"/>
<path d="M76.904 48.1111C77.0906 48.2905 77.3322 48.3794 77.572 48.3794C77.826 48.3794 78.08 48.2799 78.2683 48.0809C78.6378 47.6954 78.6236 47.0843 78.2399 46.7166C77.8544 46.3471 77.2433 46.3596 76.8756 46.745C76.5043 47.1305 76.5168 47.7434 76.904 48.1111Z" fill="white" fill-opacity="0.3"/>
<path d="M24.8316 14.2312C24.9523 14.2792 25.0749 14.3023 25.1975 14.3023C25.5777 14.3023 25.9383 14.0767 26.091 13.7019C26.2936 13.208 26.0573 12.6431 25.5634 12.4424C25.0696 12.2399 24.5047 12.4761 24.304 12.97C24.1014 13.4638 24.3395 14.0287 24.8316 14.2312Z" fill="white" fill-opacity="0.3"/>
<path d="M123.017 124.407C123.102 124.407 123.187 124.397 123.274 124.372C123.788 124.23 124.09 123.698 123.948 123.183C123.805 122.67 123.274 122.368 122.759 122.51C122.244 122.652 121.944 123.183 122.086 123.698C122.205 124.127 122.594 124.407 123.017 124.407Z" fill="white" fill-opacity="0.3"/>
<path d="M125.172 133.114C125.239 133.114 125.309 133.105 125.378 133.09C125.9 132.977 126.229 132.462 126.115 131.941C126.002 131.419 125.486 131.09 124.966 131.204C124.444 131.318 124.115 131.833 124.229 132.353C124.326 132.804 124.728 133.114 125.172 133.114Z" fill="white" fill-opacity="0.3"/>
<path d="M123.347 211.42C122.834 211.278 122.301 211.582 122.16 212.097C122.02 212.61 122.322 213.143 122.837 213.284C122.923 213.307 123.008 213.317 123.093 213.317C123.516 213.317 123.905 213.037 124.022 212.607C124.166 212.092 123.862 211.561 123.347 211.42Z" fill="white" fill-opacity="0.3"/>
<path d="M-0.66041 6.14308C-0.589353 6.15907 -0.514743 6.16795 -0.443686 6.16795C-0.00313139 6.16795 0.39301 5.86596 0.497819 5.4183C0.61684 4.89781 0.291754 4.37909 -0.228739 4.26007C-0.749233 4.13927 -1.26617 4.46436 -1.38697 4.98485C-1.50599 5.50535 -1.17913 6.02229 -0.66041 6.14308Z" fill="white" fill-opacity="0.3"/>
<path d="M33.005 17.8376C33.1383 17.9015 33.2804 17.9317 33.4172 17.9317C33.7778 17.9317 34.1259 17.7274 34.2912 17.3793C34.5203 16.8978 34.3143 16.3205 33.8328 16.0931C33.3497 15.864 32.7741 16.07 32.5449 16.5532C32.3176 17.0329 32.5236 17.6084 33.005 17.8376Z" fill="white" fill-opacity="0.3"/>
<path d="M8.23306 327.609C7.71967 327.758 7.42656 328.293 7.574 328.807C7.69657 329.229 8.08206 329.503 8.5013 329.503C8.59012 329.503 8.68072 329.49 8.76954 329.464C9.28115 329.316 9.57604 328.782 9.42859 328.268C9.27937 327.757 8.74467 327.462 8.23306 327.609Z" fill="white" fill-opacity="0.3"/>
<path d="M114.29 236.766C113.805 236.544 113.231 236.758 113.009 237.241C112.787 237.726 113 238.299 113.483 238.522C113.615 238.582 113.751 238.61 113.886 238.61C114.252 238.61 114.601 238.402 114.764 238.047C114.986 237.562 114.773 236.988 114.29 236.766Z" fill="white" fill-opacity="0.3"/>
<path d="M70.9322 42.3468C71.204 42.3468 71.4722 42.2331 71.6641 42.011C72.0123 41.606 71.9661 40.9967 71.5628 40.6485C71.1578 40.3003 70.5485 40.3448 70.2003 40.7498C69.8521 41.1548 69.8983 41.7641 70.3016 42.1123C70.4845 42.2686 70.7101 42.3468 70.9322 42.3468Z" fill="white" fill-opacity="0.3"/>
<path d="M128.849 176.032C128.316 176.003 127.862 176.412 127.833 176.945C127.805 177.478 128.213 177.933 128.746 177.961C128.762 177.963 128.78 177.963 128.798 177.963C129.308 177.963 129.734 177.565 129.762 177.048C129.791 176.513 129.382 176.06 128.849 176.032Z" fill="white" fill-opacity="0.3"/>
<path d="M39.1906 34.7668C39.3433 34.8556 39.5103 34.8983 39.6755 34.8983C40.0077 34.8983 40.3328 34.7259 40.5122 34.4168C40.7805 33.9567 40.6241 33.3634 40.1623 33.097C39.7022 32.8287 39.1088 32.985 38.8424 33.4469C38.5724 33.907 38.7305 34.4986 39.1906 34.7668Z" fill="white" fill-opacity="0.3"/>
<path d="M14.9319 23.3816C15.0402 23.4224 15.1522 23.4402 15.2623 23.4402C15.6567 23.4402 16.0262 23.1968 16.17 22.8078C16.353 22.3068 16.0954 21.7526 15.5945 21.5696C15.0935 21.3866 14.5393 21.6424 14.3563 22.1434C14.1733 22.6444 14.4309 23.1986 14.9319 23.3816Z" fill="white" fill-opacity="0.3"/>
<path d="M23.2333 26.7017C23.3595 26.755 23.4891 26.7816 23.6171 26.7816C23.9901 26.7816 24.3454 26.5631 24.5035 26.199C24.7167 25.7104 24.4911 25.142 24.0008 24.9288C23.5122 24.7156 22.9438 24.9395 22.7306 25.4298C22.5192 25.9201 22.743 26.4885 23.2333 26.7017Z" fill="white" fill-opacity="0.3"/>
<path d="M31.3281 30.5015C31.4667 30.5725 31.6159 30.6045 31.7633 30.6045C32.1169 30.6045 32.4562 30.4109 32.6249 30.0751C32.8647 29.599 32.6747 29.0164 32.1986 28.7766C31.7225 28.5367 31.1416 28.7268 30.9018 29.2029C30.6602 29.679 30.852 30.2599 31.3281 30.5015Z" fill="white" fill-opacity="0.3"/>
<path d="M6.43498 20.5499C6.52913 20.5784 6.62328 20.5908 6.71565 20.5908C7.13134 20.5908 7.51327 20.3208 7.6394 19.9033C7.79217 19.3917 7.50261 18.8535 6.99278 18.6989C6.48294 18.5461 5.94291 18.8339 5.79014 19.3455C5.63559 19.8571 5.92515 20.3954 6.43498 20.5499Z" fill="white" fill-opacity="0.3"/>
<path d="M104.389 107.837C104.517 107.837 104.645 107.812 104.769 107.758C105.259 107.549 105.487 106.98 105.275 106.49C105.064 106 104.497 105.772 104.007 105.984C103.517 106.195 103.289 106.762 103.501 107.254C103.659 107.62 104.016 107.837 104.389 107.837Z" fill="white" fill-opacity="0.3"/>
<path d="M114.476 140.418C113.95 140.509 113.597 141.01 113.687 141.534C113.769 142.004 114.177 142.335 114.638 142.335C114.693 142.335 114.748 142.331 114.804 142.321C115.33 142.23 115.682 141.729 115.591 141.203C115.501 140.679 115 140.327 114.476 140.418Z" fill="white" fill-opacity="0.3"/>
<path d="M112.841 133.504C112.914 133.504 112.986 133.495 113.061 133.479C113.582 133.357 113.903 132.838 113.781 132.318C113.66 131.799 113.139 131.476 112.621 131.598C112.1 131.721 111.778 132.24 111.901 132.76C112.006 133.204 112.402 133.504 112.841 133.504Z" fill="white" fill-opacity="0.3"/>
<path d="M114.962 150.4C115.017 150.892 115.435 151.256 115.921 151.256C115.957 151.256 115.994 151.252 116.03 151.249C116.559 151.189 116.941 150.709 116.881 150.18C116.82 149.65 116.341 149.268 115.811 149.33C115.282 149.391 114.9 149.87 114.962 150.4Z" fill="white" fill-opacity="0.3"/>
<path d="M116.926 167.313C116.391 167.311 115.96 167.743 115.96 168.276C115.958 168.811 116.39 169.242 116.924 169.242H116.926C117.459 169.244 117.891 168.813 117.892 168.28C117.891 167.747 117.461 167.313 116.926 167.313Z" fill="white" fill-opacity="0.3"/>
<path d="M116.71 176.323C116.177 176.291 115.721 176.698 115.689 177.231C115.657 177.764 116.063 178.221 116.596 178.252C116.616 178.254 116.636 178.254 116.655 178.254C117.161 178.254 117.588 177.858 117.618 177.345C117.648 176.812 117.241 176.355 116.71 176.323Z" fill="white" fill-opacity="0.3"/>
<path d="M116.68 160.236C116.698 160.236 116.716 160.236 116.734 160.234C117.267 160.206 117.675 159.749 117.645 159.216C117.615 158.683 117.16 158.277 116.627 158.305C116.094 158.335 115.685 158.79 115.716 159.323C115.746 159.838 116.172 160.236 116.68 160.236Z" fill="white" fill-opacity="0.3"/>
<path d="M100.584 99.6544C100.73 99.6544 100.877 99.6206 101.016 99.5513C101.494 99.3133 101.685 98.7324 101.446 98.2563C101.208 97.7785 100.627 97.5866 100.151 97.8264C99.6728 98.0645 99.4809 98.6454 99.7207 99.1215C99.8895 99.459 100.231 99.6544 100.584 99.6544Z" fill="white" fill-opacity="0.3"/>
<path d="M46.7956 39.4832C46.959 39.5916 47.1437 39.6431 47.3267 39.6431C47.6394 39.6431 47.9467 39.4921 48.1332 39.2097C48.4263 38.7656 48.3055 38.1669 47.8596 37.872C47.4155 37.5789 46.8169 37.6997 46.522 38.1456C46.2289 38.5897 46.3497 39.1901 46.7956 39.4832Z" fill="white" fill-opacity="0.3"/>
<path d="M54.1161 44.6346C54.2884 44.7643 54.4927 44.8282 54.6935 44.8282C54.9866 44.8282 55.2779 44.695 55.468 44.441C55.786 44.0129 55.6989 43.4089 55.2726 43.0891C54.8462 42.7711 54.2405 42.8582 53.9207 43.2845C53.601 43.7109 53.688 44.3166 54.1161 44.6346Z" fill="white" fill-opacity="0.3"/>
<path d="M61.7475 50.4314C62.0228 50.4314 62.2964 50.316 62.4865 50.0886C62.8294 49.6818 62.7778 49.0725 62.371 48.7278C61.9625 48.385 61.3531 48.4365 61.0085 48.8433C60.6657 49.2519 60.7172 49.8594 61.1258 50.2058C61.3087 50.3568 61.529 50.4314 61.7475 50.4314Z" fill="white" fill-opacity="0.3"/>
<path d="M68.4691 56.4356C68.7249 56.4356 68.9807 56.3343 69.169 56.1336C69.5367 55.7463 69.519 55.1352 69.1317 54.7675C68.7444 54.3998 68.1333 54.4176 67.7674 54.8048C67.3997 55.1921 67.4175 55.8032 67.8047 56.1709C67.9912 56.3468 68.2311 56.4356 68.4691 56.4356Z" fill="white" fill-opacity="0.3"/>
<path d="M74.8346 62.8183C75.0726 62.8183 75.3107 62.7313 75.4972 62.5554C75.8845 62.1895 75.904 61.5784 75.5381 61.1893C75.1721 60.8021 74.561 60.7825 74.172 61.1485C73.7847 61.5144 73.7652 62.1255 74.1311 62.5145C74.3212 62.7153 74.577 62.8183 74.8346 62.8183Z" fill="white" fill-opacity="0.3"/>
<path d="M95.8252 89.9054C95.3633 90.1718 95.2035 90.7616 95.4699 91.2235C95.6493 91.5343 95.9727 91.7084 96.3066 91.7084C96.4701 91.7084 96.637 91.6676 96.788 91.5788C97.2499 91.3123 97.4098 90.7225 97.1433 90.2606C96.8769 89.7988 96.2871 89.6389 95.8252 89.9054Z" fill="white" fill-opacity="0.3"/>
<path d="M86.4083 76.6373C86.6091 76.6373 86.8098 76.5752 86.9839 76.4473C87.412 76.1293 87.5008 75.5235 87.1828 75.0972C86.8649 74.6673 86.2591 74.5802 85.831 74.8982C85.4029 75.2162 85.3158 75.8219 85.632 76.2483C85.8221 76.5023 86.1134 76.6373 86.4083 76.6373Z" fill="white" fill-opacity="0.3"/>
<path d="M90.7674 83.5919C90.9521 83.8744 91.2612 84.0271 91.5757 84.0271C91.7586 84.0271 91.9416 83.9756 92.105 83.869C92.5527 83.5759 92.6753 82.9773 92.3822 82.5314C92.0891 82.0855 91.4904 81.9612 91.0445 82.256C90.6004 82.5492 90.4761 83.1478 90.7674 83.5919Z" fill="white" fill-opacity="0.3"/>
<path d="M80.8216 69.5582C81.0401 69.5582 81.2604 69.4854 81.4416 69.3326C81.8502 68.9898 81.9034 68.3804 81.5624 67.9719C81.2195 67.5615 80.612 67.5082 80.2016 67.8511C79.793 68.1939 79.7398 68.8015 80.0808 69.2118C80.2709 69.441 80.5445 69.5582 80.8216 69.5582Z" fill="white" fill-opacity="0.3"/>
<path d="M60.8384 286.1C60.4281 286.442 60.3766 287.052 60.7176 287.46C60.9095 287.688 61.1831 287.805 61.4584 287.805C61.6787 287.805 61.8972 287.732 62.0784 287.579C62.487 287.236 62.5403 286.627 62.1992 286.219C61.8563 285.81 61.247 285.757 60.8384 286.1Z" fill="white" fill-opacity="0.3"/>
<path d="M53.8071 291.656C53.3772 291.974 53.2902 292.58 53.6082 293.006C53.7965 293.262 54.0878 293.397 54.3827 293.397C54.5834 293.397 54.7859 293.335 54.9583 293.205C55.3864 292.887 55.4752 292.281 55.1572 291.855C54.8392 291.427 54.2353 291.338 53.8071 291.656Z" fill="white" fill-opacity="0.3"/>
<path d="M79.8377 267.136C79.4949 267.545 79.5464 268.154 79.9532 268.499C80.1361 268.65 80.3564 268.724 80.5749 268.724C80.8503 268.724 81.1221 268.607 81.3139 268.381C81.6568 267.973 81.6053 267.363 81.1967 267.021C80.7899 266.678 80.1806 266.729 79.8377 267.136Z" fill="white" fill-opacity="0.3"/>
<path d="M67.5337 280.149C67.1465 280.515 67.1287 281.126 67.4929 281.513C67.6829 281.714 67.9388 281.817 68.1946 281.817C68.4326 281.817 68.6706 281.73 68.8572 281.554C69.2462 281.188 69.264 280.577 68.898 280.188C68.5338 279.8 67.9228 279.783 67.5337 280.149Z" fill="white" fill-opacity="0.3"/>
<path d="M73.8732 273.819C73.5055 274.206 73.5232 274.817 73.9105 275.183C74.0988 275.359 74.3368 275.448 74.5749 275.448C74.8307 275.448 75.0865 275.347 75.2766 275.146C75.6443 274.759 75.6247 274.148 75.2375 273.78C74.8502 273.416 74.2391 273.432 73.8732 273.819Z" fill="white" fill-opacity="0.3"/>
<path d="M22.8109 309.543C22.3206 309.753 22.095 310.321 22.3064 310.811C22.4645 311.177 22.8198 311.396 23.1929 311.396C23.319 311.396 23.4487 311.369 23.573 311.316C24.0633 311.106 24.2889 310.538 24.0775 310.047C23.8679 309.559 23.3012 309.332 22.8109 309.543Z" fill="white" fill-opacity="0.3"/>
<path d="M30.9408 305.756C30.4629 305.994 30.2711 306.575 30.5109 307.052C30.6814 307.39 31.0207 307.585 31.3742 307.585C31.5199 307.585 31.6673 307.552 31.8077 307.482C32.2838 307.244 32.4774 306.663 32.2376 306.187C31.9977 305.71 31.4169 305.518 30.9408 305.756Z" fill="white" fill-opacity="0.3"/>
<path d="M46.4651 296.797C46.0192 297.09 45.8948 297.689 46.1879 298.135C46.3745 298.415 46.6818 298.57 46.9962 298.57C47.1792 298.57 47.3622 298.518 47.5256 298.412C47.9715 298.119 48.0958 297.52 47.801 297.074C47.5096 296.626 46.9092 296.502 46.4651 296.797Z" fill="white" fill-opacity="0.3"/>
<path d="M14.4684 312.847C13.9674 313.03 13.708 313.583 13.891 314.085C14.0331 314.478 14.4044 314.721 14.7988 314.721C14.9071 314.721 15.019 314.703 15.1292 314.663C15.6301 314.48 15.8895 313.927 15.7065 313.424C15.5253 312.925 14.9711 312.666 14.4684 312.847Z" fill="white" fill-opacity="0.3"/>
<path d="M5.96285 315.654C5.45302 315.805 5.16168 316.343 5.31268 316.855C5.4388 317.274 5.82251 317.546 6.2382 317.546C6.32879 317.546 6.42117 317.532 6.51354 317.505V317.507C7.02337 317.354 7.31471 316.816 7.16371 316.306C7.01272 315.792 6.47446 315.501 5.96285 315.654Z" fill="white" fill-opacity="0.3"/>
<path d="M38.8333 301.501C38.3714 301.769 38.2133 302.359 38.4798 302.819C38.6574 303.13 38.9825 303.304 39.3165 303.304C39.4799 303.304 39.6469 303.263 39.7979 303.174C40.2598 302.908 40.4179 302.318 40.1514 301.856C39.8867 301.394 39.2952 301.235 38.8333 301.501Z" fill="white" fill-opacity="0.3"/>
<path d="M86.7527 259.927C86.3246 259.608 85.7189 259.696 85.4009 260.123C85.0829 260.551 85.1699 261.157 85.5963 261.475C85.7704 261.604 85.9729 261.666 86.1736 261.666C86.4685 261.666 86.7581 261.533 86.9482 261.279C87.2679 260.853 87.1791 260.247 86.7527 259.927Z" fill="white" fill-opacity="0.3"/>
<path d="M100.385 238.727C100.738 238.729 101.079 238.534 101.248 238.198C101.488 237.722 101.296 237.141 100.82 236.901C100.344 236.66 99.7632 236.851 99.5233 237.327C99.2835 237.804 99.4736 238.384 99.9514 238.624C100.092 238.695 100.239 238.727 100.385 238.727Z" fill="white" fill-opacity="0.3"/>
<path d="M105.091 230C105.304 229.51 105.078 228.941 104.588 228.73C104.1 228.517 103.531 228.742 103.318 229.233C103.105 229.721 103.33 230.291 103.821 230.503C103.945 230.558 104.076 230.583 104.203 230.583C104.579 230.581 104.934 230.364 105.091 230Z" fill="white" fill-opacity="0.3"/>
<path d="M107.873 220.352C107.372 220.169 106.817 220.427 106.634 220.928C106.451 221.429 106.709 221.983 107.21 222.166C107.318 222.207 107.432 222.224 107.54 222.224C107.935 222.224 108.304 221.981 108.448 221.59C108.631 221.091 108.374 220.537 107.873 220.352Z" fill="white" fill-opacity="0.3"/>
<path d="M96.5838 244.844C96.1219 244.575 95.5304 244.733 95.2639 245.194C94.9957 245.654 95.1538 246.247 95.6139 246.513C95.7666 246.602 95.9318 246.643 96.0988 246.643C96.431 246.643 96.7561 246.471 96.9355 246.162C97.202 245.702 97.0439 245.11 96.5838 244.844Z" fill="white" fill-opacity="0.3"/>
<path d="M91.8862 252.529C91.4421 252.234 90.8435 252.356 90.5486 252.802C90.2537 253.246 90.3763 253.847 90.8222 254.14C90.9856 254.248 91.1703 254.301 91.3533 254.301C91.666 254.301 91.9733 254.149 92.1598 253.866C92.4547 253.42 92.3321 252.82 91.8862 252.529Z" fill="white" fill-opacity="0.3"/>
<path d="M107.382 114.36C106.881 114.543 106.622 115.095 106.803 115.596C106.945 115.989 107.317 116.234 107.713 116.234C107.821 116.234 107.933 116.216 108.041 116.175C108.542 115.994 108.802 115.44 108.621 114.939C108.438 114.436 107.883 114.177 107.382 114.36Z" fill="white" fill-opacity="0.3"/>
<path d="M113.668 204.229C113.79 203.711 113.471 203.19 112.952 203.066C112.433 202.943 111.911 203.263 111.788 203.783C111.664 204.302 111.986 204.823 112.504 204.945C112.579 204.963 112.655 204.974 112.728 204.974C113.165 204.972 113.561 204.673 113.668 204.229Z" fill="white" fill-opacity="0.3"/>
<path d="M110.665 211.784C110.155 211.632 109.615 211.921 109.462 212.431C109.309 212.941 109.599 213.481 110.109 213.634C110.201 213.662 110.295 213.675 110.387 213.675C110.803 213.675 111.187 213.405 111.311 212.985C111.466 212.475 111.174 211.939 110.665 211.784Z" fill="white" fill-opacity="0.3"/>
<path d="M116.823 186.378C116.885 185.849 116.505 185.367 115.976 185.307C115.446 185.245 114.967 185.625 114.904 186.154C114.842 186.683 115.222 187.165 115.752 187.225C115.791 187.229 115.828 187.232 115.865 187.232C116.349 187.231 116.766 186.868 116.823 186.378Z" fill="white" fill-opacity="0.3"/>
<path d="M114.722 194.23C114.197 194.135 113.696 194.487 113.603 195.011C113.509 195.537 113.859 196.038 114.385 196.13C114.442 196.141 114.499 196.146 114.555 196.146C115.015 196.146 115.422 195.816 115.504 195.349C115.598 194.823 115.246 194.322 114.722 194.23Z" fill="white" fill-opacity="0.3"/>
<path d="M111.454 123.553C111.303 123.041 110.765 122.75 110.253 122.901C109.744 123.052 109.452 123.59 109.603 124.102C109.728 124.521 110.111 124.791 110.527 124.791C110.618 124.791 110.71 124.779 110.802 124.75C111.318 124.601 111.609 124.064 111.454 123.553Z" fill="white" fill-opacity="0.3"/>
<path d="M72.9607 79.062C73.1739 79.062 73.3906 78.9909 73.5701 78.8471C73.984 78.5113 74.0479 77.902 73.7122 77.4881H73.7104C73.3746 77.0742 72.7671 77.0102 72.3532 77.346C71.9393 77.6817 71.8753 78.291 72.2111 78.7049C72.4029 78.9412 72.6801 79.062 72.9607 79.062Z" fill="white" fill-opacity="0.3"/>
<path d="M42.321 284.987C41.8822 285.291 41.7703 285.892 42.0723 286.33C42.2606 286.602 42.5626 286.748 42.8699 286.748C43.0582 286.748 43.2501 286.693 43.4171 286.577C43.8559 286.274 43.9678 285.673 43.6658 285.234C43.362 284.796 42.7598 284.685 42.321 284.987Z" fill="white" fill-opacity="0.3"/>
<path d="M34.7426 289.858C34.2842 290.132 34.135 290.725 34.4104 291.184C34.5916 291.486 34.9113 291.654 35.24 291.654C35.4087 291.654 35.5793 291.608 35.7356 291.516C36.1939 291.24 36.3431 290.647 36.0678 290.191C35.7924 289.732 35.1991 289.583 34.7426 289.858Z" fill="white" fill-opacity="0.3"/>
<path d="M49.5751 279.648C49.1558 279.978 49.083 280.584 49.4116 281.003C49.6017 281.246 49.8842 281.371 50.172 281.371C50.3798 281.371 50.5912 281.303 50.7671 281.165C51.1863 280.834 51.2591 280.228 50.9305 279.809C50.6019 279.392 49.9943 279.317 49.5751 279.648Z" fill="white" fill-opacity="0.3"/>
<path d="M31.1444 44.1196C31.2936 44.203 31.4571 44.2421 31.6152 44.2421C31.9545 44.2421 32.2831 44.0645 32.459 43.7483C32.7201 43.2811 32.5531 42.6949 32.0877 42.4337C31.6223 42.1726 31.0343 42.3396 30.7731 42.805C30.512 43.2704 30.679 43.8584 31.1444 44.1196Z" fill="white" fill-opacity="0.3"/>
<path d="M95.1787 116.333C94.6813 116.523 94.4291 117.081 94.6192 117.578C94.7666 117.964 95.1343 118.202 95.5234 118.202C95.637 118.202 95.7543 118.181 95.8662 118.138C96.3636 117.948 96.6141 117.39 96.424 116.891C96.2357 116.394 95.6779 116.145 95.1787 116.333Z" fill="white" fill-opacity="0.3"/>
<path d="M87.1487 101.184C87.3228 101.509 87.6568 101.693 88.0014 101.693C88.1542 101.693 88.3105 101.656 88.4562 101.58C88.9269 101.329 89.1046 100.743 88.8523 100.274C88.6019 99.8033 88.0156 99.6257 87.5467 99.8779C87.0741 100.128 86.8965 100.713 87.1487 101.184Z" fill="white" fill-opacity="0.3"/>
<path d="M46.2482 53.8778C46.4223 54.0039 46.623 54.0661 46.822 54.0661C47.1186 54.0661 47.41 53.9311 47.5983 53.6735C47.9163 53.2454 47.8257 52.6396 47.3975 52.3234C46.9676 52.0054 46.3636 52.0978 46.0474 52.5259C45.7295 52.9558 45.8201 53.5598 46.2482 53.8778Z" fill="white" fill-opacity="0.3"/>
<path d="M26.8673 294.239C26.3948 294.482 26.2083 295.065 26.4516 295.539C26.6222 295.872 26.9615 296.062 27.3114 296.062C27.4607 296.062 27.6116 296.028 27.7538 295.955C28.2263 295.712 28.4128 295.127 28.1695 294.655C27.9243 294.18 27.3416 293.994 26.8673 294.239Z" fill="white" fill-opacity="0.3"/>
<path d="M105.76 170.526C105.769 169.992 105.343 169.553 104.812 169.544C104.277 169.535 103.838 169.96 103.829 170.493C103.82 171.027 104.245 171.466 104.778 171.475C104.783 171.475 104.788 171.475 104.794 171.475C105.32 171.475 105.751 171.052 105.76 170.526Z" fill="white" fill-opacity="0.3"/>
<path d="M104.281 180.524C104.307 180.528 104.334 180.528 104.359 180.528C104.856 180.528 105.279 180.144 105.32 179.64C105.362 179.107 104.966 178.641 104.433 178.599C103.902 178.556 103.437 178.954 103.394 179.485C103.352 180.016 103.749 180.484 104.281 180.524Z" fill="white" fill-opacity="0.3"/>
<path d="M10.3573 301.455C9.85456 301.638 9.59697 302.19 9.77995 302.693C9.92206 303.086 10.2916 303.329 10.6877 303.329C10.7961 303.329 10.908 303.311 11.0163 303.27C11.5191 303.087 11.7784 302.535 11.5955 302.032C11.4125 301.531 10.8582 301.272 10.3573 301.455Z" fill="white" fill-opacity="0.3"/>
<path d="M18.7304 298.11C18.2419 298.323 18.0181 298.891 18.233 299.382C18.3911 299.744 18.7464 299.961 19.1195 299.961C19.2474 299.961 19.3788 299.934 19.505 299.879C19.9935 299.666 20.2173 299.096 20.0024 298.607C19.7874 298.12 19.219 297.897 18.7304 298.11Z" fill="white" fill-opacity="0.3"/>
<path d="M103.701 161.49C103.725 162.007 104.153 162.412 104.666 162.412C104.68 162.412 104.694 162.412 104.71 162.412C105.243 162.387 105.656 161.936 105.631 161.403C105.608 160.868 105.156 160.456 104.622 160.481C104.09 160.506 103.677 160.959 103.701 161.49Z" fill="white" fill-opacity="0.3"/>
<path d="M101.755 143.601C101.837 144.07 102.246 144.402 102.706 144.402C102.759 144.402 102.816 144.397 102.871 144.387C103.397 144.296 103.749 143.797 103.658 143.271C103.567 142.745 103.068 142.393 102.542 142.484C102.017 142.576 101.665 143.077 101.755 143.601Z" fill="white" fill-opacity="0.3"/>
<path d="M1.7999 304.253C1.28829 304.404 0.993405 304.938 1.1444 305.45C1.26698 305.873 1.65246 306.145 2.06992 306.145C2.15874 306.145 2.25111 306.132 2.34171 306.106C2.85332 305.956 3.14821 305.42 2.99899 304.908C2.84799 304.397 2.31151 304.104 1.7999 304.253Z" fill="white" fill-opacity="0.3"/>
<path d="M103.869 151.451C103.337 151.51 102.955 151.986 103.012 152.517C103.066 153.011 103.485 153.379 103.97 153.379C104.005 153.379 104.041 153.377 104.076 153.374C104.606 153.315 104.989 152.839 104.933 152.308C104.874 151.777 104.398 151.393 103.869 151.451Z" fill="white" fill-opacity="0.3"/>
<path d="M77.888 84.5283C77.4528 84.8392 77.3533 85.4414 77.6624 85.8766C77.8507 86.1413 78.1473 86.2816 78.4493 86.2816C78.643 86.2816 78.8384 86.223 79.0089 86.1022C79.4441 85.7931 79.5454 85.1909 79.2363 84.7557C78.9254 84.3222 78.3214 84.2192 77.888 84.5283Z" fill="white" fill-opacity="0.3"/>
<path d="M56.4767 273.861C56.0788 274.217 56.0433 274.828 56.3985 275.224C56.5904 275.437 56.8533 275.547 57.118 275.547C57.3472 275.547 57.5781 275.466 57.7628 275.302C58.1608 274.947 58.1945 274.336 57.8392 273.938C57.4839 273.54 56.8728 273.504 56.4767 273.861Z" fill="white" fill-opacity="0.3"/>
<path d="M100.648 133.622C100.13 133.748 99.8115 134.268 99.9341 134.787C100.041 135.229 100.437 135.526 100.872 135.526C100.947 135.526 101.023 135.517 101.098 135.499C101.616 135.375 101.936 134.854 101.812 134.336C101.687 133.817 101.167 133.497 100.648 133.622Z" fill="white" fill-opacity="0.3"/>
<path d="M23.1598 39.9787C23.293 40.0444 23.4352 40.0746 23.5773 40.0746C23.9379 40.0746 24.2843 39.8721 24.4495 39.5257C24.6804 39.046 24.4761 38.4687 23.9947 38.2378C23.5133 38.0068 22.936 38.2093 22.7068 38.6908C22.4759 39.1722 22.6784 39.7477 23.1598 39.9787Z" fill="white" fill-opacity="0.3"/>
<path d="M15.6547 34.5658C15.159 34.3651 14.5959 34.6067 14.397 35.1005C14.198 35.5962 14.4378 36.1593 14.9317 36.3583C15.0507 36.4062 15.1715 36.4293 15.2923 36.4293C15.6742 36.4293 16.0366 36.2002 16.1894 35.8236C16.3883 35.3279 16.1485 34.7648 15.6547 34.5658Z" fill="white" fill-opacity="0.3"/>
<path d="M76.1508 253.886C75.728 253.562 75.1223 253.644 74.7972 254.069C74.4739 254.491 74.5538 255.097 74.9784 255.422C75.1542 255.556 75.3603 255.621 75.5646 255.621C75.8542 255.621 76.1419 255.49 76.3338 255.241C76.6571 254.817 76.5754 254.211 76.1508 253.886Z" fill="white" fill-opacity="0.3"/>
<path d="M89.4847 232.488C89.6233 232.558 89.7707 232.59 89.9146 232.59C90.2699 232.59 90.6092 232.393 90.7797 232.053C91.0178 231.575 90.8224 230.996 90.3445 230.76C89.8667 230.522 89.2875 230.716 89.0495 231.193C88.8132 231.671 89.0069 232.252 89.4847 232.488Z" fill="white" fill-opacity="0.3"/>
<path d="M81.3702 246.482C80.9279 246.185 80.3274 246.304 80.0326 246.748C79.7359 247.19 79.8549 247.791 80.299 248.087C80.4624 248.198 80.649 248.251 80.8337 248.251C81.1464 248.251 81.4519 248.1 81.6385 247.821C81.9333 247.377 81.8143 246.776 81.3702 246.482Z" fill="white" fill-opacity="0.3"/>
<path d="M94.0647 222.507C93.5726 222.301 93.0059 222.532 92.7999 223.022C92.5938 223.514 92.823 224.081 93.315 224.287C93.4358 224.338 93.5637 224.363 93.6881 224.363C94.0647 224.363 94.4235 224.141 94.5781 223.772C94.7877 223.281 94.5568 222.715 94.0647 222.507Z" fill="white" fill-opacity="0.3"/>
<path d="M86.4594 240.081C86.7276 239.621 86.5695 239.03 86.1094 238.763C85.6476 238.495 85.056 238.653 84.7896 239.113C84.5213 239.573 84.6794 240.166 85.1395 240.433C85.2923 240.522 85.4593 240.563 85.6245 240.563C85.9549 240.563 86.28 240.39 86.4594 240.081Z" fill="white" fill-opacity="0.3"/>
<path d="M7.69979 32.6491C7.86677 32.1428 7.59142 31.5957 7.08514 31.4287C6.57886 31.2617 6.03172 31.5371 5.86473 32.0433C5.69597 32.5496 5.9731 33.0968 6.47938 33.2637C6.58064 33.2975 6.68189 33.3117 6.78137 33.3117C7.18817 33.3117 7.56655 33.0559 7.69979 32.6491Z" fill="white" fill-opacity="0.3"/>
<path d="M104.306 188.707C104.382 188.179 104.014 187.691 103.487 187.614C102.959 187.538 102.469 187.904 102.392 188.433C102.316 188.961 102.684 189.449 103.211 189.526C103.257 189.533 103.305 189.536 103.35 189.536C103.824 189.535 104.238 189.188 104.306 188.707Z" fill="white" fill-opacity="0.3"/>
<path d="M101.972 196.548C101.45 196.44 100.938 196.774 100.828 197.294C100.719 197.816 101.053 198.328 101.576 198.438C101.641 198.452 101.709 198.459 101.775 198.459C102.222 198.459 102.624 198.147 102.72 197.692C102.83 197.17 102.496 196.656 101.972 196.548Z" fill="white" fill-opacity="0.3"/>
<path d="M53.9346 59.6812C54.21 59.6812 54.4818 59.5657 54.6719 59.3383C55.0147 58.9315 54.9632 58.3222 54.5564 57.9776C54.1478 57.6347 53.5385 57.6863 53.1939 58.0931C52.851 58.5016 52.9025 59.111 53.3111 59.4556C53.4941 59.6066 53.7144 59.6812 53.9346 59.6812Z" fill="white" fill-opacity="0.3"/>
<path d="M100.562 206.558C100.704 206.043 100.404 205.512 99.889 205.37C99.3756 205.228 98.8427 205.528 98.7006 206.043C98.6988 206.043 98.6988 206.043 98.6988 206.043C98.5567 206.556 98.8569 207.089 99.3721 207.231C99.4574 207.255 99.5444 207.265 99.6297 207.265C100.056 207.265 100.445 206.984 100.562 206.558Z" fill="white" fill-opacity="0.3"/>
<path d="M99.4011 125.535C99.243 125.025 98.703 124.741 98.1931 124.897C97.6833 125.055 97.3991 125.595 97.5554 126.105C97.6833 126.521 98.0652 126.787 98.4791 126.787C98.5733 126.787 98.6692 126.773 98.7651 126.743C99.2732 126.585 99.5574 126.045 99.4011 125.535Z" fill="white" fill-opacity="0.3"/>
<path d="M97.2495 214.039C96.745 213.863 96.1943 214.129 96.0202 214.634C95.8443 215.136 96.1108 215.687 96.6153 215.863C96.7201 215.898 96.8284 215.916 96.9333 215.916C97.333 215.916 97.7078 215.666 97.8446 215.268C98.0187 214.763 97.7522 214.213 97.2495 214.039Z" fill="white" fill-opacity="0.3"/>
<path d="M70.4755 260.95C70.074 260.601 69.4629 260.643 69.113 261.046C68.763 261.45 68.8056 262.059 69.2089 262.409C69.3919 262.567 69.6175 262.645 69.8431 262.645C70.1131 262.645 70.3813 262.533 70.5732 262.313C70.9196 261.91 70.877 261.299 70.4755 260.95Z" fill="white" fill-opacity="0.3"/>
<path d="M67.0293 72.2048C67.2638 72.2048 67.4983 72.1213 67.6831 71.949C68.0756 71.5884 68.1005 70.9755 67.7399 70.5829C67.3793 70.1903 66.7664 70.1655 66.3738 70.5279C65.9812 70.8885 65.9564 71.5013 66.3188 71.8922C66.5088 72.1 66.77 72.2048 67.0293 72.2048Z" fill="white" fill-opacity="0.3"/>
<path d="M38.8496 48.7578C39.0113 48.8626 39.1925 48.9123 39.3719 48.9123C39.6899 48.9123 39.999 48.756 40.1837 48.47C40.4733 48.0223 40.3436 47.4237 39.8959 47.1341C39.4483 46.8464 38.8496 46.9743 38.5601 47.4219C38.2741 47.8696 38.402 48.47 38.8496 48.7578Z" fill="white" fill-opacity="0.3"/>
<path d="M60.6779 65.7354C60.932 65.7354 61.186 65.636 61.3761 65.437C61.7438 65.0515 61.7314 64.4404 61.3459 64.0727C60.9604 63.7032 60.3475 63.7174 59.9798 64.1029C59.6121 64.4884 59.6245 65.0995 60.01 65.4672C60.1983 65.6484 60.4381 65.7354 60.6779 65.7354Z" fill="white" fill-opacity="0.3"/>
<path d="M64.3714 269.008C64.7463 268.628 64.7409 268.017 64.3626 267.642C63.9824 267.267 63.3713 267.271 62.9965 267.651C62.6234 268.031 62.627 268.642 63.0054 269.017C63.1937 269.202 63.4388 269.294 63.684 269.294C63.9327 269.296 64.1831 269.2 64.3714 269.008Z" fill="white" fill-opacity="0.3"/>
<path d="M91.6257 107.982C91.1408 108.203 90.9258 108.776 91.1479 109.261C91.3095 109.617 91.6595 109.826 92.0272 109.826C92.1605 109.826 92.2972 109.798 92.4269 109.739C92.9119 109.517 93.1268 108.945 92.9048 108.458C92.6809 107.975 92.1089 107.76 91.6257 107.982Z" fill="white" fill-opacity="0.3"/>
<path d="M83.4695 93.8348C83.6436 93.8348 83.8195 93.7886 83.9776 93.6891C84.4323 93.4085 84.5709 92.8134 84.2902 92.3586C84.0095 91.9038 83.4144 91.7653 82.9597 92.0459C82.5067 92.3266 82.3681 92.9217 82.647 93.3765C82.83 93.6731 83.1462 93.8348 83.4695 93.8348Z" fill="white" fill-opacity="0.3"/>
<path d="M91.3876 149.361C91.9152 149.282 92.2794 148.789 92.1995 148.263C92.1213 147.735 91.6275 147.371 91.1016 147.451C90.574 147.531 90.2099 148.023 90.2898 148.549C90.3609 149.027 90.773 149.371 91.2438 149.371C91.2917 149.371 91.3397 149.369 91.3876 149.361Z" fill="white" fill-opacity="0.3"/>
<path d="M90.2699 193.299C90.3303 193.31 90.3907 193.315 90.4511 193.315C90.9059 193.315 91.3127 192.992 91.3997 192.528C91.4974 192.004 91.1528 191.499 90.6288 191.4C90.1047 191.302 89.6002 191.647 89.5025 192.171C89.4013 192.697 89.7459 193.201 90.2699 193.299Z" fill="white" fill-opacity="0.3"/>
<path d="M92.1833 156.214C91.6521 156.259 91.256 156.724 91.3004 157.255C91.3413 157.76 91.764 158.142 92.2614 158.142C92.2881 158.142 92.3147 158.14 92.3414 158.138C92.8725 158.094 93.2687 157.628 93.2243 157.097C93.1816 156.566 92.7144 156.171 92.1833 156.214Z" fill="white" fill-opacity="0.3"/>
<path d="M85.1008 209.128C85.0991 209.128 85.0991 209.128 85.1008 209.128C84.9303 209.635 85.2039 210.182 85.7101 210.351C85.8114 210.384 85.9144 210.4 86.0157 210.4C86.4207 210.4 86.7973 210.145 86.9323 209.739C87.1011 209.233 86.8275 208.686 86.3212 208.517C85.815 208.349 85.2696 208.62 85.1008 209.128Z" fill="white" fill-opacity="0.3"/>
<path d="M92.5834 173.861C92.0505 173.833 91.5975 174.243 91.5691 174.776C91.5425 175.311 91.951 175.764 92.4857 175.79C92.5017 175.792 92.5195 175.792 92.5355 175.792C93.0453 175.792 93.4717 175.393 93.5001 174.876C93.525 174.343 93.1146 173.888 92.5834 173.861Z" fill="white" fill-opacity="0.3"/>
<path d="M91.7249 166.009C91.7338 166.537 92.1637 166.962 92.6913 166.962C92.6966 166.962 92.7002 166.962 92.7055 166.962C93.2385 166.953 93.6648 166.514 93.6559 165.981C93.647 165.448 93.2083 165.022 92.6753 165.031C92.1442 165.038 91.7178 165.477 91.7249 166.009Z" fill="white" fill-opacity="0.3"/>
<path d="M89.8429 140.669C90.3651 140.555 90.692 140.038 90.5783 139.518C90.4646 138.995 89.9477 138.668 89.4272 138.782C88.9049 138.896 88.5781 139.413 88.6918 139.933C88.7912 140.384 89.1909 140.692 89.6333 140.692C89.7043 140.692 89.7736 140.683 89.8429 140.669Z" fill="white" fill-opacity="0.3"/>
<path d="M75.629 232.691C75.1689 232.423 74.5756 232.581 74.3109 233.041C74.3091 233.041 74.3091 233.041 74.3091 233.041C74.0426 233.503 74.1989 234.094 74.6608 234.361C74.8118 234.45 74.9788 234.491 75.144 234.491C75.478 234.491 75.8013 234.318 75.9807 234.009H75.9789C76.2472 233.549 76.0908 232.959 75.629 232.691Z" fill="white" fill-opacity="0.3"/>
<path d="M80.9336 113.72C80.4469 113.939 80.2284 114.509 80.4486 114.996C80.6085 115.355 80.9603 115.568 81.3298 115.568C81.4612 115.568 81.5962 115.539 81.7241 115.483C82.2091 115.264 82.4276 114.694 82.2091 114.207C81.9906 113.72 81.4204 113.502 80.9336 113.72Z" fill="white" fill-opacity="0.3"/>
<path d="M68.1041 92.6359C68.2995 92.6359 68.4967 92.5773 68.6672 92.4529C69.1007 92.1403 69.1984 91.5363 68.8875 91.1046C68.5748 90.6712 67.9708 90.5735 67.5392 90.8861C67.1057 91.1988 67.008 91.8028 67.3189 92.2344C67.509 92.4956 67.8039 92.6359 68.1041 92.6359Z" fill="white" fill-opacity="0.3"/>
<path d="M84.3335 121.883C83.8325 122.066 83.5767 122.622 83.7615 123.123C83.9054 123.512 84.2731 123.755 84.6657 123.755C84.7776 123.755 84.8913 123.736 84.9996 123.695C85.5006 123.51 85.7564 122.956 85.5716 122.455C85.3887 121.952 84.8344 121.698 84.3335 121.883Z" fill="white" fill-opacity="0.3"/>
<path d="M61.9574 85.2973C62.1475 85.5282 62.4228 85.6454 62.7017 85.6454C62.9184 85.6454 63.1369 85.5744 63.3164 85.4234C63.7267 85.0841 63.7836 84.4748 63.4443 84.0644C63.1032 83.6541 62.4956 83.5972 62.0835 83.9365C61.6732 84.2776 61.6163 84.8851 61.9574 85.2973Z" fill="white" fill-opacity="0.3"/>
<path d="M69.9229 241.808C70.0881 241.92 70.2764 241.971 70.4629 241.971C70.7738 241.971 71.0775 241.822 71.2641 241.545C71.5625 241.103 71.4453 240.504 71.0012 240.205C70.5588 239.907 69.9602 240.022 69.6617 240.467C69.3633 240.909 69.4805 241.509 69.9229 241.808Z" fill="white" fill-opacity="0.3"/>
<path d="M1.89769 292.571C1.73959 292.061 1.19601 291.777 0.687947 291.937C0.178112 292.095 -0.104341 292.639 0.0537608 293.147C0.181664 293.559 0.563596 293.823 0.975728 293.823C1.07165 293.823 1.16758 293.809 1.26351 293.779C1.77334 293.621 2.05757 293.079 1.89769 292.571Z" fill="white" fill-opacity="0.3"/>
<path d="M10.2246 289.586C10.031 289.089 9.47316 288.842 8.97398 289.036C8.47658 289.229 8.22966 289.787 8.42507 290.286C8.57251 290.668 8.93846 290.901 9.32394 290.901C9.44119 290.901 9.55843 290.88 9.6739 290.837C10.1713 290.642 10.4182 290.084 10.2246 289.586Z" fill="white" fill-opacity="0.3"/>
<path d="M25.321 283.394C25.4792 283.394 25.6408 283.353 25.79 283.273C26.2572 283.014 26.4242 282.426 26.1649 281.96C25.9055 281.493 25.3175 281.326 24.8521 281.586C24.3849 281.843 24.2179 282.431 24.4772 282.898C24.6531 283.215 24.9818 283.394 25.321 283.394Z" fill="white" fill-opacity="0.3"/>
<path d="M13.3418 48.8145C13.4661 48.8677 13.5958 48.8944 13.7237 48.8944C14.0968 48.8944 14.4538 48.6759 14.6101 48.31C14.8215 47.8197 14.5959 47.2512 14.1074 47.0398C13.6171 46.8284 13.0487 47.054 12.839 47.5425C12.6259 48.0364 12.8515 48.6048 13.3418 48.8145Z" fill="white" fill-opacity="0.3"/>
<path d="M5.19359 45.6225C5.30017 45.6598 5.40853 45.6775 5.51512 45.6775C5.91304 45.6775 6.28431 45.4288 6.42643 45.0327C6.60407 44.53 6.34116 43.9775 5.83665 43.7999C5.33392 43.6222 4.78323 43.8851 4.60381 44.3896C4.42617 44.8924 4.69086 45.4448 5.19359 45.6225Z" fill="white" fill-opacity="0.3"/>
<path d="M83.8304 218.078C84.0329 217.584 83.7966 217.019 83.3045 216.817C82.8107 216.614 82.2458 216.851 82.0433 217.343C81.8408 217.837 82.077 218.401 82.5709 218.604C82.6917 218.654 82.8142 218.677 82.9368 218.677C83.317 218.677 83.6776 218.449 83.8304 218.078Z" fill="white" fill-opacity="0.3"/>
<path d="M80.1766 226.177C80.4129 225.699 80.2157 225.118 79.7361 224.882C79.2582 224.646 78.6791 224.843 78.4428 225.322C78.2066 225.8 78.4038 226.379 78.8834 226.616C79.0202 226.683 79.1658 226.715 79.308 226.715C79.6668 226.713 80.0079 226.516 80.1766 226.177Z" fill="white" fill-opacity="0.3"/>
<path d="M88.3658 130.9C88.2148 130.388 87.6784 130.095 87.1667 130.246C86.6551 130.395 86.362 130.932 86.513 131.444C86.6356 131.866 87.0211 132.138 87.4385 132.138C87.5274 132.138 87.6215 132.126 87.7103 132.099C88.2219 131.948 88.5168 131.412 88.3658 130.9Z" fill="white" fill-opacity="0.3"/>
<path d="M91.9014 182.665C91.3721 182.601 90.8924 182.98 90.8285 183.509C90.7663 184.038 91.1447 184.518 91.674 184.582C91.7131 184.586 91.7522 184.589 91.7877 184.589C92.2709 184.589 92.6866 184.229 92.747 183.736C92.8092 183.207 92.4308 182.727 91.9014 182.665Z" fill="white" fill-opacity="0.3"/>
<path d="M89.4568 201.209C89.5918 200.694 89.281 200.165 88.7658 200.031C88.2489 199.898 87.7213 200.207 87.588 200.724C87.4548 201.239 87.7639 201.767 88.2808 201.902C88.3625 201.923 88.4443 201.932 88.5242 201.932C88.9541 201.932 89.3467 201.644 89.4568 201.209Z" fill="white" fill-opacity="0.3"/>
<path d="M65.8799 247.394C65.4571 247.068 64.8513 247.144 64.5245 247.565C64.5227 247.565 64.5227 247.565 64.5227 247.565C64.1958 247.988 64.2722 248.594 64.6932 248.92C64.8691 249.057 65.0787 249.123 65.2848 249.123C65.5726 249.123 65.8568 248.995 66.0469 248.75C66.3755 248.327 66.2991 247.721 65.8799 247.394Z" fill="white" fill-opacity="0.3"/>
<path d="M54.2265 262.027C54.6066 261.654 54.6119 261.041 54.2389 260.661C53.8658 260.281 53.2547 260.276 52.8728 260.647C52.4927 261.02 52.4873 261.633 52.8604 262.013C53.0487 262.207 53.2992 262.302 53.5496 262.302C53.793 262.304 54.0382 262.212 54.2265 262.027Z" fill="white" fill-opacity="0.3"/>
<path d="M60.282 254.221C59.8841 253.866 59.273 253.904 58.9195 254.301C58.5642 254.699 58.5997 255.31 58.9976 255.664C59.1824 255.827 59.4115 255.907 59.6389 255.907C59.9054 255.907 60.1701 255.799 60.3602 255.584C60.7154 255.188 60.6799 254.579 60.282 254.221Z" fill="white" fill-opacity="0.3"/>
<path d="M17.4506 287.419C17.5874 287.419 17.726 287.391 17.8592 287.329C18.3442 287.101 18.5502 286.527 18.3246 286.044C18.0972 285.561 17.5235 285.353 17.0403 285.579C16.5571 285.806 16.3492 286.382 16.5748 286.863C16.7418 287.213 17.0882 287.419 17.4506 287.419Z" fill="white" fill-opacity="0.3"/>
<path d="M46.4138 266.577C46.0087 266.925 45.9626 267.534 46.3107 267.939C46.5008 268.161 46.7708 268.275 47.0426 268.275C47.2665 268.275 47.4903 268.198 47.6715 268.042C48.0765 267.694 48.1227 267.085 47.7745 266.68C47.4281 266.278 46.8188 266.23 46.4138 266.577Z" fill="white" fill-opacity="0.3"/>
<path d="M73.8432 98.498C73.5625 98.045 72.9656 97.9065 72.5126 98.1889C72.0597 98.4696 71.9211 99.0665 72.2036 99.5194C72.3865 99.8126 72.701 99.9742 73.0243 99.9742C73.1984 99.9742 73.3742 99.928 73.5341 99.8286C73.9871 99.5461 74.1256 98.9492 73.8432 98.498Z" fill="white" fill-opacity="0.3"/>
<path d="M77.4409 107.629C77.5936 107.629 77.75 107.591 77.8939 107.515C78.3664 107.265 78.544 106.678 78.2918 106.209C78.0413 105.737 77.4569 105.559 76.9861 105.811C76.5136 106.062 76.3359 106.648 76.5882 107.117C76.7605 107.442 77.0962 107.629 77.4409 107.629Z" fill="white" fill-opacity="0.3"/>
<path d="M43.2568 66.8597C43.4362 67.0036 43.6494 67.0729 43.8625 67.0729C44.1432 67.0729 44.4239 66.9503 44.614 66.7123C44.9497 66.2966 44.8822 65.689 44.4683 65.3551C44.0526 65.0193 43.4451 65.0868 43.1111 65.5007C42.7754 65.9182 42.8411 66.5257 43.2568 66.8597Z" fill="white" fill-opacity="0.3"/>
<path d="M36.2489 61.5998C36.4177 61.7188 36.6095 61.7757 36.8014 61.7757C37.1069 61.7757 37.4054 61.6318 37.5954 61.3635C37.901 60.9265 37.7944 60.3243 37.3574 60.0188C36.9204 59.7132 36.3182 59.8198 36.0126 60.2568C35.7053 60.6921 35.8119 61.2943 36.2489 61.5998Z" fill="white" fill-opacity="0.3"/>
<path d="M49.897 72.5815C50.0835 72.7521 50.318 72.8373 50.5507 72.8373C50.8119 72.8373 51.0712 72.7325 51.2613 72.5247C51.6219 72.1321 51.5971 71.521 51.2062 71.1604C50.8137 70.7998 50.2026 70.8246 49.8419 71.2172C49.4796 71.608 49.5044 72.2209 49.897 72.5815Z" fill="white" fill-opacity="0.3"/>
<path d="M32.8986 278.846C33.078 278.846 33.2592 278.797 33.4208 278.692C33.8685 278.402 33.9982 277.805 33.7069 277.356C33.4173 276.908 32.8204 276.78 32.371 277.07C31.9233 277.36 31.7954 277.956 32.085 278.406C32.2697 278.692 32.5806 278.846 32.8986 278.846Z" fill="white" fill-opacity="0.3"/>
<path d="M40.1475 273.8C40.3483 273.8 40.5525 273.737 40.7249 273.608C41.153 273.288 41.24 272.684 40.9203 272.256C40.6005 271.828 39.9947 271.741 39.5684 272.06C39.1403 272.38 39.0532 272.984 39.373 273.412C39.5648 273.664 39.8544 273.8 40.1475 273.8Z" fill="white" fill-opacity="0.3"/>
<path d="M28.9054 56.8248C29.0617 56.9189 29.2322 56.9633 29.4028 56.9633C29.7314 56.9633 30.0494 56.7981 30.2306 56.4961C30.5059 56.0396 30.3603 55.4463 29.9037 55.1709C29.4472 54.8956 28.8521 55.043 28.5785 55.4996C28.3014 55.9561 28.4488 56.5494 28.9054 56.8248Z" fill="white" fill-opacity="0.3"/>
<path d="M21.258 52.556C21.3984 52.6288 21.5511 52.6644 21.6986 52.6644C22.0485 52.6644 22.3878 52.4725 22.5584 52.1403C22.8017 51.666 22.617 51.0833 22.1409 50.84C21.6666 50.5966 21.0839 50.7831 20.8406 51.2574C20.5972 51.7299 20.7837 52.3126 21.258 52.556Z" fill="white" fill-opacity="0.3"/>
<path d="M57.5386 77.4063C57.1708 77.0208 56.5597 77.003 56.1743 77.3708C55.787 77.7385 55.771 78.3496 56.1387 78.7368C56.327 78.9376 56.5828 79.037 56.8404 79.037C57.0785 79.037 57.3183 78.9482 57.5048 78.7724C57.8921 78.4046 57.9063 77.7935 57.5386 77.4063Z" fill="white" fill-opacity="0.3"/>
<path d="M14.2231 274.572C13.9922 274.092 13.4148 273.89 12.9334 274.121C12.4538 274.352 12.2513 274.929 12.4822 275.409C12.6492 275.755 12.9938 275.956 13.3544 275.956C13.493 275.956 13.6369 275.924 13.7719 275.86C14.2515 275.629 14.454 275.052 14.2231 274.572Z" fill="white" fill-opacity="0.3"/>
<path d="M79.3203 159.385C79.3558 159.895 79.7804 160.282 80.2814 160.282C80.3045 160.282 80.3276 160.28 80.3524 160.279C80.8836 160.24 81.2833 159.776 81.2442 159.245C81.2051 158.712 80.7432 158.312 80.2103 158.351C79.6791 158.39 79.2795 158.854 79.3203 159.385Z" fill="white" fill-opacity="0.3"/>
<path d="M79.1689 149.543C78.6413 149.621 78.2771 150.114 78.3553 150.639C78.4263 151.119 78.8403 151.464 79.3092 151.464C79.3554 151.464 79.4052 151.46 79.4513 151.453C79.9789 151.375 80.3449 150.883 80.2649 150.357C80.1886 149.829 79.6965 149.465 79.1689 149.543Z" fill="white" fill-opacity="0.3"/>
<path d="M77.4718 140.837C76.9513 140.955 76.6245 141.471 76.7417 141.992C76.843 142.44 77.2427 142.745 77.6832 142.745C77.7543 142.745 77.8236 142.736 77.8964 142.722C78.4169 142.603 78.7438 142.088 78.6265 141.567C78.5093 141.047 77.9923 140.72 77.4718 140.837Z" fill="white" fill-opacity="0.3"/>
<path d="M35.4428 76.1166C35.6204 76.2587 35.8354 76.3297 36.045 76.3297C36.3292 76.3297 36.6099 76.2054 36.8 75.9674C37.1339 75.5499 37.0664 74.9441 36.649 74.6102C36.2315 74.278 35.6258 74.3437 35.2918 74.7612C34.9596 75.1751 35.0271 75.7844 35.4428 76.1166Z" fill="white" fill-opacity="0.3"/>
<path d="M20.7197 270.007C20.2578 270.273 20.0997 270.863 20.3662 271.325C20.5438 271.636 20.8689 271.808 21.2029 271.808C21.3663 271.808 21.5333 271.767 21.6861 271.678C22.1462 271.412 22.306 270.822 22.0396 270.36C21.7696 269.897 21.1798 269.74 20.7197 270.007Z" fill="white" fill-opacity="0.3"/>
<path d="M81.5618 168.18C81.5636 167.646 81.1319 167.214 80.5972 167.214C80.0625 167.214 79.6309 167.646 79.6309 168.178C79.6309 168.713 80.0625 169.145 80.5955 169.145C80.5972 169.145 80.5972 169.145 80.5972 169.145C81.1302 169.145 81.5618 168.711 81.5618 168.18Z" fill="white" fill-opacity="0.3"/>
<path d="M81.2229 177.116C81.2638 176.583 80.8641 176.119 80.3312 176.08C79.8 176.039 79.3364 176.439 79.2973 176.972C79.2564 177.503 79.6561 177.967 80.1873 178.006C80.2122 178.009 80.237 178.009 80.2601 178.009C80.7611 178.007 81.1856 177.622 81.2229 177.116Z" fill="white" fill-opacity="0.3"/>
<path d="M79.1227 186.811C79.1707 186.818 79.2187 186.822 79.2684 186.822C79.7374 186.822 80.1495 186.479 80.2223 185.999C80.3023 185.472 79.9399 184.98 79.4105 184.9C78.8829 184.822 78.3908 185.184 78.3127 185.712C78.2327 186.239 78.5951 186.731 79.1227 186.811Z" fill="white" fill-opacity="0.3"/>
<path d="M49.6818 88.1501C50.0744 87.7877 50.0975 87.1766 49.7351 86.784C49.3727 86.3932 48.7616 86.3701 48.3708 86.7325C47.9782 87.0931 47.9551 87.706 48.3175 88.0968C48.5076 88.3028 48.7652 88.4059 49.0263 88.4059C49.2608 88.4059 49.4953 88.3206 49.6818 88.1501Z" fill="white" fill-opacity="0.3"/>
<path d="M6.11173 278.187C5.91632 277.69 5.35675 277.445 4.86112 277.64C4.36372 277.834 4.12036 278.395 4.31399 278.891C4.46321 279.271 4.82737 279.505 5.21286 279.505C5.3301 279.505 5.44912 279.484 5.56459 279.439C6.06199 279.242 6.30714 278.681 6.11173 278.187Z" fill="white" fill-opacity="0.3"/>
<path d="M55.5639 93.5682C55.2317 93.1508 54.6242 93.0833 54.2067 93.4137C53.7892 93.7459 53.7217 94.3552 54.0539 94.7709C54.244 95.0107 54.5265 95.135 54.8107 95.135C55.0221 95.135 55.2335 95.0658 55.4129 94.9254C55.8268 94.5932 55.8961 93.9857 55.5639 93.5682Z" fill="white" fill-opacity="0.3"/>
<path d="M28.172 265.322C27.7315 265.622 27.6177 266.223 27.918 266.663C28.1045 266.939 28.4083 267.086 28.7174 267.086C28.9057 267.086 29.094 267.033 29.2609 266.917C29.7015 266.617 29.8134 266.017 29.515 265.576C29.213 265.134 28.6126 265.022 28.172 265.322Z" fill="white" fill-opacity="0.3"/>
<path d="M60.0764 102.278C60.2629 102.278 60.4512 102.225 60.6182 102.109C61.0606 101.809 61.1725 101.209 60.8723 100.768C60.572 100.326 59.9716 100.214 59.5311 100.514C59.0887 100.814 58.9768 101.415 59.2752 101.855C59.4635 102.131 59.7673 102.278 60.0764 102.278Z" fill="white" fill-opacity="0.3"/>
<path d="M59.1367 234.409C58.8365 234.849 58.9484 235.45 59.389 235.752C59.556 235.866 59.7443 235.921 59.9326 235.921C60.2417 235.921 60.5437 235.775 60.732 235.5C61.0322 235.059 60.9203 234.459 60.4797 234.157C60.0392 233.855 59.4387 233.968 59.1367 234.409Z" fill="white" fill-opacity="0.3"/>
<path d="M35.2546 260.094C34.8371 260.426 34.7696 261.036 35.1036 261.451C35.2937 261.689 35.5761 261.816 35.8586 261.816C36.07 261.816 36.2814 261.746 36.4608 261.604C36.8782 261.272 36.9457 260.663 36.6135 260.247C36.2796 259.831 35.672 259.762 35.2546 260.094Z" fill="white" fill-opacity="0.3"/>
<path d="M68.4002 220.494C68.5353 220.56 68.6791 220.59 68.8213 220.59C69.1801 220.59 69.523 220.389 69.6899 220.045C69.9226 219.565 69.7219 218.986 69.2423 218.755C68.7626 218.524 68.1835 218.723 67.9526 219.203C67.7199 219.684 67.9206 220.261 68.4002 220.494Z" fill="white" fill-opacity="0.3"/>
<path d="M65.1513 226.619C64.6894 226.351 64.0978 226.509 63.8314 226.969C63.5631 227.431 63.7212 228.023 64.1813 228.289C64.3341 228.378 64.5011 228.421 64.6663 228.421C64.9985 228.421 65.3236 228.248 65.503 227.939C65.7677 227.477 65.6113 226.888 65.1513 226.619Z" fill="white" fill-opacity="0.3"/>
<path d="M55.2597 241.326C54.8423 240.994 54.2347 241.062 53.9025 241.477C53.5686 241.895 53.6361 242.501 54.0535 242.835C54.2312 242.977 54.4461 243.046 54.6557 243.046C54.9382 243.046 55.2206 242.922 55.4107 242.684C55.7429 242.268 55.6754 241.66 55.2597 241.326Z" fill="white" fill-opacity="0.3"/>
<path d="M75.6019 202.215C75.092 202.057 74.552 202.343 74.3939 202.852C74.2358 203.362 74.5218 203.904 75.0316 204.06C75.1276 204.089 75.2235 204.103 75.3176 204.103C75.7298 204.103 76.1117 203.838 76.2414 203.423C76.3977 202.913 76.1117 202.373 75.6019 202.215Z" fill="white" fill-opacity="0.3"/>
<path d="M49.5685 249.455C49.9327 249.065 49.9096 248.453 49.5187 248.089C49.1279 247.727 48.5168 247.748 48.1545 248.139C47.7921 248.53 47.8134 249.141 48.2042 249.505C48.3907 249.677 48.627 249.763 48.8615 249.763C49.1208 249.763 49.3784 249.66 49.5685 249.455Z" fill="white" fill-opacity="0.3"/>
<path d="M42.1023 81.8673C42.2888 82.0396 42.5251 82.1267 42.7596 82.1267C43.0172 82.1267 43.2765 82.0236 43.4666 81.8194C43.8308 81.4268 43.8095 80.8157 43.4186 80.4533C43.0278 80.0909 42.4167 80.1122 42.0543 80.503C41.6902 80.8938 41.7115 81.5049 42.1023 81.8673Z" fill="white" fill-opacity="0.3"/>
<path d="M75.1212 132.284C74.6113 132.44 74.3253 132.98 74.4816 133.49C74.6078 133.908 74.9915 134.172 75.4054 134.172C75.4995 134.172 75.5937 134.158 75.6896 134.131C76.1994 133.973 76.4854 133.435 76.3291 132.923C76.171 132.414 75.6328 132.128 75.1212 132.284Z" fill="white" fill-opacity="0.3"/>
<path d="M64.3111 107.993C63.8493 108.259 63.6912 108.849 63.9576 109.311C63.9558 109.311 63.9558 109.311 63.9558 109.311C64.1353 109.622 64.4604 109.794 64.7943 109.794C64.9578 109.794 65.123 109.753 65.2757 109.665C65.7376 109.398 65.8957 108.808 65.6292 108.346C65.3646 107.885 64.773 107.726 64.3111 107.993Z" fill="white" fill-opacity="0.3"/>
<path d="M41.8748 255.721C42.0649 255.927 42.3225 256.03 42.5818 256.03C42.8163 256.03 43.0526 255.946 43.2391 255.774C43.6299 255.412 43.653 254.801 43.2906 254.408C42.93 254.017 42.3172 253.994 41.9263 254.357C41.5355 254.721 41.5124 255.33 41.8748 255.721Z" fill="white" fill-opacity="0.3"/>
<path d="M68.5213 115.809C68.0399 116.04 67.8392 116.618 68.0684 117.097C68.2353 117.444 68.58 117.644 68.9406 117.644C69.0791 117.644 69.223 117.614 69.358 117.548C69.8395 117.318 70.0402 116.74 69.811 116.261C69.5783 115.781 69.001 115.578 68.5213 115.809Z" fill="white" fill-opacity="0.3"/>
<path d="M20.9393 66.1829C21.0921 66.2717 21.2573 66.3144 21.4243 66.3144C21.7565 66.3144 22.0815 66.142 22.261 65.833C22.5292 65.3711 22.3711 64.7795 21.911 64.5131C21.4491 64.2448 20.8576 64.4029 20.5911 64.863C20.3211 65.3231 20.4774 65.9147 20.9393 66.1829Z" fill="white" fill-opacity="0.3"/>
<path d="M77.4018 195.514C77.4746 195.53 77.5474 195.537 77.6185 195.537C78.0591 195.537 78.457 195.233 78.56 194.787C78.679 194.267 78.3522 193.75 77.8335 193.631C77.313 193.512 76.796 193.837 76.677 194.356C76.558 194.876 76.8813 195.393 77.4018 195.514Z" fill="white" fill-opacity="0.3"/>
<path d="M13.1745 62.058C13.3095 62.1237 13.4534 62.1539 13.5955 62.1539C13.9543 62.1539 14.2972 61.9532 14.4642 61.6086C14.6969 61.1289 14.4961 60.5498 14.0165 60.3171C13.5369 60.0862 12.9595 60.2851 12.7268 60.7648C12.4941 61.2462 12.6948 61.8235 13.1745 62.058Z" fill="white" fill-opacity="0.3"/>
<path d="M5.12564 58.5265C5.24111 58.5727 5.36191 58.594 5.47916 58.594C5.86464 58.594 6.22881 58.3631 6.37803 57.983C6.57344 57.4856 6.33007 56.926 5.83444 56.7306C5.33704 56.5352 4.77569 56.7785 4.58206 57.2742C4.38665 57.7698 4.62824 58.3294 5.12564 58.5265Z" fill="white" fill-opacity="0.3"/>
<path d="M72.1307 123.922C71.6333 124.117 71.3882 124.677 71.5836 125.173C71.7328 125.553 72.097 125.787 72.4824 125.787C72.5997 125.787 72.7187 125.766 72.8342 125.72C73.3316 125.526 73.575 124.965 73.3813 124.469C73.1877 123.972 72.6281 123.727 72.1307 123.922Z" fill="white" fill-opacity="0.3"/>
<path d="M28.3765 70.8798C28.5435 70.9935 28.7318 71.0485 28.9218 71.0485C29.2292 71.0485 29.5312 70.9029 29.7195 70.6293C30.0215 70.1887 29.9078 69.5883 29.469 69.2863C29.0284 68.9861 28.428 69.098 28.126 69.5368C27.824 69.9756 27.9359 70.5778 28.3765 70.8798Z" fill="white" fill-opacity="0.3"/>
<path d="M72.733 210.608C72.2356 210.413 71.6742 210.656 71.4806 211.154C71.2852 211.651 71.5285 212.211 72.0242 212.406C72.1396 212.452 72.2604 212.474 72.3794 212.474C72.7649 212.474 73.1291 212.243 73.2783 211.861C73.472 211.363 73.2286 210.804 72.733 210.608Z" fill="white" fill-opacity="0.3"/>
<path d="M20.5156 80.1829C20.6791 80.293 20.8674 80.3463 21.0503 80.3463C21.363 80.3463 21.6685 80.1953 21.8551 79.9164C22.15 79.4723 22.0309 78.8737 21.5886 78.577C21.1445 78.2803 20.5441 78.4011 20.2492 78.8435C19.9543 79.2876 20.0715 79.8862 20.5156 80.1829Z" fill="white" fill-opacity="0.3"/>
<path d="M59.1934 213.925C59.4208 213.442 59.2148 212.866 58.7334 212.639C58.2519 212.41 57.6746 212.617 57.4472 213.099C57.2198 213.582 57.4259 214.158 57.9073 214.385C58.0405 214.449 58.1809 214.479 58.3177 214.479C58.6818 214.477 59.0282 214.273 59.1934 213.925Z" fill="white" fill-opacity="0.3"/>
<path d="M34.3355 91.1845C34.5221 91.3603 34.7601 91.4474 34.9981 91.4474C35.254 91.4474 35.5115 91.3461 35.7016 91.1436C36.0676 90.7546 36.0498 90.1435 35.6608 89.7775C35.2735 89.4116 34.6624 89.4293 34.2965 89.8184C33.9305 90.2074 33.9483 90.8185 34.3355 91.1845Z" fill="white" fill-opacity="0.3"/>
<path d="M17.557 260.05C18.0135 259.774 18.1592 259.179 17.8821 258.725C17.6067 258.268 17.0116 258.122 16.5569 258.399C16.1003 258.675 15.9546 259.268 16.2318 259.725C16.413 260.025 16.7309 260.19 17.0578 260.19C17.2283 260.188 17.4024 260.144 17.557 260.05Z" fill="white" fill-opacity="0.3"/>
<path d="M67.5428 188.316C67.6423 187.792 67.2995 187.287 66.7754 187.186C66.2514 187.087 65.7451 187.429 65.6456 187.955C65.5443 188.478 65.889 188.984 66.413 189.085C66.4734 189.096 66.5356 189.101 66.596 189.101C67.049 189.101 67.454 188.78 67.5428 188.316Z" fill="white" fill-opacity="0.3"/>
<path d="M24.4931 255.252C24.6885 255.252 24.8874 255.192 25.058 255.067C25.4896 254.755 25.5856 254.151 25.2711 253.717C24.9585 253.287 24.3545 253.19 23.9228 253.504C23.4912 253.817 23.3952 254.421 23.7097 254.854C23.8997 255.115 24.1929 255.252 24.4931 255.252Z" fill="white" fill-opacity="0.3"/>
<path d="M27.6567 85.395C27.8325 85.5371 28.0457 85.6046 28.2571 85.6046C28.5413 85.6046 28.822 85.4803 29.0139 85.2404C29.3461 84.823 29.2768 84.2154 28.8611 83.885C28.4436 83.5528 27.8361 83.6221 27.5039 84.0378C27.1682 84.4553 27.2374 85.0628 27.6567 85.395Z" fill="white" fill-opacity="0.3"/>
<path d="M62.1243 204.394C61.6251 204.208 61.0691 204.46 60.8826 204.961C60.6961 205.46 60.9501 206.016 61.4493 206.203C61.5594 206.243 61.6749 206.265 61.7868 206.265C62.1794 206.265 62.5471 206.025 62.691 205.636C62.8793 205.137 62.6253 204.581 62.1243 204.394Z" fill="white" fill-opacity="0.3"/>
<path d="M30.7544 249.377C30.9445 249.599 31.2145 249.713 31.4863 249.713C31.7101 249.713 31.934 249.635 32.1169 249.478C32.522 249.13 32.5664 248.521 32.2182 248.116C31.87 247.713 31.2607 247.668 30.8557 248.015C30.4506 248.365 30.4045 248.974 30.7544 249.377Z" fill="white" fill-opacity="0.3"/>
<path d="M1.08102 268.113C1.20004 268.113 1.31906 268.092 1.4363 268.046C1.9337 267.85 2.1753 267.289 1.97989 266.793C1.78448 266.296 1.22313 266.054 0.727511 266.25C0.230111 266.445 -0.0114828 267.006 0.183924 267.502C0.333144 267.882 0.695534 268.113 1.08102 268.113Z" fill="white" fill-opacity="0.3"/>
<path d="M61.1422 126.512C60.9361 126.02 60.3694 125.787 59.8791 125.995C59.3871 126.201 59.1543 126.766 59.3622 127.258C59.5167 127.628 59.8756 127.85 60.254 127.85C60.3783 127.85 60.5044 127.827 60.627 127.775C61.1173 127.569 61.3482 127.004 61.1422 126.512Z" fill="white" fill-opacity="0.3"/>
<path d="M38.6703 241.955C38.2902 241.582 37.6791 241.587 37.3043 241.967C36.9312 242.348 36.9365 242.959 37.3185 243.333C37.5068 243.518 37.7501 243.609 37.9953 243.609C38.2458 243.609 38.4945 243.513 38.6845 243.321C39.0576 242.941 39.0523 242.328 38.6703 241.955Z" fill="white" fill-opacity="0.3"/>
<path d="M57.3156 118.36C57.0687 117.887 56.4842 117.703 56.0117 117.95C55.5392 118.197 55.3544 118.779 55.6013 119.252C55.7736 119.582 56.1112 119.77 56.4576 119.77C56.6086 119.77 56.7613 119.737 56.9052 119.662C57.3778 119.415 57.5607 118.833 57.3156 118.36Z" fill="white" fill-opacity="0.3"/>
<path d="M43.2287 235.406C42.8876 235.816 42.9463 236.425 43.3549 236.765C43.536 236.916 43.7528 236.988 43.9713 236.988C44.2484 236.988 44.5237 236.869 44.7156 236.64C45.0567 236.23 44.9998 235.621 44.5895 235.28C44.1791 234.938 43.5698 234.995 43.2287 235.406Z" fill="white" fill-opacity="0.3"/>
<path d="M53.6885 222.242C53.8395 222.331 54.0065 222.373 54.1717 222.373C54.5056 222.373 54.8289 222.201 55.0084 221.892C55.2766 221.43 55.1185 220.839 54.6566 220.572C54.1965 220.304 53.6032 220.462 53.3368 220.922C53.3385 220.922 53.3385 220.922 53.3385 220.922C53.0703 221.382 53.2266 221.974 53.6885 222.242Z" fill="white" fill-opacity="0.3"/>
<path d="M41.2321 97.83C41.463 97.83 41.6922 97.7483 41.8769 97.5831C42.2749 97.2278 42.3068 96.6167 41.9498 96.2206C41.5945 95.8226 40.9834 95.7907 40.5855 96.1477C40.1893 96.503 40.1556 97.1141 40.5126 97.5102C40.7045 97.7216 40.9674 97.83 41.2321 97.83Z" fill="white" fill-opacity="0.3"/>
<path d="M48.8258 229.719C48.9945 229.837 49.1864 229.893 49.3765 229.893C49.682 229.893 49.9822 229.748 50.1705 229.481C50.4761 229.042 50.3695 228.44 49.9325 228.136C49.4955 227.831 48.8915 227.937 48.5877 228.374C48.2804 228.812 48.3888 229.414 48.8258 229.719Z" fill="white" fill-opacity="0.3"/>
<path d="M8.80685 262.658C8.32899 262.894 8.13358 263.473 8.37162 263.953C8.54038 264.292 8.88146 264.489 9.23852 264.489C9.38241 264.489 9.52808 264.456 9.66664 264.388C10.1445 264.15 10.3399 263.571 10.1019 263.095C9.8656 262.615 9.28648 262.42 8.80685 262.658Z" fill="white" fill-opacity="0.3"/>
<path d="M46.9127 104.71C47.117 104.71 47.3213 104.646 47.4972 104.515C47.9217 104.193 48.0052 103.587 47.6837 103.163V103.161C47.3604 102.736 46.7546 102.653 46.3301 102.974C45.9055 103.298 45.8202 103.904 46.1435 104.328C46.3336 104.579 46.6214 104.71 46.9127 104.71Z" fill="white" fill-opacity="0.3"/>
<path d="M12.9673 75.5856C13.1147 75.6691 13.2764 75.7064 13.4345 75.7064C13.7755 75.7064 14.1042 75.5252 14.2801 75.2072C14.5376 74.7418 14.3689 74.1538 13.9017 73.8944C13.4345 73.6369 12.8482 73.8056 12.5889 74.2728C12.3313 74.74 12.5018 75.328 12.9673 75.5856Z" fill="white" fill-opacity="0.3"/>
<path d="M68.2329 160.527C67.7 160.559 67.295 161.018 67.3287 161.551C67.3589 162.062 67.7835 162.457 68.2898 162.457C68.3111 162.457 68.3307 162.457 68.3502 162.455C68.8813 162.423 69.2864 161.965 69.2544 161.433C69.2224 160.9 68.7641 160.495 68.2329 160.527Z" fill="white" fill-opacity="0.3"/>
<path d="M67.3811 153.585C67.4273 153.585 67.4735 153.581 67.5197 153.576C68.0473 153.5 68.4132 153.011 68.3368 152.482C68.2604 151.954 67.7719 151.588 67.2425 151.665C66.7149 151.741 66.349 152.23 66.4254 152.759C66.4964 153.239 66.9086 153.585 67.3811 153.585Z" fill="white" fill-opacity="0.3"/>
<path d="M67.4982 170.388C67.4858 170.923 67.9085 171.364 68.4415 171.376C68.4486 171.376 68.4575 171.376 68.4628 171.376C68.9851 171.376 69.4167 170.959 69.4274 170.431C69.4398 169.898 69.017 169.456 68.4841 169.445C67.9494 169.434 67.5089 169.855 67.4982 170.388Z" fill="white" fill-opacity="0.3"/>
<path d="M65.9507 144.794C66.4712 144.673 66.7946 144.154 66.6738 143.634C66.553 143.115 66.0342 142.79 65.5155 142.912C64.995 143.033 64.6717 143.552 64.7925 144.071C64.8955 144.516 65.2935 144.818 65.734 144.818C65.8051 144.818 65.8779 144.811 65.9507 144.794Z" fill="white" fill-opacity="0.3"/>
<path d="M64.8141 195.889C64.3007 195.743 63.766 196.045 63.6239 196.559C63.48 197.072 63.7802 197.605 64.2936 197.749C64.3807 197.772 64.4695 197.784 64.5548 197.784C64.9776 197.784 65.3666 197.505 65.4838 197.077C65.6277 196.564 65.3275 196.033 64.8141 195.889Z" fill="white" fill-opacity="0.3"/>
<path d="M64.27 134.959C64.1065 134.453 63.5629 134.174 63.0549 134.339C62.5468 134.503 62.2679 135.046 62.4331 135.554C62.5664 135.963 62.9447 136.224 63.3515 136.224C63.4493 136.224 63.5505 136.208 63.6482 136.178C64.1563 136.011 64.4334 135.467 64.27 134.959Z" fill="white" fill-opacity="0.3"/>
<path d="M5.06396 71.6381C5.06219 71.6381 5.06219 71.6381 5.06396 71.6381C5.19009 71.6967 5.3251 71.7216 5.45655 71.7216C5.82605 71.7216 6.17778 71.5084 6.33766 71.1496C6.55616 70.6628 6.33944 70.0908 5.8527 69.8741C5.36596 69.6556 4.79394 69.8741 4.57722 70.3608C4.35872 70.8494 4.57722 71.4196 5.06396 71.6381Z" fill="white" fill-opacity="0.3"/>
<path d="M52.815 110.558C52.529 110.107 51.9339 109.974 51.4827 110.258C51.0332 110.544 50.8982 111.141 51.1842 111.59C51.3672 111.882 51.6816 112.04 52.0014 112.04C52.1773 112.04 52.3567 111.992 52.5166 111.889C52.9678 111.604 53.101 111.008 52.815 110.558Z" fill="white" fill-opacity="0.3"/>
<path d="M67.7968 180.273C67.8305 180.276 67.8661 180.278 67.8998 180.278C68.3866 180.278 68.8058 179.908 68.8591 179.413C68.9142 178.882 68.5287 178.407 67.9993 178.35C67.4681 178.295 66.9938 178.681 66.937 179.21C66.8819 179.741 67.2674 180.216 67.7968 180.273Z" fill="white" fill-opacity="0.3"/>
<path d="M51.4885 198.118C50.9858 197.943 50.4351 198.209 50.2592 198.713C50.0851 199.218 50.3516 199.767 50.8561 199.943C50.9609 199.98 51.0693 199.996 51.1741 199.996C51.5738 199.996 51.9468 199.746 52.0854 199.348C52.2595 198.843 51.993 198.292 51.4885 198.118Z" fill="white" fill-opacity="0.3"/>
<path d="M13.4484 248.341C13.8961 248.052 14.0258 247.455 13.738 247.005C13.4502 246.558 12.8516 246.428 12.4039 246.716C11.9562 247.004 11.8248 247.602 12.1126 248.05C12.2973 248.338 12.61 248.494 12.9262 248.494C13.1056 248.494 13.2868 248.444 13.4484 248.341Z" fill="white" fill-opacity="0.3"/>
<path d="M4.92214 85.0129C5.06426 85.0875 5.21703 85.1213 5.36625 85.1213C5.71443 85.1213 6.05195 84.9312 6.22427 84.599C6.46941 84.1265 6.28466 83.5438 5.81213 83.2987C5.3396 83.0535 4.75516 83.2365 4.51001 83.7108C4.26486 84.1851 4.44961 84.7678 4.92214 85.0129Z" fill="white" fill-opacity="0.3"/>
<path d="M5.14389 252.985C5.29311 252.985 5.44411 252.951 5.58623 252.877C6.06054 252.633 6.24706 252.051 6.00369 251.576C5.76031 251.104 5.17765 250.917 4.70334 251.161C4.22904 251.404 4.04251 251.987 4.28588 252.461C4.45642 252.795 4.79394 252.985 5.14389 252.985Z" fill="white" fill-opacity="0.3"/>
<path d="M50.9415 136.357C50.437 136.531 50.1688 137.08 50.3429 137.585C50.4814 137.985 50.8545 138.237 51.2559 138.237C51.359 138.237 51.4656 138.221 51.5704 138.184C52.0731 138.009 52.3413 137.461 52.169 136.956C51.9949 136.453 51.446 136.183 50.9415 136.357Z" fill="white" fill-opacity="0.3"/>
<path d="M34.1437 105.675C33.7955 105.27 33.1844 105.227 32.7812 105.575C32.3761 105.923 32.3335 106.534 32.6817 106.938C32.8718 107.16 33.1418 107.273 33.4136 107.273C33.6374 107.273 33.8613 107.197 34.0442 107.037C34.4492 106.687 34.4937 106.078 34.1437 105.675Z" fill="white" fill-opacity="0.3"/>
<path d="M57.2322 172.696C57.2588 172.163 56.8467 171.71 56.3155 171.685C55.7826 171.658 55.3296 172.071 55.3048 172.603C55.2781 173.136 55.6902 173.589 56.2214 173.614C56.2374 173.616 56.2534 173.616 56.2676 173.616C56.781 173.616 57.2073 173.215 57.2322 172.696Z" fill="white" fill-opacity="0.3"/>
<path d="M55.4146 182.558C55.8871 182.558 56.301 182.21 56.3685 181.729C56.4449 181.201 56.0772 180.713 55.5496 180.636C55.022 180.56 54.5335 180.926 54.4571 181.455C54.3807 181.983 54.7484 182.471 55.276 182.548C55.3222 182.555 55.3666 182.558 55.4146 182.558Z" fill="white" fill-opacity="0.3"/>
<path d="M47.5255 128.047C47.0406 128.267 46.8256 128.841 47.0477 129.326C47.2093 129.681 47.5593 129.891 47.927 129.891C48.0602 129.891 48.197 129.863 48.3267 129.804C48.8117 129.584 49.0266 129.01 48.8046 128.525C48.5843 128.04 48.0105 127.825 47.5255 128.047Z" fill="white" fill-opacity="0.3"/>
<path d="M53.5447 144.957C53.026 145.081 52.708 145.602 52.8306 146.12C52.9372 146.563 53.3333 146.861 53.7685 146.861C53.8431 146.861 53.9195 146.852 53.9941 146.833C54.5129 146.708 54.8326 146.188 54.7083 145.669C54.5857 145.152 54.0634 144.832 53.5447 144.957Z" fill="white" fill-opacity="0.3"/>
<path d="M56.2376 162.702C55.7047 162.725 55.2925 163.178 55.3156 163.711C55.3387 164.227 55.7668 164.632 56.2802 164.632C56.2962 164.632 56.3104 164.632 56.3246 164.631C56.8593 164.608 57.2697 164.156 57.2466 163.622C57.22 163.089 56.7687 162.677 56.2376 162.702Z" fill="white" fill-opacity="0.3"/>
<path d="M27.0403 237.406C27.2801 237.406 27.5182 237.317 27.7065 237.14C28.092 236.772 28.1079 236.161 27.7402 235.774C27.3725 235.388 26.7614 235.372 26.3759 235.74C25.9904 236.107 25.9745 236.719 26.3422 237.106C26.5323 237.305 26.7863 237.406 27.0403 237.406Z" fill="white" fill-opacity="0.3"/>
<path d="M54.4933 154.857C54.5608 155.34 54.9747 155.688 55.4472 155.688C55.4934 155.688 55.536 155.685 55.584 155.679C56.1116 155.605 56.4793 155.116 56.4047 154.589C56.3301 154.061 55.8416 153.693 55.314 153.768C54.7864 153.839 54.4186 154.327 54.4933 154.857Z" fill="white" fill-opacity="0.3"/>
<path d="M44.6516 120.454C44.3851 119.993 43.7953 119.834 43.3335 120.099C42.8716 120.366 42.7135 120.955 42.9782 121.417C43.1576 121.728 43.4809 121.9 43.8149 121.9C43.9783 121.9 44.1453 121.86 44.2963 121.773C44.7599 121.506 44.918 120.916 44.6516 120.454Z" fill="white" fill-opacity="0.3"/>
<path d="M38.962 114.34C39.1575 114.34 39.3511 114.282 39.5216 114.163C39.9568 113.853 40.0581 113.251 39.749 112.816C39.4399 112.381 38.8377 112.28 38.4025 112.589C37.9672 112.898 37.866 113.5 38.1751 113.935C38.3634 114.2 38.6601 114.34 38.962 114.34Z" fill="white" fill-opacity="0.3"/>
<path d="M47.4195 208.242C47.5492 208.303 47.686 208.331 47.821 208.331C48.1869 208.331 48.5369 208.123 48.7003 207.768C48.9224 207.283 48.7092 206.709 48.2242 206.487C47.7393 206.265 47.1655 206.478 46.9434 206.961C46.7214 207.448 46.9345 208.02 47.4195 208.242Z" fill="white" fill-opacity="0.3"/>
<path d="M38.0308 222.328C37.7199 222.763 37.8211 223.365 38.2546 223.676C38.4251 223.797 38.6223 223.857 38.8159 223.857C39.1162 223.857 39.4128 223.717 39.6029 223.452C39.9138 223.017 39.8125 222.415 39.3773 222.104C38.9438 221.795 38.3416 221.896 38.0308 222.328Z" fill="white" fill-opacity="0.3"/>
<path d="M33.883 229.215C33.4797 228.865 32.8704 228.909 32.5204 229.311C32.1705 229.714 32.2131 230.323 32.6164 230.673C32.7993 230.831 33.0249 230.911 33.2506 230.911C33.5206 230.911 33.7888 230.798 33.9807 230.579C34.3271 230.174 34.2844 229.565 33.883 229.215Z" fill="white" fill-opacity="0.3"/>
<path d="M42.8544 214.858C42.5861 215.318 42.7442 215.911 43.2043 216.178C43.3571 216.266 43.5223 216.307 43.6893 216.307C44.0215 216.307 44.3466 216.135 44.526 215.828C44.7942 215.366 44.6361 214.774 44.176 214.508C43.7124 214.239 43.1226 214.398 42.8544 214.858Z" fill="white" fill-opacity="0.3"/>
<path d="M53.4817 191.35C53.5581 191.368 53.6345 191.378 53.7109 191.378C54.1461 191.378 54.5423 191.082 54.6489 190.639C54.775 190.121 54.4552 189.598 53.9383 189.474C53.4196 189.348 52.8973 189.666 52.7712 190.183C52.6468 190.701 52.963 191.225 53.4817 191.35Z" fill="white" fill-opacity="0.3"/>
<path d="M19.8437 94.6555C20.0214 94.794 20.2328 94.8615 20.4424 94.8615C20.7266 94.8615 21.0091 94.7354 21.1991 94.4938C21.5296 94.0763 21.4585 93.4688 21.041 93.1384C20.6236 92.808 20.0143 92.879 19.6856 93.2965C19.3552 93.7175 19.4263 94.325 19.8437 94.6555Z" fill="white" fill-opacity="0.3"/>
<path d="M12.6123 89.479C12.7758 89.5838 12.9552 89.6335 13.1364 89.6335C13.4526 89.6335 13.7635 89.4772 13.9482 89.1912C14.2378 88.7435 14.1099 88.1449 13.6604 87.8553C13.2128 87.5658 12.6141 87.6937 12.3246 88.1431C12.035 88.5925 12.1647 89.1894 12.6123 89.479Z" fill="white" fill-opacity="0.3"/>
<path d="M20.2465 243.284C20.4544 243.284 20.6658 243.216 20.8434 243.078C21.2627 242.747 21.3337 242.142 21.0068 241.722C20.6764 241.303 20.0707 241.23 19.6514 241.559C19.2322 241.889 19.1594 242.495 19.488 242.914C19.6763 243.158 19.9587 243.284 20.2465 243.284Z" fill="white" fill-opacity="0.3"/>
<path d="M27.2214 100.761C27.4772 100.761 27.7312 100.66 27.9195 100.463C28.289 100.077 28.2748 99.4642 27.8893 99.0964C27.5038 98.7287 26.8927 98.7411 26.525 99.1266C26.1573 99.5121 26.1697 100.123 26.5552 100.493C26.7417 100.672 26.9833 100.761 27.2214 100.761Z" fill="white" fill-opacity="0.3"/>
<path d="M12.0166 103.905C12.1924 104.044 12.4021 104.111 12.6117 104.111C12.8995 104.111 13.1837 103.984 13.3738 103.74C13.7024 103.319 13.6278 102.712 13.2086 102.385C12.7875 102.056 12.18 102.131 11.8531 102.55C11.521 102.969 11.5956 103.577 12.0166 103.905Z" fill="white" fill-opacity="0.3"/>
<path d="M16.685 229.524C16.335 229.122 15.7239 229.08 15.3224 229.43C14.9192 229.778 14.8783 230.391 15.2265 230.792C15.4184 231.011 15.6866 231.124 15.9566 231.124C16.1822 231.124 16.4061 231.046 16.5908 230.886C16.9923 230.536 17.0331 229.925 16.685 229.524Z" fill="white" fill-opacity="0.3"/>
<path d="M44.2161 164.906C43.6832 164.92 43.264 165.363 43.2764 165.896C43.2888 166.421 43.7187 166.835 44.241 166.837C44.2499 166.837 44.257 166.835 44.2659 166.835C44.8006 166.821 45.2198 166.379 45.2074 165.844C45.1932 165.313 44.7508 164.892 44.2161 164.906Z" fill="white" fill-opacity="0.3"/>
<path d="M4.66589 98.7822C4.82399 98.8799 4.99986 98.9279 5.17217 98.9279C5.49726 98.9279 5.81169 98.7644 5.99644 98.4696C6.27712 98.0148 6.135 97.4197 5.68201 97.139C5.22724 96.8583 4.63392 97.0005 4.35324 97.4534C4.07079 97.9082 4.21113 98.5033 4.66589 98.7822Z" fill="white" fill-opacity="0.3"/>
<path d="M35.0338 130.097C34.5577 130.337 34.3659 130.918 34.6075 131.394C34.778 131.731 35.1173 131.925 35.469 131.925C35.6147 131.925 35.7639 131.891 35.9043 131.822C36.3803 131.58 36.5722 131 36.3306 130.523C36.0908 130.047 35.5099 129.857 35.0338 130.097Z" fill="white" fill-opacity="0.3"/>
<path d="M1.0703 241.44C1.22662 241.44 1.38295 241.403 1.53039 241.323C1.99937 241.069 2.17346 240.484 1.91943 240.015C1.6654 239.546 1.07918 239.37 0.610202 239.624C0.141225 239.878 -0.0328659 240.465 0.221163 240.934C0.395253 241.257 0.727445 241.44 1.0703 241.44Z" fill="white" fill-opacity="0.3"/>
<path d="M29.0142 217.424C29.3321 216.994 29.2398 216.39 28.8099 216.074C28.38 215.758 27.776 215.849 27.4598 216.279C27.1418 216.708 27.2342 217.312 27.6623 217.629C27.8346 217.755 28.0353 217.817 28.2343 217.817C28.5327 217.817 28.8241 217.68 29.0142 217.424Z" fill="white" fill-opacity="0.3"/>
<path d="M8.24784 234.931C7.80906 235.237 7.7007 235.837 8.00447 236.274C8.19277 236.544 8.49299 236.692 8.79853 236.692C8.98684 236.692 9.17869 236.635 9.34745 236.519C9.78623 236.216 9.89459 235.613 9.59082 235.176C9.28705 234.738 8.68662 234.627 8.24784 234.931Z" fill="white" fill-opacity="0.3"/>
<path d="M32.3748 208.787C32.1065 209.247 32.2646 209.839 32.7247 210.105C32.8775 210.194 33.0445 210.237 33.2097 210.237C33.5419 210.237 33.867 210.064 34.0464 209.755C34.3146 209.295 34.1565 208.702 33.6964 208.436C33.2328 208.167 32.6412 208.324 32.3748 208.787Z" fill="white" fill-opacity="0.3"/>
<path d="M26.1853 116.537C26.5974 116.198 26.6578 115.589 26.3185 115.177C25.981 114.766 25.3717 114.706 24.9596 115.043C24.5474 115.383 24.487 115.992 24.8263 116.402C25.0164 116.635 25.2935 116.756 25.5724 116.756C25.7874 116.756 26.0059 116.685 26.1853 116.537Z" fill="white" fill-opacity="0.3"/>
<path d="M21.7515 223.185C21.3909 223.578 21.4139 224.189 21.8065 224.55C21.9931 224.722 22.2275 224.806 22.462 224.806C22.7214 224.806 22.9808 224.701 23.1708 224.495C23.5314 224.102 23.5084 223.491 23.1175 223.13C22.7249 222.768 22.1139 222.793 21.7515 223.185Z" fill="white" fill-opacity="0.3"/>
<path d="M19.4369 110.079C19.6891 110.079 19.9396 109.981 20.1297 109.787C20.5027 109.405 20.4938 108.794 20.1137 108.421C19.7317 108.048 19.1207 108.055 18.7476 108.437C18.3746 108.819 18.3817 109.43 18.7636 109.803C18.9519 109.986 19.1935 110.079 19.4369 110.079Z" fill="white" fill-opacity="0.3"/>
<path d="M30.129 123.631C30.3155 123.913 30.6246 124.068 30.939 124.068C31.1202 124.068 31.3032 124.016 31.4666 123.91C31.9143 123.618 32.0386 123.02 31.7473 122.572C31.4542 122.126 30.8573 122 30.4096 122.291C29.9638 122.585 29.8376 123.183 30.129 123.631Z" fill="white" fill-opacity="0.3"/>
<path d="M42.0335 148.867C42.5504 148.737 42.8649 148.213 42.7352 147.696C42.6055 147.179 42.0815 146.865 41.5645 146.995C41.0476 147.124 40.7331 147.65 40.8628 148.165C40.973 148.604 41.3673 148.897 41.799 148.897C41.8754 148.895 41.9553 148.886 42.0335 148.867Z" fill="white" fill-opacity="0.3"/>
<path d="M42.9244 182.969C42.4004 182.866 41.8941 183.207 41.7911 183.731C41.7893 183.731 41.7893 183.731 41.7893 183.731C41.688 184.255 42.0291 184.761 42.5531 184.864C42.6171 184.877 42.6793 184.884 42.7397 184.884C43.1944 184.884 43.5959 184.564 43.6883 184.102C43.7895 183.576 43.4467 183.07 42.9244 182.969Z" fill="white" fill-opacity="0.3"/>
<path d="M44.0637 173.973C43.5326 173.927 43.0654 174.323 43.0228 174.854C42.9783 175.387 43.3727 175.852 43.9056 175.897C43.9323 175.899 43.9589 175.9 43.9856 175.9C44.483 175.9 44.9058 175.52 44.9466 175.014C44.991 174.483 44.5967 174.017 44.0637 173.973Z" fill="white" fill-opacity="0.3"/>
<path d="M43.6442 157.79C44.1736 157.719 44.5431 157.23 44.472 156.703C44.401 156.175 43.9125 155.804 43.3849 155.877C42.8573 155.948 42.486 156.434 42.5571 156.964C42.5588 156.964 42.5588 156.964 42.5588 156.964C42.6228 157.449 43.0385 157.799 43.5128 157.799C43.5572 157.799 43.6016 157.797 43.6442 157.79Z" fill="white" fill-opacity="0.3"/>
<path d="M39.4432 140.173C39.9423 139.986 40.1964 139.429 40.0098 138.929C39.8233 138.43 39.2673 138.176 38.7663 138.363C38.2672 138.549 38.0131 139.105 38.1997 139.604C38.3453 139.994 38.713 140.233 39.1039 140.233C39.2176 140.235 39.3312 140.216 39.4432 140.173Z" fill="white" fill-opacity="0.3"/>
<path d="M41.4307 192.993C41.5906 192.484 41.3064 191.942 40.7983 191.784C40.2903 191.624 39.7485 191.906 39.5886 192.416C39.4287 192.926 39.7112 193.468 40.221 193.626C40.3169 193.656 40.4146 193.672 40.5106 193.672C40.9191 193.67 41.3011 193.406 41.4307 192.993Z" fill="white" fill-opacity="0.3"/>
<path d="M38.2011 201.58C38.416 201.092 38.194 200.522 37.7055 200.307C37.2187 200.092 36.6467 200.312 36.4335 200.801C36.2186 201.289 36.4389 201.859 36.9274 202.074C37.0535 202.129 37.185 202.158 37.3164 202.158C37.6877 202.158 38.0412 201.943 38.2011 201.58Z" fill="white" fill-opacity="0.3"/>
<path d="M11.5458 218.691C11.7927 218.691 12.0396 218.597 12.2279 218.409C12.6063 218.032 12.6063 217.421 12.2297 217.043C11.8531 216.666 11.242 216.664 10.8654 217.041C10.487 217.417 10.4852 218.03 10.8619 218.407C11.0502 218.597 11.2989 218.691 11.5458 218.691Z" fill="white" fill-opacity="0.3"/>
<path d="M31.43 178.254C31.4726 178.26 31.5153 178.263 31.5561 178.263C32.034 178.263 32.4479 177.91 32.5118 177.425C32.5829 176.897 32.2099 176.41 31.6805 176.341C31.1529 176.272 30.6661 176.645 30.5968 177.172C30.5293 177.698 30.9006 178.185 31.43 178.254Z" fill="white" fill-opacity="0.3"/>
<path d="M4.19671 113.166C4.37257 113.301 4.58042 113.367 4.78648 113.367C5.07604 113.367 5.36204 113.237 5.55212 112.99C5.87721 112.567 5.79904 111.961 5.37625 111.636C4.95346 111.309 4.3477 111.388 4.02084 111.81C3.69575 112.233 3.77569 112.841 4.19671 113.166Z" fill="white" fill-opacity="0.3"/>
<path d="M18.1986 210.067C17.7758 209.741 17.1701 209.82 16.8432 210.242C16.5181 210.665 16.5963 211.271 17.0191 211.598C17.1949 211.733 17.401 211.799 17.6071 211.799C17.8966 211.799 18.1826 211.669 18.3727 211.422C18.6996 210.999 18.6196 210.393 18.1986 210.067Z" fill="white" fill-opacity="0.3"/>
<path d="M25.9832 141.628C26.1377 142.001 26.4966 142.227 26.8767 142.227C26.9993 142.227 27.1254 142.204 27.2445 142.152C27.7383 141.95 27.9728 141.385 27.7685 140.891C27.566 140.399 26.9993 140.164 26.5072 140.367C26.0152 140.571 25.7807 141.136 25.9832 141.628Z" fill="white" fill-opacity="0.3"/>
<path d="M26.4275 195.882C26.5483 195.933 26.6744 195.956 26.7988 195.956C27.1772 195.956 27.536 195.733 27.6906 195.361H27.6923C27.8966 194.869 27.6639 194.303 27.1701 194.098C26.678 193.892 26.1131 194.127 25.907 194.619C25.701 195.113 25.9337 195.678 26.4275 195.882Z" fill="white" fill-opacity="0.3"/>
<path d="M23.2083 202.376C22.7482 202.108 22.1566 202.266 21.8902 202.726C21.6219 203.188 21.7783 203.78 22.2401 204.046C22.3911 204.135 22.5581 204.178 22.7233 204.178C23.0573 204.178 23.3806 204.005 23.56 203.696C23.8265 203.234 23.6702 202.643 23.2083 202.376Z" fill="white" fill-opacity="0.3"/>
<path d="M22.8213 133.984C22.9848 133.984 23.1518 133.943 23.3027 133.854C23.7646 133.588 23.9227 132.998 23.658 132.536C23.3916 132.074 22.8018 131.916 22.3399 132.181C21.8781 132.447 21.72 133.037 21.9846 133.499C22.1641 133.811 22.4874 133.984 22.8213 133.984Z" fill="white" fill-opacity="0.3"/>
<path d="M17.1366 124.611C16.7121 124.937 16.6321 125.542 16.9554 125.967C16.9572 125.967 16.9572 125.967 16.9572 125.967C17.1455 126.216 17.4333 126.345 17.7246 126.345C17.9289 126.345 18.135 126.281 18.3109 126.146C18.7337 125.821 18.8136 125.215 18.4903 124.793C18.167 124.368 17.5594 124.286 17.1366 124.611Z" fill="white" fill-opacity="0.3"/>
<path d="M11.678 119.433C11.9249 119.433 12.17 119.339 12.3601 119.153C12.7385 118.776 12.7385 118.165 12.3619 117.787C11.9871 117.408 11.3742 117.406 10.9976 117.783C10.6192 118.16 10.6174 118.771 10.9941 119.149C11.1824 119.339 11.4293 119.433 11.678 119.433Z" fill="white" fill-opacity="0.3"/>
<path d="M31.4592 158.015C30.9298 158.085 30.555 158.568 30.6243 159.097C30.6865 159.584 31.1021 159.941 31.58 159.941C31.6208 159.941 31.6635 159.938 31.7061 159.932C32.2337 159.865 32.6085 159.38 32.5393 158.85C32.4718 158.323 31.9868 157.948 31.4592 158.015Z" fill="white" fill-opacity="0.3"/>
<path d="M29.5659 149.032C29.0507 149.169 28.7434 149.698 28.8802 150.213C28.9956 150.647 29.3865 150.933 29.8128 150.933C29.8963 150.933 29.978 150.922 30.0633 150.899C30.5784 150.762 30.8858 150.235 30.7472 149.718C30.6104 149.201 30.0828 148.895 29.5659 149.032Z" fill="white" fill-opacity="0.3"/>
<path d="M30.6938 186.55C30.8323 186.035 30.525 185.506 30.0116 185.367C29.4965 185.229 28.9671 185.534 28.8285 186.049C28.8303 186.049 28.8303 186.049 28.8303 186.049C28.6917 186.564 28.9955 187.094 29.5125 187.232C29.596 187.255 29.6812 187.266 29.7629 187.266C30.1875 187.266 30.5765 186.982 30.6938 186.55Z" fill="white" fill-opacity="0.3"/>
<path d="M5.2259 224.541C5.64869 224.218 5.72863 223.61 5.40532 223.187C5.08023 222.764 4.47447 222.685 4.04991 223.008C3.62711 223.331 3.54718 223.939 3.87049 224.363C4.06057 224.61 4.34835 224.742 4.63968 224.742C4.84397 224.742 5.05003 224.676 5.2259 224.541Z" fill="white" fill-opacity="0.3"/>
<path d="M32.1615 167.171C31.6285 167.169 31.1951 167.601 31.1951 168.136C31.1933 168.668 31.625 169.102 32.1579 169.102C32.1597 169.102 32.1597 169.102 32.1597 169.102C32.6944 169.102 33.1261 168.67 33.1261 168.137C33.1278 167.604 32.6962 167.171 32.1615 167.171Z" fill="white" fill-opacity="0.3"/>
<path d="M2.12749 210.009C1.7651 209.617 1.154 209.594 0.763186 209.956C0.370595 210.319 0.347503 210.93 0.709895 211.32C0.899973 211.527 1.15755 211.631 1.41869 211.631C1.65318 211.631 1.88767 211.546 2.07419 211.374C2.46678 211.011 2.49165 210.4 2.12749 210.009Z" fill="white" fill-opacity="0.3"/>
<path d="M1.5475 126.48C1.80508 126.48 2.06266 126.377 2.25452 126.173C2.61868 125.782 2.59736 125.171 2.20655 124.809C1.81573 124.446 1.20464 124.466 0.842253 124.857C0.478085 125.247 0.4994 125.858 0.890214 126.221C1.07496 126.395 1.31123 126.48 1.5475 126.48Z" fill="white" fill-opacity="0.3"/>
<path d="M15.6641 190.242C15.7796 190.288 15.9004 190.309 16.0194 190.309C16.4049 190.309 16.7673 190.078 16.9183 189.698C17.1137 189.201 16.8703 188.641 16.3747 188.446C15.8773 188.25 15.3159 188.492 15.1223 188.989C14.9251 189.485 15.1667 190.046 15.6641 190.242Z" fill="white" fill-opacity="0.3"/>
<path d="M19.8296 162.826C19.2967 162.865 18.897 163.327 18.936 163.858C18.9716 164.368 19.3962 164.755 19.8971 164.755C19.9202 164.755 19.9433 164.754 19.9682 164.752C20.5011 164.713 20.9008 164.251 20.8617 163.718C20.8244 163.189 20.3608 162.789 19.8296 162.826Z" fill="white" fill-opacity="0.3"/>
<path d="M7.44383 132.854C7.65523 132.854 7.86662 132.785 8.04604 132.643C8.4635 132.312 8.531 131.703 8.20059 131.287C7.86839 130.87 7.26086 130.801 6.8434 131.133C6.42594 131.465 6.35666 132.072 6.68885 132.488C6.87715 132.73 7.1596 132.854 7.44383 132.854Z" fill="white" fill-opacity="0.3"/>
<path d="M15.7364 145.996C15.239 146.192 14.9939 146.751 15.1893 147.247C15.3385 147.629 15.7027 147.861 16.0882 147.861C16.2036 147.861 16.3244 147.84 16.4381 147.794C16.9355 147.6 17.1807 147.041 16.987 146.543C16.7934 146.048 16.2338 145.803 15.7364 145.996Z" fill="white" fill-opacity="0.3"/>
<path d="M19.527 181.267C19.6478 180.748 19.3209 180.23 18.8022 180.11C18.2817 179.991 17.7648 180.317 17.6458 180.837C17.525 181.358 17.8518 181.874 18.3723 181.994C18.4434 182.009 18.518 182.018 18.5873 182.018C19.0278 182.017 19.4258 181.715 19.527 181.267Z" fill="white" fill-opacity="0.3"/>
<path d="M12.7217 196.317C12.2599 196.049 11.6683 196.205 11.4019 196.667C11.1336 197.127 11.2917 197.719 11.7518 197.987C11.9046 198.076 12.0716 198.116 12.2368 198.116C12.569 198.116 12.8941 197.944 13.0735 197.637C13.3399 197.175 13.1836 196.583 12.7217 196.317Z" fill="white" fill-opacity="0.3"/>
<path d="M19.9572 171.506C19.4261 171.465 18.9624 171.864 18.9234 172.397C18.8825 172.928 19.2804 173.392 19.8133 173.431C19.8382 173.435 19.8631 173.435 19.8862 173.435C20.3871 173.435 20.8099 173.049 20.849 172.541C20.8881 172.01 20.4902 171.546 19.9572 171.506Z" fill="white" fill-opacity="0.3"/>
<path d="M13.1644 138.585C12.8979 138.123 12.3081 137.965 11.8463 138.229C11.3844 138.496 11.2245 139.086 11.491 139.547C11.6704 139.858 11.9937 140.032 12.3277 140.032C12.4911 140.032 12.6581 139.991 12.8091 139.903C13.2727 139.636 13.4308 139.046 13.1644 138.585Z" fill="white" fill-opacity="0.3"/>
<path d="M18.4189 154.26C17.8984 154.377 17.5715 154.894 17.6887 155.415C17.79 155.862 18.1879 156.168 18.6302 156.168C18.7013 156.168 18.7724 156.161 18.8434 156.145C19.3639 156.028 19.689 155.511 19.5718 154.99C19.4563 154.47 18.9393 154.143 18.4189 154.26Z" fill="white" fill-opacity="0.3"/>
<path d="M8.08685 204.915C8.42081 204.497 8.35331 203.892 7.93585 203.558C7.52016 203.224 6.91263 203.291 6.57866 203.709C6.24647 204.126 6.31397 204.732 6.72965 205.066C6.90907 205.208 7.12224 205.279 7.33186 205.279C7.61609 205.277 7.89499 205.153 8.08685 204.915Z" fill="white" fill-opacity="0.3"/>
<path d="M4.23243 149.879C4.71739 149.659 4.93234 149.085 4.71029 148.6C4.49001 148.115 3.91623 147.9 3.43126 148.122C2.94629 148.343 2.72957 148.917 2.9534 149.402C3.11506 149.757 3.46501 149.966 3.83273 149.966C3.96774 149.966 4.10275 149.94 4.23243 149.879Z" fill="white" fill-opacity="0.3"/>
<path d="M0.0290639 142.212C0.464289 141.903 0.565551 141.301 0.256452 140.866C-0.0526465 140.43 -0.654859 140.329 -1.09008 140.638C-1.52531 140.947 -1.62657 141.549 -1.31747 141.985C-1.12917 142.249 -0.832503 142.391 -0.53051 142.391C-0.336879 142.391 -0.141473 142.335 0.0290639 142.212Z" fill="white" fill-opacity="0.3"/>
<path d="M6.90055 158.205C7.41926 158.081 7.73724 157.56 7.61467 157.042C7.49032 156.523 6.96983 156.203 6.45111 156.328C5.93417 156.454 5.61441 156.972 5.73698 157.491C5.84357 157.933 6.23971 158.232 6.67494 158.232C6.74955 158.232 6.82594 158.223 6.90055 158.205Z" fill="white" fill-opacity="0.3"/>
<path d="M4.49057 182.825C4.3147 183.328 4.58117 183.878 5.08567 184.054C5.19226 184.09 5.29884 184.108 5.40365 184.108C5.80335 184.108 6.17818 183.857 6.31496 183.459C6.49083 182.957 6.22437 182.406 5.71986 182.23C5.21536 182.054 4.66644 182.321 4.49057 182.825Z" fill="white" fill-opacity="0.3"/>
<path d="M6.93061 165.963C6.95371 166.482 7.38183 166.887 7.89522 166.887C7.90943 166.887 7.92364 166.885 7.93963 166.885C8.47256 166.86 8.88468 166.409 8.86159 165.876C8.83672 165.343 8.38551 164.931 7.85258 164.954C7.31965 164.981 6.90752 165.432 6.93061 165.963Z" fill="white" fill-opacity="0.3"/>
<path d="M2.58948 191.569C2.85772 191.108 2.70139 190.515 2.23952 190.249C1.77943 189.98 1.18788 190.139 0.921415 190.599C0.653174 191.06 0.8095 191.652 1.27137 191.918C1.42237 192.007 1.58935 192.05 1.75456 192.05C2.08853 192.05 2.41184 191.878 2.58948 191.569Z" fill="white" fill-opacity="0.3"/>
<path d="M7.33291 175.605C7.37909 175.613 7.42706 175.614 7.47147 175.614C7.944 175.614 8.3579 175.268 8.42541 174.786C8.5018 174.259 8.13585 173.769 7.60648 173.692C7.07888 173.616 6.58858 173.982 6.5122 174.511C6.43936 175.041 6.80353 175.531 7.33291 175.605Z" fill="white" fill-opacity="0.3"/>
<ellipse cx="-37.9955" cy="168.034" rx="113.069" ry="113.069" transform="rotate(90 -37.9955 168.034)" fill="currentColor"/>
<circle cx="-38.0029" cy="168.035" r="84.4034" fill="#011530"/>
<defs>
<linearGradient id="paint0_linear_1638_902" x1="-78.945" y1="168.034" x2="84.3867" y2="168.034" gradientUnits="userSpaceOnUse">
<stop stop-color="#FFD15B"/>
<stop offset="1" stop-color="#ECA026"/>
</linearGradient>
</defs>
</svg>
