<svg width="25" height="50" viewBox="0 0 25 50" fill="none" xmlns="http://www.w3.org/2000/svg">
<path d="M25 10.8498V39.0805H21.4352V10.8498C21.4352 7.22544 18.5869 3.32204 12.3307 3.32204C5.41138 3.32204 3.56481 8.05262 3.56481 10.8498V37.8281H3.58976V42.6683C3.58976 44.7279 6.06017 46.6746 8.67318 46.6746C11.6819 46.6746 14.2592 44.4057 14.2592 42.552V41.655H14.2485L14.2771 16.3511C14.2771 13.4476 13.3965 13.4476 12.6159 13.4476C11.3004 13.4476 10.6659 13.5639 10.6659 16.1817V33.2769H7.1011V16.1817C7.1011 14.6834 7.1011 10.1256 12.6159 10.1256C15.0007 10.1256 17.8419 11.2052 17.8419 16.3544L17.8169 37.7151H17.824V42.5553C17.824 46.4521 13.4607 50 8.67318 50C4.06745 50 0.0249535 46.575 0.0249535 42.6716V42.4258H0V10.8498C0 5.62421 3.85712 0 12.3307 0C20.6474 0.00332204 25 5.45811 25 10.8498Z" fill="#F44A56"/>
</svg>
