<svg width="50" height="50" viewBox="0 0 50 50" fill="none" xmlns="http://www.w3.org/2000/svg">
<path d="M47.1218 42.3387C47.0763 42.2968 42.8502 38.1645 42.8502 31.9839V21.3645C42.8502 11.3613 34.8147 3.22581 24.943 3.22581C15.0713 3.22581 7.03588 11.3613 7.03588 21.3645V31.9839C7.03588 37.9871 2.78375 42.3161 2.74468 42.3581L0 45.1097H50L47.1218 42.3387ZM7.20518 41.8839C8.65078 39.6516 10.2917 36.1936 10.2917 31.9839V21.3645C10.2917 13.1419 16.8653 6.45161 24.943 6.45161C33.0208 6.45161 39.5943 13.1419 39.5943 21.3645V31.9839C39.5943 36.2419 41.206 39.671 42.6483 41.8839H7.20518ZM26.5709 3.22581H23.3151V0H26.5709V3.22581ZM26.5709 45.1613H29.8268C29.8268 47.829 27.6356 50 24.943 50C22.2504 50 20.0593 47.829 20.0593 45.1613H23.3151C23.3151 46.0516 24.0477 46.7742 24.943 46.7742C25.8384 46.7742 26.5709 46.0516 26.5709 45.1613Z" fill="#36BA5B"/>
</svg>
