<svg width="17" height="18" viewBox="0 0 17 18" fill="none" xmlns="http://www.w3.org/2000/svg">
<path d="M15.3829 10.554C15.4875 10.038 15.5573 9.48516 15.5573 8.93233C15.5573 4.76765 12.3483 1.37694 8.40687 1.37694C7.88367 1.37694 7.36047 1.45066 6.87215 1.56122C6.20943 1.00839 5.37231 0.676689 4.50031 0.676689C2.33775 0.676689 0.59375 2.55632 0.59375 4.80451C0.59375 5.76275 0.87279 6.64728 1.39599 7.34754C1.29135 7.86352 1.22159 8.41635 1.22159 8.93233C1.22159 13.1339 4.43055 16.5246 8.37199 16.5246C8.89518 16.5246 9.41838 16.4509 9.9067 16.3403C10.5694 16.8931 11.4065 17.188 12.2785 17.188C14.4411 17.188 16.1851 15.3452 16.1851 13.0601C16.22 12.1388 15.9061 11.2542 15.3829 10.554ZM8.61615 13.9447C6.31407 13.9447 4.39567 12.8759 4.39567 11.5491C4.39567 10.9594 4.70959 10.4065 5.44207 10.4065C6.52335 10.4065 6.62799 12.065 8.51151 12.065C9.3835 12.065 9.97646 11.6596 9.97646 11.1068C9.97646 10.4065 9.41838 10.296 8.51151 10.0748C6.34895 9.48516 4.39567 9.26403 4.39567 6.86842C4.39567 4.65709 6.45359 3.84626 8.19759 3.84626C10.116 3.84626 12.0693 4.65709 12.0693 5.91017C12.0693 6.53672 11.6856 7.08955 11.0229 7.08955C10.0462 7.08955 10.0113 5.83646 8.40687 5.83646C7.49999 5.83646 6.94191 6.09445 6.94191 6.68414C6.94191 7.3844 7.67439 7.45811 9.34862 7.90037C10.7787 8.23207 12.5227 8.85862 12.5227 10.7382C12.5227 12.9127 10.5345 13.9447 8.61615 13.9447Z" fill="#222222"/>
</svg>
