<svg width="40" height="36" viewBox="0 0 40 36" fill="none" xmlns="http://www.w3.org/2000/svg">
<path d="M36.25 18H30V13C30 10.2422 32.2422 8 35 8H35.625C36.6641 8 37.5 7.16406 37.5 6.125V2.375C37.5 1.33594 36.6641 0.5 35.625 0.5H35C28.0938 0.5 22.5 6.09375 22.5 13V31.75C22.5 33.8203 24.1797 35.5 26.25 35.5H36.25C38.3203 35.5 40 33.8203 40 31.75V21.75C40 19.6797 38.3203 18 36.25 18ZM13.75 18H7.5V13C7.5 10.2422 9.74219 8 12.5 8H13.125C14.1641 8 15 7.16406 15 6.125V2.375C15 1.33594 14.1641 0.5 13.125 0.5H12.5C5.59375 0.5 0 6.09375 0 13V31.75C0 33.8203 1.67969 35.5 3.75 35.5H13.75C15.8203 35.5 17.5 33.8203 17.5 31.75V21.75C17.5 19.6797 15.8203 18 13.75 18Z" fill="#FAC44D"/>
</svg>
